SplineFontDB: 3.0
FontName: Crimson-SemiboldItalic
FullName: Crimson Semibold Italic
FamilyName: Crimson
Weight: Semibold
Copyright: Copyright (c) 2010, Sebastian Kosch (sebastian@aldusleaf.org),\nwith Reserved Font Name "Crimson".\nThis Font Software is licensed under the SIL Open Font License, Version 1.1.\nThis license is available with a FAQ at: http://scripts.sil.org/OFL
UComments: "2011-10-23: Created."
Version: 0.8
StyleMapFamilyName: 
ItalicAngle: -11
UnderlinePosition: -100
UnderlineWidth: 50
Ascent: 742
Descent: 282
InvalidEm: 0
UFOAscent: 742
UFODescent: -282
LayerCount: 2
Layer: 0 0 "Back" 1
Layer: 1 0 "Fore" 0
PreferredKerning: 4
StyleMap: 0x0001
FSType: 0
OS2Version: 0
OS2_WeightWidthSlopeOnly: 0
OS2_UseTypoMetrics: 0
CreationTime: 1489886965
ModificationTime: 1489887388
PfmFamily: 16
TTFWeight: 600
TTFWidth: 5
LineGap: 256
VLineGap: 0
OS2TypoAscent: 742
OS2TypoAOffset: 0
OS2TypoDescent: -282
OS2TypoDOffset: 0
OS2TypoLinegap: 256
OS2WinAscent: 1130
OS2WinAOffset: 0
OS2WinDescent: 427
OS2WinDOffset: 0
HheadAscent: 1130
HheadAOffset: 0
HheadDescent: -427
HheadDOffset: 0
OS2SubXSize: 665
OS2SubYSize: 614
OS2SubXOff: -16
OS2SubYOff: 76
OS2SupXSize: 665
OS2SupYSize: 614
OS2SupXOff: 76
OS2SupYOff: 358
OS2StrikeYSize: 50
OS2StrikeYPos: 265
OS2FamilyClass: 258
OS2Vendor: 'PfEd'
Lookup: 1 0 0 "ccmpGlyphCompositionDecompositioninLatinlookup0" { "ccmpGlyphCompositionDecompositioninLatinlookup0 subtable"  } ['ccmp' ('latn' <'TRK ' > ) ]
Lookup: 1 0 0 "pnumProportionalNumberslookup1" { "pnumProportionalNumberslookup1 subtable"  } ['pnum' ('latn' <'dflt' 'TRK ' > 'grek' <'dflt' > 'DFLT' <'dflt' > ) ]
Lookup: 258 0 0 "kern0" { "kern0 per glyph data 0"  "kern0 kerning class 1"  } ['kern' ('latn' <'dflt' 'TRK ' > 'grek' <'dflt' > 'DFLT' <'dflt' > ) ]
DEI: 91125
KernClass2: 75 59 "kern0 kerning class 1"
 73 A Aacute Abreve Acircumflex Adieresis Agrave Amacron Aogonek Aring Atilde
 84 AE E Eacute Ebreve Ecaron Ecircumflex Edieresis Edotaccent Egrave Emacron Eogonek OE

StartChar: exclam
Encoding: 0 33 0
GlifName: exclam
Width: 245
VWidth: 0
GlyphClass: 2
Flags: W
HStem: -12 127<74 87>
VStem: 21 118 89 39
LayerCount: 2
Fore
SplineSet
21 48 m 257
 25 85 56 115 92 115 c 256
 121 115 143 88 139 58 c 257
 135 20 105 -12 69 -12 c 256
 38 -12 17 16 21 48 c 257
198 636 m 257
 223 636 240 613 236 581 c 257
 234 553 165 331 128 196 c 256
 123 179 104 169 95 169 c 257
 90 169 89 179 89 189 c 257
 91 225 117 476 132 576 c 256
 138 606 166 636 198 636 c 257
EndSplineSet
Validated: 8388641
PickledDataWithLists: "(dp1
S'com.fontlab.hintData'
p2
(dp3
S'vhints'
p4
(lp5
(dp6
S'position'
p7
I21
sS'width'
p8
I118
sa(dp9
g7
I89
sg8
I39
sasS'hhints'
p10
(lp11
(dp12
g7
I-12
sg8
I127
sass."
EndChar

StartChar: quotedbl
Encoding: 1 34 1
GlifName: quotedbl
Width: 334
VWidth: 0
GlyphClass: 2
Flags: W
HStem: 434 264<118.5 191 159 277.5>
VStem: 107 98 259 98
LayerCount: 2
Fore
SplineSet
329 698 m 256
 357 698 368 692 357 633 c 256
 346 577 314 516 295 449 c 256
 292 439 281 434 274 434 c 256
 267 434 258 439 259 447 c 256
 268 537 259 590 259 636 c 257
 262 654 293 698 329 698 c 256
177 698 m 256
 205 698 216 692 205 633 c 256
 194 577 162 516 143 449 c 256
 140 439 129 434 122 434 c 256
 115 434 106 439 107 447 c 256
 116 537 107 590 107 636 c 257
 110 654 141 698 177 698 c 256
EndSplineSet
Validated: 33
PickledDataWithLists: "(dp1
S'com.fontlab.hintData'
p2
(dp3
S'vhints'
p4
(lp5
(dp6
S'position'
p7
I107
sS'width'
p8
I98
sa(dp9
g7
I259
sg8
I98
sasS'hhints'
p10
(lp11
(dp12
g7
I434
sg8
I264
sass."
EndChar

StartChar: numbersign
Encoding: 2 35 2
GlifName: numbersign
Width: 460
VWidth: 0
GlyphClass: 2
Flags: W
HStem: 174 58<22 118 42 100 173 240 42 154 313 370> 316 58<70 166 90 147 90 202 220 287 360 418>
LayerCount: 2
Fore
SplineSet
360 374 m 257
 360 374 422 374 436 374 c 256
 441 374 442 373 442 370 c 257
 442 354 428 316 418 316 c 257
 342 316 l 257
 313 232 l 257
 388 232 l 257
 392 232 394 232 394 228 c 257
 394 212 380 174 370 174 c 257
 294 174 l 257
 244 24 l 257
 244 22 237 17 209 17 c 256
 199 17 187 19 186 21 c 257
 187 25 212 98 212 99 c 256
 212 101 240 174 240 174 c 257
 154 174 l 257
 104 24 l 257
 104 22 97 17 69 17 c 256
 59 17 47 19 46 21 c 257
 47 25 72 98 72 99 c 256
 72 101 100 174 100 174 c 257
 24 174 l 257
 20 174 18 174 18 178 c 257
 18 194 32 232 42 232 c 257
 118 232 l 257
 147 316 l 257
 72 316 l 257
 68 316 66 316 66 320 c 257
 66 336 80 374 90 374 c 257
 166 374 l 257
 216 524 l 257
 216 526 226 531 254 531 c 256
 264 531 273 528 274 526 c 257
 273 522 248 450 248 449 c 256
 248 447 220 374 220 374 c 257
 306 374 l 257
 356 524 l 257
 356 526 366 531 394 531 c 256
 404 531 413 528 414 526 c 257
 413 522 388 450 388 449 c 256
 388 447 360 374 360 374 c 257
287 316 m 257
 202 316 l 257
 173 232 l 257
 258 232 l 257
 287 316 l 257
EndSplineSet
Validated: 1
PickledDataWithLists: "(dp1
S'com.fontlab.hintData'
p2
(dp3
S'hhints'
p4
(lp5
(dp6
S'position'
p7
I174
sS'width'
p8
I58
sa(dp9
g7
I316
sg8
I58
sass."
EndChar

StartChar: dollar
Encoding: 3 36 3
GlifName: dollar
Width: 470
VWidth: 0
GlyphClass: 2
Flags: W
HStem: -9 40<182.487 211 182.487 231> 602 41<280 307.724>
VStem: 30 38 399 33
LayerCount: 2
Fore
SplineSet
136 -58 m 257
 128 -58 103 -53 105 -46 c 258
 118.994 -4.01696 l 257
 84.2741 0.964663 50.8283 8.76087 24 15 c 257
 21 53 25 138 30 172 c 256
 33 178 48 183 54 183 c 256
 62 183 67 179 68 175 c 256
 68 138.719 81.6856 70.0904 134.57 42.7097 c 257
 212.3 275.899 l 257
 139.477 327.153 78.2315 374.194 97 471 c 256
 116 570 221 643 313 643 c 256
 320.11 643 327.24 642.656 334.348 642.043 c 257
 348 683 l 257
 356 683 381 680 379 673 c 258
 367.202 637.51 l 257
 398.228 631.83 427.45 623.092 451 618 c 257
 447 572 442 528 432 470 c 256
 429 464 427 464 423 464 c 256
 417 464 399 464 399 472 c 256
 400.496 504.914 387.444 561.329 350.634 587.668 c 257
 279.763 374.471 l 257
 283.502 371.611 287.256 368.79 291 366 c 256
 352 320 429 274 409 169 c 256
 389 63 280 -9 182 -9 c 256
 172.343 -9 162.533 -8.56842 152.687 -7.8027 c 257
 136 -58 l 257
166.09 32.5162 m 257
 172.344 31.525 178.974 31 186 31 c 256
 236 31 291 61 305 132 c 256
 316.21 189.65 276.13 228.067 240.202 255.464 c 257
 166.09 32.5162 l 257
320.526 600.579 m 257
 315.619 601.508 310.447 602 305 602 c 256
 255 602 211 576 199 512 c 256
 190.074 464.394 217.112 427.855 252.54 396.619 c 257
 320.526 600.579 l 257
EndSplineSet
Validated: 524321
PickledDataWithLists: "(dp1
S'com.fontlab.hintData'
p2
(dp3
S'vhints'
p4
(lp5
(dp6
S'position'
p7
I30
sS'width'
p8
I38
sa(dp9
g7
I399
sg8
I33
sasS'hhints'
p10
(lp11
(dp12
g7
I-9
sg8
I40
sa(dp13
g7
I602
sg8
I41
sass."
EndChar

StartChar: percent
Encoding: 4 37 4
GlifName: percent
Width: 662
VWidth: 0
GlyphClass: 2
Flags: W
HStem: -4 29<429.5 476.5 429.5 482> 286 28<462.5 508.5> 340 29<178.5 225.5 178.5 231> 630 28<211.5 257.5>
VStem: 71 77<454 454> 285 78 322 77<110 110> 536 78
LayerCount: 2
Fore
SplineSet
492 286 m 257
 433 286 396 185 399 109 c 257
 400 75 412 25 447 25 c 257
 506 25 538 128 536 202 c 257
 535 236 525 286 492 286 c 257
500 314 m 257
 568 314 611 272 614 198 c 257
 617 102 528 -4 436 -4 c 257
 368 -4 324 44 322 110 c 257
 319 206 406 314 500 314 c 257
241 630 m 257
 182 630 145 529 148 453 c 257
 149 419 161 369 196 369 c 257
 255 369 287 472 285 546 c 257
 284 580 274 630 241 630 c 257
249 658 m 257
 317 658 360 616 363 542 c 257
 366 446 277 340 185 340 c 257
 117 340 73 388 71 454 c 257
 68 550 155 658 249 658 c 257
618 634 m 257
 96 -7 l 257
 94 -9 69 -10 62 -4 c 257
 58 -3 56 0 56 5 c 257
 578 648 l 257
 580 650 599 649 604 643 c 257
 610 642 616 640 618 634 c 257
EndSplineSet
Validated: 8388641
PickledDataWithLists: "(dp1
S'com.fontlab.hintData'
p2
(dp3
S'vhints'
p4
(lp5
(dp6
S'position'
p7
I71
sS'width'
p8
I77
sa(dp9
g7
I285
sg8
I78
sa(dp10
g7
I322
sg8
I77
sa(dp11
g7
I536
sg8
I78
sasS'hhints'
p12
(lp13
(dp14
g7
I-4
sg8
I29
sa(dp15
g7
I286
sg8
I28
sa(dp16
g7
I340
sg8
I29
sa(dp17
g7
I630
sg8
I28
sass."
EndChar

StartChar: ampersand
Encoding: 5 38 5
GlifName: ampersand
Width: 795
VWidth: 0
GlyphClass: 2
Flags: W
HStem: -5 41<363.571 458> 488 48<354.736 370>
VStem: -8 56<93.5 170.026> 131 105 400 120<395.616 452> 440 36<167 169 141 210> 606 63<161 200.5> 733 59
LayerCount: 2
Fore
SplineSet
434 536 m 256
 480 536 520 500 520 454 c 256
 520 325.975 338.81 266.457 236.165 240.609 c 257
 239.96 110.63 309.142 36 418 36 c 256
 510 36 606 99 606 192 c 256
 606 209 598 230 592 236 c 257
 540 218 476 191 476 147 c 256
 476 135 477 130 479 122 c 257
 475 120 463 124 457 130 c 256
 450 137 440 154 440 180 c 256
 440 240 482 264 562 306 c 256
 642 346 737 410 733 544 c 257
 742 545 752 540 756 537 c 256
 774 516 792 480 792 436 c 256
 792 354 732 296 662 262 c 257
 666 254 669 240 669 225 c 256
 669 97 530 -5 386 -5 c 256
 257.112 -5 133.139 61.8413 131.027 215.015 c 257
 83.5287 201.799 48 186.053 48 154 c 256
 48 136 58 130 68 120 c 256
 79 110 88 100 88 84 c 256
 88 53 66 36 39 36 c 256
 27 36 18 37 10 41 c 257
 -2 57 -8 85 -8 102 c 256
 -8 169 34 221 110 245 c 256
 116.729 247.097 124.497 249.294 133.07 251.643 c 257
 150.462 390.752 275.471 536 434 536 c 256
237.043 282.206 m 257
 317.783 310.363 400 355.233 400 436 c 256
 400 468 384 488 356 488 c 256
 293.615 488 244.696 392.891 237.043 282.206 c 257
EndSplineSet
Validated: 8912929
PickledDataWithLists: "(dp1
S'com.fontlab.hintData'
p2
(dp3
S'vhints'
p4
(lp5
(dp6
S'position'
p7
I-8
sS'width'
p8
I56
sa(dp9
g7
I131
sg8
I105
sa(dp10
g7
I400
sg8
I120
sa(dp11
g7
I440
sg8
I36
sa(dp12
g7
I606
sg8
I63
sa(dp13
g7
I733
sg8
I59
sasS'hhints'
p14
(lp15
(dp16
g7
I-5
sg8
I41
sa(dp17
g7
I488
sg8
I48
sass."
EndChar

StartChar: quotesingle
Encoding: 6 39 6
GlifName: quotesingle
Width: 182
VWidth: 0
GlyphClass: 2
Flags: W
HStem: 434 264<118.5 191>
VStem: 107 98
LayerCount: 2
Fore
SplineSet
177 698 m 256
 205 698 216 692 205 633 c 256
 194 577 162 516 143 449 c 256
 140 439 129 434 122 434 c 256
 115 434 106 439 107 447 c 256
 116 537 107 590 107 636 c 257
 110 654 141 698 177 698 c 256
EndSplineSet
Validated: 33
PickledDataWithLists: "(dp1
S'com.fontlab.hintData'
p2
(dp3
S'vhints'
p4
(lp5
(dp6
S'position'
p7
I107
sS'width'
p8
I98
sasS'hhints'
p9
(lp10
(dp11
g7
I434
sg8
I264
sass."
EndChar

StartChar: parenleft
Encoding: 7 40 7
GlifName: parenleft
Width: 268
VWidth: 0
GlyphClass: 2
Flags: W
VStem: 43 264
LayerCount: 2
Fore
SplineSet
299 748 m 257
 305 746 307 739 307 735 c 257
 239 664 86 418 108 164 c 256
 120 23 154 -54 210 -109 c 257
 210 -112 211 -119 205 -121 c 257
 141 -99 58 4 43 177 c 256
 17 474 211 676 299 748 c 257
EndSplineSet
Validated: 33
PickledDataWithLists: "(dp1
S'com.fontlab.hintData'
p2
(dp3
S'vhints'
p4
(lp5
(dp6
S'position'
p7
I43
sS'width'
p8
I264
sass."
EndChar

StartChar: parenright
Encoding: 8 41 8
GlifName: parenright
Width: 267
VWidth: 0
GlyphClass: 2
Flags: W
VStem: -22 264
LayerCount: 2
Fore
SplineSet
-14 -121 m 257
 -20 -119 -23 -112 -22 -108 c 257
 46 -37 199 209 177 463 c 256
 165 604 131 681 75 736 c 257
 75 739 75 746 81 748 c 257
 146 726 227 623 242 450 c 256
 268 153 74 -49 -14 -121 c 257
EndSplineSet
Validated: 33
PickledDataWithLists: "(dp1
S'com.fontlab.hintData'
p2
(dp3
S'vhints'
p4
(lp5
(dp6
S'position'
p7
I-22
sS'width'
p8
I264
sass."
EndChar

StartChar: asterisk
Encoding: 9 42 9
GlifName: asterisk
Width: 412
VWidth: 0
GlyphClass: 2
Flags: W
HStem: 430 74<103 118> 464 51<255 272.5> 472 24<209.5 219 198 223.5> 644 20<208.5 235.5>
VStem: 162 70 229 48<451 508>
LayerCount: 2
Fore
SplineSet
262 515 m 256
 287 515 330 634 384 634 c 256
 398 634 409 625 409 606 c 256
 409 546 277 524 277 492 c 256
 277 465 400 480 400 422 c 256
 400 400 378 380 358 380 c 256
 315 380 285 464 260 464 c 256
 237 464 250 397 232 340 c 256
 223 310 204 300 190 300 c 256
 176 300 162 313 162 330 c 256
 162 370 229 438 229 464 c 256
 229 469 227 472 220 472 c 256
 199 472 137 430 99 430 c 256
 82 430 68 441 68 457 c 256
 68 470 76 504 130 504 c 256
 159 504 188 496 208 496 c 256
 230 496 232 503 232 510 c 256
 232 534 180 577 180 620 c 256
 180 645 198 664 219 664 c 256
 252 664 252 622 252 582 c 256
 252 576 248 515 262 515 c 256
EndSplineSet
Validated: 8388641
PickledDataWithLists: "(dp1
S'com.fontlab.hintData'
p2
(dp3
S'vhints'
p4
(lp5
(dp6
S'position'
p7
I162
sS'width'
p8
I70
sa(dp9
g7
I229
sg8
I48
sasS'hhints'
p10
(lp11
(dp12
g7
I430
sg8
I74
sa(dp13
g7
I464
sg8
I51
sa(dp14
g7
I472
sg8
I24
sa(dp15
g7
I644
sg8
I20
sass."
EndChar

StartChar: plus
Encoding: 10 43 10
GlifName: plus
Width: 462
VWidth: 0
GlyphClass: 2
Flags: W
HStem: 215 47<24.5 204 35 196 35 248 256 416>
LayerCount: 2
Fore
SplineSet
26 215 m 258
 23 215 21 218 21 223 c 256
 21 236 25 249 35 262 c 257
 204 262 l 257
 238 435 l 258
 240 448 278 451 282 451 c 256
 290 451 293 447 292 443 c 258
 256 262 l 257
 426 262 l 258
 428 262 429 259 429 254 c 256
 429 241 427 227 416 215 c 257
 248 215 l 257
 214 39 l 258
 212 29 190 23 174 23 c 256
 164 23 160 27 160 31 c 258
 196 215 l 257
 26 215 l 258
EndSplineSet
Validated: 1
PickledDataWithLists: "(dp1
S'com.fontlab.hintData'
p2
(dp3
S'hhints'
p4
(lp5
(dp6
S'position'
p7
I215
sS'width'
p8
I47
sass."
EndChar

StartChar: comma
Encoding: 11 44 11
GlifName: comma
Width: 208
VWidth: 0
GlyphClass: 2
Flags: W
HStem: -131 263
VStem: 12 106<79 86>
LayerCount: 2
Fore
SplineSet
-32 -112 m 257
 -23 -106 38 -54 38 -9 c 256
 38 20 12 23 12 62 c 256
 12 110 51 132 84 132 c 256
 94 132 112 125 116 119 c 257
 118 114 118 105 118 98 c 256
 118 60 109 12 88 -24 c 256
 60 -72 27 -101 -18 -131 c 257
 -24 -130 -32 -121 -32 -112 c 257
EndSplineSet
Validated: 1
PickledDataWithLists: "(dp1
S'com.fontlab.hintData'
p2
(dp3
S'vhints'
p4
(lp5
(dp6
S'position'
p7
I12
sS'width'
p8
I106
sasS'hhints'
p9
(lp10
(dp11
g7
I-131
sg8
I263
sass."
EndChar

StartChar: hyphen
Encoding: 12 45 12
GlifName: hyphen
Width: 366
VWidth: 0
GlyphClass: 2
Flags: W
VStem: 50 256<207 266.5>
LayerCount: 2
Fore
SplineSet
72 264 m 258
 300 276 l 258
 305 276 306 269 306 264 c 256
 306 251 291 208 281 207 c 258
 55 196 l 258
 52 196 50 203 50 211 c 256
 50 222 61 263 72 264 c 258
EndSplineSet
Validated: 1
PickledDataWithLists: "(dp1
S'com.fontlab.hintData'
p2
(dp3
S'vhints'
p4
(lp5
(dp6
S'position'
p7
I50
sS'width'
p8
I256
sass."
EndChar

StartChar: period
Encoding: 13 46 13
GlifName: period
Width: 212
VWidth: 0
GlyphClass: 2
Flags: W
HStem: -12 127<62 72>
VStem: 7 118
LayerCount: 2
Fore
SplineSet
7 46 m 256
 11 83 45 115 79 115 c 257
 109 115 128 90 125 58 c 256
 121 21 89 -12 55 -12 c 257
 24 -12 3 14 7 46 c 256
EndSplineSet
Validated: 33
PickledDataWithLists: "(dp1
S'com.fontlab.hintData'
p2
(dp3
S'vhints'
p4
(lp5
(dp6
S'position'
p7
I7
sS'width'
p8
I118
sasS'hhints'
p9
(lp10
(dp11
g7
I-12
sg8
I127
sass."
EndChar

StartChar: slash
Encoding: 14 47 14
GlifName: slash
Width: 393
VWidth: 0
GlyphClass: 2
Flags: W
LayerCount: 2
Fore
SplineSet
458 755 m 257
 34 -12 l 258
 31 -17 7 -34 -16 -34 c 256
 -20 -34 -27 -30 -28 -28 c 257
 397 739 l 258
 402 747 428 761 446 761 c 256
 452 761 456 758 458 755 c 257
EndSplineSet
Validated: 1
EndChar

StartChar: zero
Encoding: 15 48 15
GlifName: zero
Width: 468
VWidth: 0
GlyphClass: 2
Flags: W
HStem: -4 36<216.521 277.521 216.521 294.521> 605 36<316.521 379.521>
LayerCount: 2
Fore
SplineSet
188.521 236 m 256
 173.521 128 191.521 32 241.521 32 c 256
 313.521 32 388.521 204 404.521 394 c 256
 420.521 488 407.521 605 351.521 605 c 256
 281.521 605 204.521 438 188.521 236 c 256
85.5215 307 m 256
 121.521 491 240.521 641 358.521 641 c 256
 488.521 641 539.521 498 505.521 326 c 256
 471.521 154 357.521 -4 231.521 -4 c 256
 112.521 -4 51.5215 135 85.5215 307 c 256
EndSplineSet
Validated: 524321
PickledDataWithLists: "(dp1
S'com.fontlab.hintData'
p2
(dp3
S'hhints'
p4
(lp5
(dp6
S'position'
p7
I-4
sS'width'
p8
I36
sa(dp9
g7
I605
sg8
I36
sass."
Substitution2: "pnumProportionalNumberslookup1 subtable" zero.prop
EndChar

StartChar: one
Encoding: 16 49 16
GlifName: one
Width: 468
VWidth: 0
GlyphClass: 2
Flags: W
HStem: -3 29 622 20<413.266 415.266 415.266 418.266>
VStem: 124 299
LayerCount: 2
Fore
SplineSet
214.266 506 m 257
 207.266 510 205.266 521 205.266 528 c 256
 205.266 530 205.266 533 208.266 535 c 257
 306.266 585 386.266 626 413.266 642 c 257
 415.266 642 l 258
 421.266 642 424.266 623 423.266 614 c 257
 423.266 614 401.266 570 385.266 484 c 258
 319.266 135 l 258
 313.266 102 308.266 73 309.266 46 c 256
 310.266 35 360.266 26 367.266 26 c 256
 370.266 26 368.266 15 367.266 8 c 256
 366.266 3 365.266 -1 364.266 -3 c 257
 327.266 -1 267.266 2 230.266 2 c 256
 193.266 2 162.266 -1 124.266 -3 c 257
 120.266 2 125.266 26 130.266 26 c 256
 141.266 26 192.266 35 197.266 46 c 256
 206.266 66 209.266 84 213.266 103 c 258
 278.266 439 l 258
 290.266 499 296.266 530 277.266 530 c 256
 270.266 530 232.266 515 214.266 506 c 257
EndSplineSet
Validated: 524321
PickledDataWithLists: "(dp1
S'com.fontlab.hintData'
p2
(dp3
S'vhints'
p4
(lp5
(dp6
S'position'
p7
I124
sS'width'
p8
I299
sasS'hhints'
p9
(lp10
(dp11
g7
I-3
sg8
I29
sa(dp12
g7
I622
sg8
I20
sass."
Substitution2: "pnumProportionalNumberslookup1 subtable" one.prop
EndChar

StartChar: two
Encoding: 17 50 17
GlifName: two
Width: 468
VWidth: 0
GlyphClass: 2
Flags: W
HStem: 0 92<163.188 334.188 334.188 361.188 163.188 382.188> 567 75<303.688 325.188>
VStem: 381 116
LayerCount: 2
Fore
SplineSet
497.188 501 m 256
 497.188 413 444.188 348 370.188 278 c 256
 282.188 195 161.188 92 163.188 92 c 257
 334.188 92 l 258
 388.188 92 413.188 125 429.188 162 c 256
 431.188 167 436.188 170 443.188 170 c 256
 449.188 170 458.188 166 460.188 164 c 257
 436.188 114 390.188 18 382.188 0 c 257
 382.188 0 57.1885 0 50.1885 0 c 257
 47.1885 1 43.1885 9 43.1885 18 c 257
 98.1885 68 226.188 202 284.188 270 c 256
 349.188 346 381.188 412 381.188 477 c 256
 381.188 531 351.188 567 299.188 567 c 256
 233.188 567 180.188 506 169.188 492 c 257
 161.188 492 152.188 504 152.188 510 c 257
 163.188 535 255.188 642 352.188 642 c 256
 425.188 642 497.188 589 497.188 501 c 256
EndSplineSet
Validated: 524321
PickledDataWithLists: "(dp1
S'com.fontlab.hintData'
p2
(dp3
S'vhints'
p4
(lp5
(dp6
S'position'
p7
I381
sS'width'
p8
I116
sasS'hhints'
p9
(lp10
(dp11
g7
I0
sg8
I92
sa(dp12
g7
I567
sg8
I75
sass."
Substitution2: "pnumProportionalNumberslookup1 subtable" two.prop
EndChar

StartChar: three
Encoding: 18 51 18
GlifName: three
Width: 468
VWidth: 0
GlyphClass: 2
Flags: W
HStem: -5 39<214.004 239.504> 316 32<208 208> 576 66<319.504 321.504>
VStem: 355 108 377 94
LayerCount: 2
Fore
SplineSet
357.504 642 m 256
 404.504 642 470.504 611 470.504 524 c 256
 470.504 448 395.504 396 350.504 376 c 257
 406.504 369 462.504 307 462.504 240 c 256
 462.504 86 289.504 -5 189.504 -5 c 256
 131.504 -5 92.5039 8 69.5039 24 c 257
 65.5039 29 60.5039 43 60.5039 54 c 256
 60.5039 96 88.5039 116 110.504 116 c 256
 144.504 116 150.504 86 162.504 68 c 256
 176.504 46 201.504 34 226.504 34 c 256
 283.504 34 354.504 105 354.504 218 c 256
 354.504 285 324.504 324 260.504 324 c 256
 243.504 324 220.504 319 208.504 316 c 257
 205.504 321 204.504 327 204.504 332 c 256
 204.504 336 206.504 345 208.504 348 c 257
 280.504 359 376.504 412 376.504 494 c 256
 376.504 552 342.504 576 300.504 576 c 256
 242.504 576 196.504 517 186.504 509 c 257
 179.504 509 173.504 523 174.504 532 c 257
 208.504 580 281.504 642 357.504 642 c 256
EndSplineSet
Validated: 8912897
PickledDataWithLists: "(dp1
S'com.fontlab.hintData'
p2
(dp3
S'vhints'
p4
(lp5
(dp6
S'position'
p7
I355
sS'width'
p8
I108
sa(dp9
g7
I377
sg8
I94
sasS'hhints'
p10
(lp11
(dp12
g7
I-5
sg8
I39
sa(dp13
g7
I316
sg8
I32
sa(dp14
g7
I576
sg8
I66
sass."
Substitution2: "pnumProportionalNumberslookup1 subtable" three.prop
EndChar

StartChar: four
Encoding: 19 52 19
GlifName: four
Width: 468
VWidth: 0
GlyphClass: 2
Flags: W
HStem: -6 21<317.566 346.566> 174 62<138.566 318.566 431.566 480.566> 623 20<486.066 494.066>
LayerCount: 2
Fore
SplineSet
489.566 643 m 256
 498.566 643 508.566 629 506.566 621 c 258
 431.566 236 l 257
 486.566 236 l 258
 492.566 236 494.566 222 492.566 208 c 256
 491.566 194 484.566 180 480.566 174 c 257
 419.566 174 l 257
 385.566 0 l 257
 385.566 0 364.566 -6 328.566 -6 c 256
 306.566 -6 284.566 -3 285.566 4 c 258
 318.566 174 l 257
 60.5664 174 l 257
 54.5664 178 52.5664 190 53.5664 196 c 257
 458.566 622 l 258
 466.566 631 482.566 643 489.566 643 c 256
380.566 494 m 257
 138.566 236 l 257
 330.566 236 l 257
 380.566 494 l 257
EndSplineSet
Validated: 524321
PickledDataWithLists: "(dp1
S'com.fontlab.hintData'
p2
(dp3
S'hhints'
p4
(lp5
(dp6
S'position'
p7
I-6
sS'width'
p8
I21
sa(dp9
g7
I174
sg8
I62
sa(dp10
g7
I623
sg8
I20
sass."
Substitution2: "pnumProportionalNumberslookup1 subtable" four.prop
EndChar

StartChar: five
Encoding: 20 53 20
GlifName: five
Width: 468
VWidth: 0
GlyphClass: 2
Flags: W
HStem: -5 39<215.639 241.639> 332 74<232.139 349.139> 540 92
VStem: 356 106
LayerCount: 2
Fore
SplineSet
462.139 247 m 256
 462.139 93 292.139 -5 191.139 -5 c 256
 133.139 -5 94.1387 8 71.1387 24 c 257
 67.1387 29 62.1387 43 62.1387 54 c 256
 62.1387 96 90.1387 116 112.139 116 c 256
 146.139 116 152.139 86 164.139 68 c 256
 178.139 46 203.139 34 228.139 34 c 256
 285.139 34 356.139 105 356.139 218 c 256
 356.139 273 330.139 332 242.139 332 c 256
 222.139 332 187.139 325 168.139 319 c 257
 165.139 321 158.139 328 154.139 333 c 257
 194.139 467 222.139 589 234.139 632 c 257
 312.139 633 436.139 635 478.139 645 c 257
 484.139 641 488.139 635 488.139 631 c 257
 488.139 613 458.139 564 448.139 550 c 257
 403.139 540 268.139 542 252.139 540 c 257
 248.139 530 224.139 434 210.139 384 c 257
 234.139 397 287.139 406 305.139 406 c 256
 393.139 406 462.139 336 462.139 247 c 256
EndSplineSet
Validated: 524289
PickledDataWithLists: "(dp1
S'com.fontlab.hintData'
p2
(dp3
S'vhints'
p4
(lp5
(dp6
S'position'
p7
I356
sS'width'
p8
I106
sasS'hhints'
p9
(lp10
(dp11
g7
I-5
sg8
I39
sa(dp12
g7
I332
sg8
I74
sa(dp13
g7
I540
sg8
I92
sass."
Substitution2: "pnumProportionalNumberslookup1 subtable" five.prop
EndChar

StartChar: six
Encoding: 21 54 21
GlifName: six
Width: 468
VWidth: 0
GlyphClass: 2
Flags: W
HStem: -6 34<225.906 274.406 225.906 295.906> 328 50<281.906 381.406> 618 24
VStem: 79 106 364 106
LayerCount: 2
Fore
SplineSet
342.906 378 m 256
 419.906 378 469.906 313 469.906 229 c 256
 469.906 106 354.906 -6 236.906 -6 c 256
 152.906 -6 78.9062 63 78.9062 176 c 256
 78.9062 261 116.906 369 204.906 466 c 256
 266.906 536 379.906 613 501.906 642 c 257
 507.906 640 508.906 624 507.906 618 c 257
 388.906 568 289.906 491 233.906 363 c 256
 195.906 279 184.906 208 184.906 146 c 256
 184.906 81 204.906 28 246.906 28 c 256
 301.906 28 363.906 128 363.906 226 c 256
 363.906 282 344.906 328 289.906 328 c 256
 273.906 328 262.906 323 254.906 319 c 257
 251.906 321 248.906 326 248.906 332 c 256
 248.906 344 306.906 378 342.906 378 c 256
EndSplineSet
Validated: 524289
PickledDataWithLists: "(dp1
S'com.fontlab.hintData'
p2
(dp3
S'vhints'
p4
(lp5
(dp6
S'position'
p7
I79
sS'width'
p8
I106
sa(dp9
g7
I364
sg8
I106
sasS'hhints'
p10
(lp11
(dp12
g7
I-6
sg8
I34
sa(dp13
g7
I328
sg8
I50
sa(dp14
g7
I618
sg8
I24
sass."
Substitution2: "pnumProportionalNumberslookup1 subtable" six.prop
EndChar

StartChar: seven
Encoding: 22 55 22
GlifName: seven
Width: 468
VWidth: 0
GlyphClass: 2
Flags: W
HStem: -8 21<140.339 147.339> 542 93<220.339 241.339 241.339 464.339>
LayerCount: 2
Fore
SplineSet
107.339 14 m 257
 198.339 127 403.339 446 464.339 542 c 257
 241.339 542 l 258
 199.339 542 173.339 496 155.339 461 c 256
 153.339 458 151.339 457 145.339 456 c 256
 137.339 455 128.339 460 124.339 463 c 257
 143.339 507 189.339 602 201.339 635 c 257
 478.339 635 l 258
 506.339 635 545.339 638 551.339 638 c 256
 557.339 638 556.339 631 555.339 626 c 256
 553.339 615 537.339 592 517.339 562 c 258
 157.339 -6 l 257
 154.339 -8 149.339 -8 145.339 -8 c 256
 135.339 -8 104.339 0 107.339 14 c 257
EndSplineSet
Validated: 524321
PickledDataWithLists: "(dp1
S'com.fontlab.hintData'
p2
(dp3
S'hhints'
p4
(lp5
(dp6
S'position'
p7
I-8
sS'width'
p8
I21
sa(dp9
g7
I542
sg8
I93
sass."
Substitution2: "pnumProportionalNumberslookup1 subtable" seven.prop
EndChar

StartChar: eight
Encoding: 23 56 23
GlifName: eight
Width: 468
VWidth: 0
GlyphClass: 2
Flags: W
HStem: -8 36<222.086 271.086 222.086 278.086> 608 34<327.586 371.586>
LayerCount: 2
Fore
SplineSet
358.586 642 m 256
 440.586 642 516.586 597 496.586 492 c 256
 482.586 422 415.586 376 362.586 350 c 257
 358.586 348 359.586 346 361.586 344 c 256
 415.586 301 467.586 234 453.586 164 c 256
 431.586 56 325.586 -8 230.586 -8 c 256
 128.586 -8 58.5859 64 77.5859 161 c 256
 94.5859 249 181.586 290 227.586 314 c 256
 230.586 316 231.586 319 229.586 320 c 256
 195.586 348 152.586 408 166.586 482 c 256
 183.586 567 266.586 642 358.586 642 c 256
347.586 608 m 256
 307.586 608 268.586 564 261.586 500 c 256
 255.586 440 296.586 400 328.586 374 c 256
 330.586 373 331.586 372 333.586 372 c 256
 335.586 372 336.586 372 338.586 374 c 256
 372.586 406 399.586 448 405.586 502 c 256
 411.586 548 395.586 608 347.586 608 c 256
244.586 28 m 256
 297.586 28 338.586 73 348.586 129 c 256
 363.586 215 271.586 282 261.586 290 c 256
 259.586 291 258.586 291 256.586 291 c 256
 255.586 291 254.586 291 253.586 290 c 256
 214.586 256 190.586 216 180.586 154 c 256
 166.586 74 199.586 28 244.586 28 c 256
EndSplineSet
Validated: 524321
PickledDataWithLists: "(dp1
S'com.fontlab.hintData'
p2
(dp3
S'hhints'
p4
(lp5
(dp6
S'position'
p7
I-8
sS'width'
p8
I36
sa(dp9
g7
I608
sg8
I34
sass."
Substitution2: "pnumProportionalNumberslookup1 subtable" eight.prop
EndChar

StartChar: nine
Encoding: 24 57 24
GlifName: nine
Width: 468
VWidth: 0
GlyphClass: 2
Flags: W
HStem: -6 24 260 50<209.857 309.357> 608 34<316.857 365.357>
VStem: 122 105 406 106
LayerCount: 2
Fore
SplineSet
248.357 260 m 256
 171.357 260 122.357 324 122.357 408 c 256
 122.357 531 236.357 642 354.357 642 c 256
 438.357 642 512.357 574 512.357 461 c 256
 512.357 376 475.357 268 387.357 171 c 256
 325.357 101 211.357 23 89.3574 -6 c 257
 83.3574 -4 82.3574 12 83.3574 18 c 257
 202.357 68 301.357 146 357.357 274 c 256
 395.357 358 406.357 428 406.357 490 c 256
 406.357 555 386.357 608 344.357 608 c 256
 289.357 608 227.357 508 227.357 410 c 256
 227.357 354 246.357 310 301.357 310 c 256
 317.357 310 329.357 314 337.357 318 c 257
 340.357 316 342.357 311 342.357 305 c 256
 342.357 293 284.357 260 248.357 260 c 256
EndSplineSet
Validated: 524289
PickledDataWithLists: "(dp1
S'com.fontlab.hintData'
p2
(dp3
S'vhints'
p4
(lp5
(dp6
S'position'
p7
I122
sS'width'
p8
I105
sa(dp9
g7
I406
sg8
I106
sasS'hhints'
p10
(lp11
(dp12
g7
I-6
sg8
I24
sa(dp13
g7
I260
sg8
I50
sa(dp14
g7
I608
sg8
I34
sass."
Substitution2: "pnumProportionalNumberslookup1 subtable" nine.prop
EndChar

StartChar: colon
Encoding: 25 58 25
GlifName: colon
Width: 240
VWidth: 0
GlyphClass: 2
Flags: W
HStem: -12 129<73 83> 312 129<136 146>
VStem: 18 120 81 120
LayerCount: 2
Fore
SplineSet
81 372 m 256
 85 410 119 441 153 441 c 257
 183 441 205 416 201 384 c 256
 197 346 163 312 129 312 c 257
 98 312 77 340 81 372 c 256
18 47 m 256
 22 85 56 117 90 117 c 257
 120 117 142 91 138 59 c 256
 134 21 100 -12 66 -12 c 257
 34 -12 14 15 18 47 c 256
EndSplineSet
Validated: 8388641
PickledDataWithLists: "(dp1
S'com.fontlab.hintData'
p2
(dp3
S'vhints'
p4
(lp5
(dp6
S'position'
p7
I18
sS'width'
p8
I120
sa(dp9
g7
I81
sg8
I120
sasS'hhints'
p10
(lp11
(dp12
g7
I-12
sg8
I129
sa(dp13
g7
I312
sg8
I129
sass."
EndChar

StartChar: semicolon
Encoding: 26 59 26
GlifName: semicolon
Width: 237
VWidth: 0
GlyphClass: 2
Flags: W
HStem: 312 129<139 149>
VStem: 26 106<79 86> 84 120
LayerCount: 2
Fore
SplineSet
-19 -112 m 257
 -10 -106 51 -54 51 -9 c 256
 51 20 26 23 26 62 c 256
 26 110 64 132 97 132 c 256
 107 132 126 125 130 119 c 257
 132 114 132 105 132 98 c 256
 132 60 122 12 101 -24 c 256
 73 -72 41 -101 -4 -131 c 257
 -10 -130 -19 -121 -19 -112 c 257
204 384 m 256
 200 346 166 312 132 312 c 257
 100 312 80 340 84 372 c 256
 88 410 122 441 156 441 c 257
 186 441 208 416 204 384 c 256
EndSplineSet
Validated: 8388641
PickledDataWithLists: "(dp1
S'com.fontlab.hintData'
p2
(dp3
S'vhints'
p4
(lp5
(dp6
S'position'
p7
I26
sS'width'
p8
I106
sa(dp9
g7
I84
sg8
I120
sasS'hhints'
p10
(lp11
(dp12
g7
I312
sg8
I129
sass."
EndChar

StartChar: less
Encoding: 27 60 27
GlifName: less
Width: 454
VWidth: 0
GlyphClass: 2
Flags: W
LayerCount: 2
Fore
SplineSet
94 209 m 257
 364 46 l 257
 364 46 365 44 365 40 c 256
 365 30 346 -14 340 -14 c 256
 339 -14 338 -14 336 -13 c 258
 24 177 l 258
 15 183 12 196 14 210 c 256
 15 222 22 234 36 241 c 258
 419 428 l 258
 421 429 422 430 423 430 c 256
 426 430 429 416 429 390 c 256
 429 382 426 370 424 369 c 257
 94 209 l 257
EndSplineSet
Validated: 33
EndChar

StartChar: equal
Encoding: 28 61 28
GlifName: equal
Width: 551
VWidth: 0
GlyphClass: 2
Flags: W
HStem: 140 54<46 464 61 450> 282 54<73 492 88 477>
LayerCount: 2
Fore
SplineSet
47 140 m 257
 45 140 42 142 42 148 c 256
 42 156 51 188 61 194 c 257
 464 194 l 258
 468 194 469 192 469 188 c 256
 469 179 464 160 454 144 c 257
 452 141 456 146 450 140 c 257
 47 140 l 257
74 282 m 257
 72 282 70 282 70 288 c 256
 70 295 78 330 88 336 c 257
 492 336 l 258
 496 336 496 332 496 328 c 256
 496 319 491 300 481 284 c 257
 479 281 483 288 477 282 c 257
 74 282 l 257
EndSplineSet
Validated: 1
PickledDataWithLists: "(dp1
S'com.fontlab.hintData'
p2
(dp3
S'hhints'
p4
(lp5
(dp6
S'position'
p7
I140
sS'width'
p8
I54
sa(dp9
g7
I282
sg8
I54
sass."
EndChar

StartChar: greater
Encoding: 29 62 29
GlifName: greater
Width: 455
VWidth: 0
GlyphClass: 2
Flags: W
LayerCount: 2
Fore
SplineSet
339 209 m 257
 70 369 l 257
 70 369 68 372 69 376 c 256
 76 398 91 430 95 430 c 256
 96 430 97 429 99 428 c 258
 408 241 l 258
 416 237 421 229 420 219 c 256
 418 209 415 187 396 177 c 258
 11 -13 l 258
 9 -14 7 -15 5 -15 c 256
 -1 -15 0 21 0 39 c 256
 0 44 5 46 5 46 c 257
 339 209 l 257
EndSplineSet
Validated: 33
EndChar

StartChar: question
Encoding: 30 63 30
GlifName: question
Width: 345
VWidth: 0
GlyphClass: 2
Flags: W
HStem: -12 127<93 103> 578 61<224.5 242.5 182 257>
VStem: 39 118 71 81<264 275 249.5 319> 288 62<512.5 535 477 544>
LayerCount: 2
Fore
SplineSet
39 46 m 256
 43 84 76 115 110 115 c 257
 140 115 161 90 157 58 c 256
 153 21 120 -12 86 -12 c 257
 55 -12 35 14 39 46 c 256
189 206 m 257
 189 201 182 191 177 188 c 257
 153 188 71 236 71 292 c 256
 71 346 110 371 136 389 c 256
 173 414 210 432 249 462 c 256
 269 477 288 497 288 528 c 256
 288 560 271 578 243 578 c 256
 206 578 191 529 157 529 c 256
 119 529 110 570 118 598 c 257
 126 613 161 639 203 639 c 256
 282 639 350 569 350 501 c 256
 350 453 338 416 284 378 c 256
 264 362 227 345 188 318 c 256
 165 302 152 286 152 264 c 256
 152 235 179 212 189 206 c 257
EndSplineSet
Validated: 8388641
PickledDataWithLists: "(dp1
S'com.fontlab.hintData'
p2
(dp3
S'vhints'
p4
(lp5
(dp6
S'position'
p7
I39
sS'width'
p8
I118
sa(dp9
g7
I71
sg8
I81
sa(dp10
g7
I288
sg8
I62
sasS'hhints'
p11
(lp12
(dp13
g7
I-12
sg8
I127
sa(dp14
g7
I578
sg8
I61
sass."
EndChar

StartChar: at
Encoding: 31 64 31
GlifName: at
Width: 760
VWidth: 0
GlyphClass: 2
Flags: W
HStem: -12 62<457.5 562> -6 73<240.5 344> 391 50<410 434> 538 41<363 519.5>
VStem: 29 48<103.5 261 103.5 262> 180 100<123.5 203> 672 54<223.5 360>
LayerCount: 2
Fore
SplineSet
504 118 m 258
 494 70 506 50 532 50 c 256
 592 50 672 163 672 284 c 256
 672 436 599 538 440 538 c 256
 286 538 77 381 77 141 c 256
 77 66 104 -13 168 -69 c 256
 184 -82 202 -92 210 -96 c 257
 204 -101 193 -104 177 -104 c 256
 161 -104 128 -85 110 -68 c 256
 60 -19 29 54 29 136 c 256
 29 388 244 579 452 579 c 256
 637 579 726 445 726 298 c 256
 726 84 555 -12 482 -12 c 256
 433 -12 406 18 406 58 c 256
 406 64 407 74 409 88 c 256
 411 102 413 104 414 110 c 257
 393 74 329 -6 270 -6 c 257
 211 -6 180 53 180 122 c 257
 180 284 344 441 476 441 c 256
 512 441 546 433 566 426 c 257
 504 118 l 258
427 391 m 257
 355 391 280 267 280 151 c 256
 280 96 295 67 323 67 c 257
 365 67 425 179 445 277 c 258
 465 378 l 257
 457 387 441 391 427 391 c 257
EndSplineSet
Validated: 8388641
PickledDataWithLists: "(dp1
S'com.fontlab.hintData'
p2
(dp3
S'vhints'
p4
(lp5
(dp6
S'position'
p7
I29
sS'width'
p8
I48
sa(dp9
g7
I180
sg8
I100
sa(dp10
g7
I672
sg8
I54
sasS'hhints'
p11
(lp12
(dp13
g7
I-12
sg8
I62
sa(dp14
g7
I-6
sg8
I73
sa(dp15
g7
I391
sg8
I50
sa(dp16
g7
I538
sg8
I41
sass."
EndChar

StartChar: A
Encoding: 32 65 32
GlifName: A_
Width: 601
VWidth: 0
GlyphClass: 2
Flags: W
HStem: -4 34 238 45<266.5 282.5 271 291.5 266.5 362> 642 20<384.5 392>
LayerCount: 2
Fore
SplineSet
63 136 m 258
 348 629 l 258
 356 643 380 662 389 662 c 256
 395 662 398 660 400 658 c 257
 490 137 l 257
 496 103 499 80 501 68 c 256
 507 36 555 30 562 30 c 257
 565 22 560 0 557 -4 c 257
 520 -2 486 3 445 3 c 256
 402 3 358 -2 320 -4 c 257
 316 1 321 28 327 30 c 257
 341 30 371 35 383 45 c 256
 388 49 391 54 392 60 c 256
 396 80 367 234 367 234 c 257
 367 234 365 238 362 238 c 256
 332 240 294 238 271 238 c 256
 233 238 211 238 173 236 c 256
 171 236 166 233 166 232 c 257
 166 232 128 168 108 130 c 256
 92 100 80 70 78 60 c 256
 73 35 132 30 139 30 c 257
 142 25 138 1 134 -4 c 257
 100 -1 81 3 40 3 c 256
 -3 3 -22 -1 -60 -4 c 257
 -62 0 -60 19 -55 28 c 257
 -44 28 -3 40 9 54 c 256
 31 81 45 104 63 136 c 258
321 506 m 257
 197 290 l 257
 197 290 197 286 199 286 c 256
 220 284 256 283 277 283 c 256
 306 283 325 284 354 286 c 256
 356 286 358 291 358 291 c 257
 321 506 l 257
EndSplineSet
Validated: 33
PickledDataWithLists: "(dp1
S'com.fontlab.hintData'
p2
(dp3
S'hhints'
p4
(lp5
(dp6
S'position'
p7
I-4
sS'width'
p8
I34
sa(dp9
g7
I238
sg8
I45
sa(dp10
g7
I642
sg8
I20
sass."
EndChar

StartChar: B
Encoding: 33 66 33
GlifName: B_
Width: 578
VWidth: 0
GlyphClass: 2
Flags: W
HStem: -3 38<-7 276> 333 38<232 311 240 284> 622 38<353 372>
LayerCount: 2
Fore
SplineSet
240 371 m 257
 311 371 l 258
 367 371 410 421 423 487 c 256
 441 579 405 622 339 622 c 256
 323 622 296 621 290 611 c 256
 283 599 279 573 273 543 c 258
 240 371 l 257
232 333 m 257
 189 114 l 258
 187 104 180 60 185 50 c 256
 193 36 219 35 248 35 c 256
 304 35 376 64 398 176 c 256
 413 251 400 333 284 333 c 258
 232 333 l 257
380 660 m 256
 466 660 560 621 538 506 c 256
 522 428 445 380 414 368 c 256
 409 366 408 363 410 362 c 257
 455 358 541 298 521 196 c 256
 509 134 461 72 405 38 c 256
 347 2 278 -3 208 -3 c 256
 188 -3 11 -3 -7 -3 c 257
 -10 3 -5 24 -0 30 c 257
 12 30 59 34 65 46 c 256
 75 64 80 94 87 130 c 258
 164 528 l 258
 171 564 178 594 175 612 c 256
 173 624 128 628 116 628 c 257
 113 634 116 655 122 661 c 257
 162 659 205 657 243 657 c 256
 281 657 326 660 380 660 c 256
EndSplineSet
Validated: 33
PickledDataWithLists: "(dp1
S'com.fontlab.hintData'
p2
(dp3
S'hhints'
p4
(lp5
(dp6
S'position'
p7
I-3
sS'width'
p8
I38
sa(dp9
g7
I333
sg8
I38
sa(dp10
g7
I622
sg8
I38
sass."
EndChar

StartChar: C
Encoding: 34 67 34
GlifName: C_
Width: 645
VWidth: 0
GlyphClass: 2
Flags: W
HStem: -8 40<291 376> 628 39
VStem: 55 120<222 382 222 395.5> 588 32
LayerCount: 2
Fore
SplineSet
439 628 m 256
 295 628 175 489 175 275 c 256
 175 169 221 32 361 32 c 256
 413 32 458 52 490 79 c 256
 530 112 562 169 571 188 c 257
 585 188 597 182 600 178 c 257
 597 162 544 44 530 34 c 257
 475 4 419 -8 333 -8 c 256
 155 -8 55 129 55 270 c 256
 55 521 262 669 454 667 c 256
 513 666 581 651 632 639 c 257
 631 615 622 515 620 494 c 256
 619 487 611 483 604 483 c 257
 600 483 592 483 588 489 c 257
 590 549 540 628 439 628 c 256
EndSplineSet
Validated: 33
PickledDataWithLists: "(dp1
S'com.fontlab.hintData'
p2
(dp3
S'vhints'
p4
(lp5
(dp6
S'position'
p7
I55
sS'width'
p8
I120
sa(dp9
g7
I588
sg8
I32
sasS'hhints'
p10
(lp11
(dp12
g7
I-8
sg8
I40
sa(dp13
g7
I628
sg8
I39
sass."
EndChar

StartChar: D
Encoding: 35 68 35
GlifName: D_
Width: 701
VWidth: 0
GlyphClass: 2
Flags: W
HStem: -3 38<233.5 244> 622 37<358 422>
LayerCount: 2
Fore
SplineSet
273 543 m 258
 193 130 l 258
 191 120 181 67 185 54 c 256
 189 42 219 35 248 35 c 256
 396 35 505 119 543 314 c 256
 584 525 495 622 349 622 c 256
 333 622 297 620 291 610 c 256
 283 596 279 572 273 543 c 258
382 659 m 256
 597 659 703 521 665 326 c 256
 626 124 480 -3 244 -3 c 257
 224 -3 11 -3 -7 -3 c 257
 -10 3 -5 24 -0 30 c 257
 12 30 59 34 65 46 c 256
 75 64 80 94 87 130 c 258
 164 528 l 258
 171 564 178 594 175 612 c 256
 173 624 128 628 116 628 c 257
 113 634 116 655 122 661 c 257
 162 659 205 657 243 657 c 256
 281 657 334 659 382 659 c 256
EndSplineSet
Validated: 33
PickledDataWithLists: "(dp1
S'com.fontlab.hintData'
p2
(dp3
S'hhints'
p4
(lp5
(dp6
S'position'
p7
I-3
sS'width'
p8
I38
sa(dp9
g7
I622
sg8
I37
sass."
EndChar

StartChar: E
Encoding: 36 69 36
GlifName: E_
Width: 565
VWidth: 0
GlyphClass: 2
Flags: W
HStem: -1 41 -1 31 311 42<283 313.5> 620 44 620 36 628 33
VStem: 396 29<236 240> 513 33<522 524>
LayerCount: 2
Fore
SplineSet
244 656 m 256
 307 656 468 664 546 664 c 257
 543 614 546 567 546 522 c 257
 543 519 532 517 525 517 c 256
 518 517 513 519 513 524 c 256
 506 592 480 620 427 620 c 258
 348 620 l 257
 332 620 297 619 291 609 c 256
 283 595 280 571 274 543 c 258
 238 362 l 258
 237 356 257 353 277 353 c 258
 326 353 l 258
 398 353 404 362 432 424 c 256
 434 429 439 432 446 432 c 256
 453 432 459 429 461 426 c 257
 425 236 l 257
 423 234 415 232 408 232 c 256
 401 232 396 235 396 240 c 256
 394 292 387 299 379 304 c 256
 369 310 331 311 296 311 c 256
 270 311 228 310 226 300 c 258
 193 128 l 258
 191 118 181 66 185 54 c 256
 191 42 213 40 245 40 c 257
 298 40 l 258
 333 40 378 49 406 68 c 256
 428 84 454 117 479 166 c 256
 481 170 487 172 494 172 c 256
 503 172 516 169 518 166 c 257
 490 112 450 41 435 -3 c 257
 372 -3 239 -1 114 -1 c 256
 60 -1 18 -3 -6 -3 c 257
 -9 3 -6 24 0 30 c 257
 12 30 60 34 66 46 c 256
 76 64 81 94 88 130 c 258
 165 528 l 258
 172 564 178 594 175 612 c 256
 173 624 128 628 116 628 c 257
 113 634 117 655 123 661 c 257
 163 659 206 656 244 656 c 256
EndSplineSet
Validated: 8388641
PickledDataWithLists: "(dp1
S'com.fontlab.hintData'
p2
(dp3
S'vhints'
p4
(lp5
(dp6
S'position'
p7
I396
sS'width'
p8
I29
sa(dp9
g7
I513
sg8
I33
sasS'hhints'
p10
(lp11
(dp12
g7
I-1
sg8
I41
sa(dp13
g7
I-1
sg8
I31
sa(dp14
g7
I311
sg8
I42
sa(dp15
g7
I620
sg8
I44
sa(dp16
g7
I620
sg8
I36
sa(dp17
g7
I628
sg8
I33
sass."
EndChar

StartChar: F
Encoding: 37 70 37
GlifName: F_
Width: 517
VWidth: 0
GlyphClass: 2
Flags: W
HStem: -4 33 309 42<282 312.5> 620 44 620 36 628 33
VStem: 395 29<234 238> 512 33<522 524>
LayerCount: 2
Fore
SplineSet
243 656 m 256
 306 656 467 664 545 664 c 257
 542 614 545 567 545 522 c 257
 542 519 531 517 524 517 c 256
 517 517 512 519 512 524 c 256
 505 592 479 620 426 620 c 258
 348 620 l 257
 332 620 296 619 290 609 c 256
 282 595 279 571 273 543 c 258
 237 360 l 258
 236 354 256 351 276 351 c 258
 325 351 l 258
 397 351 403 360 431 422 c 256
 433 427 438 430 445 430 c 256
 452 430 458 427 460 424 c 257
 424 234 l 257
 422 232 414 230 407 230 c 256
 400 230 395 233 395 238 c 256
 393 290 386 297 378 302 c 256
 368 308 330 309 295 309 c 256
 269 309 227 308 225 298 c 258
 193 130 l 258
 186 94 180 64 183 46 c 256
 185 34 238 29 250 29 c 257
 253 23 249 2 243 -4 c 257
 207 -1 153 2 115 2 c 256
 74 2 30 -2 -7 -4 c 257
 -10 2 -5 23 -0 29 c 257
 12 29 59 34 65 46 c 256
 75 64 80 94 87 130 c 258
 165 528 l 258
 172 564 178 594 175 612 c 256
 173 624 128 628 116 628 c 257
 113 634 117 655 123 661 c 257
 163 659 205 656 243 656 c 256
EndSplineSet
Validated: 8388641
PickledDataWithLists: "(dp1
S'com.fontlab.hintData'
p2
(dp3
S'vhints'
p4
(lp5
(dp6
S'position'
p7
I395
sS'width'
p8
I29
sa(dp9
g7
I512
sg8
I33
sasS'hhints'
p10
(lp11
(dp12
g7
I-4
sg8
I33
sa(dp13
g7
I309
sg8
I42
sa(dp14
g7
I620
sg8
I44
sa(dp15
g7
I620
sg8
I36
sa(dp16
g7
I628
sg8
I33
sass."
EndChar

StartChar: G
Encoding: 38 71 38
GlifName: G_
Width: 682
VWidth: 0
GlyphClass: 2
Flags: W
HStem: -8 40<290 378.5 290 382> 270 33 628 39
VStem: 55 120<222 382 222 395.5> 484 81 588 32
LayerCount: 2
Fore
SplineSet
454 667 m 256
 513 666 581 651 632 639 c 257
 631 615 622 515 620 494 c 256
 619 487 611 483 604 483 c 257
 600 483 592 483 588 489 c 257
 590 549 549 628 449 628 c 256
 305 628 175 489 175 275 c 256
 175 169 222 32 358 32 c 256
 399 32 426 42 444 54 c 256
 449 57 452 62 454 70 c 256
 458 91 472 162 476 186 c 257
 481 211 486 229 484 248 c 256
 482 266 431 270 420 270 c 257
 416 272 420 298 426 303 c 257
 468 301 513 297 555 297 c 256
 593 297 626 301 664 303 c 257
 666 294 661 272 657 270 c 257
 648 270 610 264 602 255 c 256
 595 245 587 220 582 196 c 257
 578 178 568 118 564 101 c 257
 561 86 565 76 565 68 c 256
 564 59 552 49 536 41 c 256
 488 17 434 -8 330 -8 c 256
 156 -8 55 129 55 270 c 256
 55 521 262 669 454 667 c 256
EndSplineSet
Validated: 33
PickledDataWithLists: "(dp1
S'com.fontlab.hintData'
p2
(dp3
S'vhints'
p4
(lp5
(dp6
S'position'
p7
I55
sS'width'
p8
I120
sa(dp9
g7
I484
sg8
I81
sa(dp10
g7
I588
sg8
I32
sasS'hhints'
p11
(lp12
(dp13
g7
I-8
sg8
I40
sa(dp14
g7
I270
sg8
I33
sa(dp15
g7
I628
sg8
I39
sass."
EndChar

StartChar: H
Encoding: 39 72 39
GlifName: H_
Width: 696
VWidth: 0
GlyphClass: 2
Flags: W
HStem: -4 33 320 45 629 33
LayerCount: 2
Fore
SplineSet
243 656 m 256
 280 656 326 659 364 662 c 257
 368 656 364 635 358 629 c 257
 346 629 299 624 293 612 c 256
 283 594 277 564 270 528 c 258
 239 368 l 257
 239 366 240 365 240 365 c 257
 280 364 322 362 369 362 c 256
 408 362 457 364 495 365 c 257
 495 365 498 367 498 369 c 257
 528 528 l 258
 535 564 541 594 538 612 c 256
 536 624 492 629 480 629 c 257
 477 635 480 656 486 662 c 257
 523 659 569 656 607 656 c 256
 645 656 690 659 728 662 c 257
 732 656 727 635 721 629 c 257
 709 629 662 624 656 612 c 256
 646 594 641 564 634 528 c 258
 557 130 l 258
 550 94 543 64 546 46 c 256
 548 34 593 29 605 29 c 257
 608 23 604 2 598 -4 c 257
 562 -1 516 2 478 2 c 256
 440 2 395 -1 357 -4 c 257
 353 2 357 23 363 29 c 257
 375 29 423 34 429 46 c 256
 439 64 444 94 451 130 c 258
 487 314 l 257
 487 316 486 318 486 318 c 257
 447 319 403 320 361 320 c 256
 245 320 234 318 230 316 c 257
 229 315 228 313 228 313 c 257
 193 130 l 258
 186 94 180 64 183 46 c 256
 185 34 229 29 241 29 c 257
 244 23 241 2 235 -4 c 257
 199 -1 153 2 115 2 c 256
 78 2 31 -1 -7 -4 c 257
 -10 2 -5 23 -0 29 c 257
 12 29 59 34 65 46 c 256
 75 64 80 94 87 130 c 258
 165 528 l 258
 172 564 178 594 175 612 c 256
 173 624 128 629 116 629 c 257
 113 635 117 656 123 662 c 257
 160 659 205 656 243 656 c 256
EndSplineSet
Validated: 33
PickledDataWithLists: "(dp1
S'com.fontlab.hintData'
p2
(dp3
S'hhints'
p4
(lp5
(dp6
S'position'
p7
I-4
sS'width'
p8
I33
sa(dp9
g7
I320
sg8
I45
sa(dp10
g7
I629
sg8
I33
sass."
EndChar

StartChar: I
Encoding: 40 73 40
GlifName: I_
Width: 333
VWidth: 0
GlyphClass: 2
Flags: W
HStem: -4 33 629 33
LayerCount: 2
Fore
SplineSet
243 656 m 256
 280 656 326 659 364 662 c 257
 368 656 364 635 358 629 c 257
 346 629 299 624 293 612 c 256
 283 594 277 564 270 528 c 258
 193 130 l 258
 186 94 180 64 183 46 c 256
 185 34 229 29 241 29 c 257
 244 23 241 2 235 -4 c 257
 199 -1 153 2 115 2 c 256
 78 2 31 -1 -7 -4 c 257
 -10 2 -5 23 -0 29 c 257
 12 29 59 34 65 46 c 256
 75 64 80 94 87 130 c 258
 165 528 l 258
 172 564 178 594 175 612 c 256
 173 624 128 629 116 629 c 257
 113 635 117 656 123 662 c 257
 160 659 205 656 243 656 c 256
EndSplineSet
Validated: 33
PickledDataWithLists: "(dp1
S'com.fontlab.hintData'
p2
(dp3
S'hhints'
p4
(lp5
(dp6
S'position'
p7
I-4
sS'width'
p8
I33
sa(dp9
g7
I629
sg8
I33
sass."
EndChar

StartChar: J
Encoding: 41 74 41
GlifName: J_
Width: 317
VWidth: 0
GlyphClass: 2
Flags: W
HStem: -226 22 628 32
LayerCount: 2
Fore
SplineSet
234 654 m 256
 274 654 314 657 352 660 c 257
 354 657 352 635 347 628 c 257
 337 628 292 620 286 608 c 256
 274 584 266 550 260 514 c 258
 187 130 l 258
 140 -116 -32 -217 -102 -226 c 257
 -106 -223 -109 -215 -109 -210 c 256
 -109 -208 -108 -204 -108 -204 c 257
 0 -158 48 -57 82 122 c 258
 156 512 l 258
 163 551 168 578 166 606 c 256
 165 621 119 628 107 628 c 257
 105 632 110 655 114 660 c 257
 152 657 193 654 234 654 c 256
EndSplineSet
Validated: 33
PickledDataWithLists: "(dp1
S'com.fontlab.hintData'
p2
(dp3
S'hhints'
p4
(lp5
(dp6
S'position'
p7
I-226
sS'width'
p8
I22
sa(dp9
g7
I628
sg8
I32
sass."
EndChar

StartChar: K
Encoding: 42 75 42
GlifName: K_
Width: 650
VWidth: 0
GlyphClass: 2
Flags: W
HStem: -4 33 629 33
LayerCount: 2
Fore
SplineSet
501 106 m 256
 549 37 588 30 616 28 c 257
 620 22 612 0 611 -2 c 257
 567 -3 541 -3 513 1 c 256
 457 3 425 22 391 72 c 256
 372 100 302 209 244 303 c 256
 242 306 239 306 236 306 c 256
 232 306 228 304 226 302 c 257
 193 130 l 258
 186 94 180 64 183 46 c 256
 185 34 229 29 241 29 c 257
 244 23 241 2 235 -4 c 257
 199 -1 153 2 115 2 c 256
 78 2 31 -1 -7 -4 c 257
 -10 2 -5 23 -0 29 c 257
 12 29 59 34 65 46 c 256
 75 64 80 94 87 130 c 258
 164 528 l 258
 171 564 178 594 175 612 c 256
 173 624 128 629 116 629 c 257
 113 635 117 656 123 662 c 257
 160 659 205 656 243 656 c 256
 280 656 326 659 364 662 c 257
 368 656 364 635 358 629 c 257
 346 629 298 624 292 612 c 256
 282 594 277 564 270 528 c 258
 233 338 l 257
 268 362 316 402 352 434 c 256
 430 503 446 515 499 573 c 256
 509 583 515 597 517 605 c 256
 521 628 479 629 469 629 c 257
 467 636 470 653 475 662 c 257
 509 660 553 656 587 656 c 256
 628 656 660 659 696 662 c 257
 697 656 694 633 688 630 c 257
 679 629 621 625 582 589 c 257
 533 542 432 453 341 371 c 256
 334 365 334 360 337 355 c 256
 398 256 446 182 501 106 c 256
EndSplineSet
Validated: 33
PickledDataWithLists: "(dp1
S'com.fontlab.hintData'
p2
(dp3
S'hhints'
p4
(lp5
(dp6
S'position'
p7
I-4
sS'width'
p8
I33
sa(dp9
g7
I629
sg8
I33
sass."
EndChar

StartChar: L
Encoding: 43 76 43
GlifName: L_
Width: 538
VWidth: 0
GlyphClass: 2
Flags: W
HStem: -1 40 -1 31 629 33
LayerCount: 2
Fore
SplineSet
192 130 m 258
 190 120 180 66 184 54 c 256
 190 42 212 39 244 39 c 257
 302 39 l 258
 337 39 377 47 405 68 c 256
 431 87 453 117 478 166 c 256
 480 170 486 172 493 172 c 256
 502 172 515 169 517 166 c 257
 489 112 449 41 434 -3 c 257
 370 -3 240 -1 115 -1 c 256
 60 -1 18 -3 -7 -3 c 257
 -10 3 -5 24 -0 30 c 257
 12 30 59 34 65 46 c 256
 75 64 80 94 87 130 c 258
 164 528 l 258
 171 564 178 594 175 612 c 256
 173 624 128 629 116 629 c 257
 113 635 116 656 122 662 c 257
 159 659 205 656 243 656 c 256
 281 656 326 659 364 662 c 257
 368 656 363 635 357 629 c 257
 345 629 298 624 292 612 c 256
 282 594 277 564 270 528 c 258
 192 130 l 258
EndSplineSet
Validated: 8388641
PickledDataWithLists: "(dp1
S'com.fontlab.hintData'
p2
(dp3
S'hhints'
p4
(lp5
(dp6
S'position'
p7
I-1
sS'width'
p8
I40
sa(dp9
g7
I-1
sg8
I31
sa(dp10
g7
I629
sg8
I33
sass."
EndChar

StartChar: M
Encoding: 44 77 44
GlifName: M_
Width: 855
VWidth: 0
GlyphClass: 2
Flags: W
HStem: -4 34 629 33
LayerCount: 2
Fore
SplineSet
235 656 m 256
 267 656 292 660 322 662 c 257
 332 598 384 366 418 192 c 257
 418 191 420 190 421 190 c 256
 422 190 425 193 426 195 c 258
 426 195 588 484 620 544 c 257
 644 588 678 660 678 660 c 257
 696 658 746 656 764 656 c 256
 796 656 841 660 872 662 c 257
 874 658 872 632 869 628 c 257
 859 628 818 622 809 614 c 257
 801 606 795 594 792 574 c 257
 786 539 730 210 720 146 c 257
 714 107 709 72 713 47 c 256
 715 33 764 30 771 30 c 257
 773 21 771 2 767 -4 c 257
 730 -2 691 3 650 3 c 256
 607 3 562 -2 519 -4 c 257
 517 -1 521 22 525 30 c 257
 536 30 579 34 591 44 c 256
 597 50 604 71 606 83 c 256
 608 95 613 126 616 142 c 258
 681 531 l 258
 682 535 685 554 678 554 c 256
 676 554 675 552 672 547 c 258
 394 44 l 258
 389 35 362 -1 348 -2 c 256
 345 -2 343 -1 340 0 c 257
 230 554 l 257
 184 341 150 188 131 104 c 256
 128 88 125 62 125 54 c 256
 127 36 190 30 197 30 c 257
 199 24 196 2 192 -4 c 257
 155 -2 128 3 87 3 c 256
 44 3 16 -2 -27 -4 c 257
 -29 0 -26 19 -21 28 c 257
 -10 28 48 36 61 56 c 256
 69 68 82 107 86 125 c 256
 128 303 181 544 188 576 c 256
 190 586 192 599 190 608 c 257
 187 620 145 629 131 629 c 257
 128 633 136 660 138 662 c 257
 180 660 192 656 235 656 c 256
EndSplineSet
Validated: 33
PickledDataWithLists: "(dp1
S'com.fontlab.hintData'
p2
(dp3
S'hhints'
p4
(lp5
(dp6
S'position'
p7
I-4
sS'width'
p8
I34
sa(dp9
g7
I629
sg8
I33
sass."
EndChar

StartChar: N
Encoding: 45 78 45
GlifName: N_
Width: 724
VWidth: 0
GlyphClass: 2
Flags: W
HStem: -5 21<537 542.5> -4 33 630 33
LayerCount: 2
Fore
SplineSet
217 658 m 256
 247 658 282 660 304 662 c 257
 330 583 468 361 547 207 c 257
 549 211 552 232 554 239 c 257
 607 510 l 257
 614 547 622 593 617 609 c 256
 613 623 561 630 548 630 c 257
 546 634 549 655 553 663 c 257
 593 661 620 656 662 656 c 256
 704 656 733 661 773 663 c 257
 775 657 773 640 765 630 c 257
 756 630 696 624 686 608 c 256
 677 594 665 549 658 512 c 258
 586 139 l 258
 575 81 570 51 562 -1 c 257
 559 -4 544 -5 541 -5 c 256
 533 -5 523 4 516 18 c 258
 226 544 l 257
 147 136 l 258
 140 100 136 68 140 53 c 256
 144 39 199 30 210 30 c 257
 214 22 208 2 205 -4 c 257
 168 -2 135 3 94 3 c 256
 51 3 28 -2 -15 -4 c 257
 -17 3 -12 23 -8 29 c 257
 3 29 59 37 69 52 c 256
 79 67 89 99 96 137 c 257
 108 203 160 466 173 531 c 257
 182 577 181 593 175 610 c 256
 170 622 123 630 112 630 c 257
 108 636 112 658 117 663 c 257
 152 661 180 658 217 658 c 256
EndSplineSet
Validated: 8388641
PickledDataWithLists: "(dp1
S'com.fontlab.hintData'
p2
(dp3
S'hhints'
p4
(lp5
(dp6
S'position'
p7
I-5
sS'width'
p8
I21
sa(dp9
g7
I-4
sg8
I33
sa(dp10
g7
I630
sg8
I33
sass."
EndChar

StartChar: O
Encoding: 46 79 46
GlifName: O_
Width: 707
VWidth: 0
GlyphClass: 2
Flags: W
HStem: -10 40<269 396.5> 626 40<338 462>
VStem: 55 119<198.5 350 198.5 389> 556 119<316 455>
LayerCount: 2
Fore
SplineSet
404 626 m 257
 272 626 174 444 174 256 c 256
 174 141 211 30 327 30 c 257
 471 30 556 230 556 402 c 256
 556 508 520 626 404 626 c 257
420 666 m 256
 581 666 675 530 675 386 c 256
 675 141 486 -10 307 -10 c 256
 156 -10 55 117 55 269 c 256
 55 509 246 666 420 666 c 256
EndSplineSet
Validated: 1
PickledDataWithLists: "(dp1
S'com.fontlab.hintData'
p2
(dp3
S'vhints'
p4
(lp5
(dp6
S'position'
p7
I55
sS'width'
p8
I119
sa(dp9
g7
I556
sg8
I119
sasS'hhints'
p10
(lp11
(dp12
g7
I-10
sg8
I40
sa(dp13
g7
I626
sg8
I40
sass."
EndChar

StartChar: P
Encoding: 47 80 47
GlifName: P_
Width: 533
VWidth: 0
GlyphClass: 2
Flags: W
HStem: -4 33 282 36<298.5 324 287 366> 622 38<355.5 380>
LayerCount: 2
Fore
SplineSet
549 490 m 256
 537 362 420 282 312 282 c 256
 285 282 269 290 264 296 c 256
 261 299 257 309 257 314 c 256
 257 318 260 322 262 322 c 257
 272 319 280 318 294 318 c 256
 354 318 427 388 433 472 c 256
 441 544 421 622 339 622 c 256
 323 622 297 621 291 611 c 256
 284 599 279 573 273 543 c 258
 193 130 l 258
 186 94 180 64 183 46 c 256
 185 34 229 29 241 29 c 257
 244 23 241 2 235 -4 c 257
 199 -1 153 2 115 2 c 256
 78 2 31 -1 -7 -4 c 257
 -10 2 -5 23 -0 29 c 257
 12 29 59 34 65 46 c 256
 75 64 80 94 87 130 c 258
 165 528 l 258
 172 564 178 594 175 612 c 256
 173 624 128 628 116 628 c 257
 113 634 117 655 123 661 c 257
 163 659 206 657 244 657 c 256
 281 657 328 660 383 660 c 256
 483 660 559 584 549 490 c 256
EndSplineSet
Validated: 33
PickledDataWithLists: "(dp1
S'com.fontlab.hintData'
p2
(dp3
S'hhints'
p4
(lp5
(dp6
S'position'
p7
I-4
sS'width'
p8
I33
sa(dp9
g7
I282
sg8
I36
sa(dp10
g7
I622
sg8
I38
sass."
EndChar

StartChar: Q
Encoding: 48 81 48
GlifName: Q_
Width: 701
VWidth: 0
GlyphClass: 2
Flags: W
HStem: -138 61<460.5 612> 627 40<343 462.5>
LayerCount: 2
Fore
SplineSet
425 667 m 256
 589 667 691 524 671 360 c 256
 656 176 525 51 395 7 c 257
 475 -39 501 -77 597 -77 c 256
 627 -77 649 -72 656 -70 c 257
 663 -70 671 -74 673 -80 c 257
 639 -100 569 -138 512 -138 c 256
 409 -138 345 -45 228 -4 c 256
 109 38 38 150 54 294 c 256
 72 512 261 667 425 667 c 256
404 627 m 256
 265 627 187 447 174 297 c 256
 159 162 201 30 321 30 c 256
 459 30 539 210 552 360 c 256
 567 495 521 627 404 627 c 256
EndSplineSet
Validated: 33
PickledDataWithLists: "(dp1
S'com.fontlab.hintData'
p2
(dp3
S'hhints'
p4
(lp5
(dp6
S'position'
p7
I-138
sS'width'
p8
I61
sa(dp9
g7
I627
sg8
I40
sass."
EndChar

StartChar: R
Encoding: 49 82 49
GlifName: R_
Width: 613
VWidth: 0
GlyphClass: 2
Flags: W
HStem: -4 33 300 35<233 257 226 279> 622 38<355.5 385>
LayerCount: 2
Fore
SplineSet
245 657 m 256
 282 657 328 660 383 660 c 256
 483 660 564 591 541 472 c 256
 525 392 433 337 379 320 c 257
 419 227 437 186 481 108 c 256
 519 46 566 29 598 27 c 257
 602 21 595 -2 594 -4 c 257
 550 -5 532 -4 504 0 c 256
 422 2 391 44 375 76 c 256
 370 86 297 238 277 287 c 256
 275 291 267 300 257 300 c 257
 226 300 l 257
 193 130 l 258
 186 94 180 64 183 46 c 256
 185 34 229 29 241 29 c 257
 244 23 241 2 235 -4 c 257
 199 -1 153 2 115 2 c 256
 78 2 31 -1 -7 -4 c 257
 -10 2 -5 23 -0 29 c 257
 12 29 59 34 65 46 c 256
 75 64 80 94 87 130 c 258
 165 528 l 258
 172 564 178 594 175 612 c 256
 173 624 128 628 116 628 c 257
 113 634 117 655 123 661 c 257
 163 659 207 657 245 657 c 256
233 335 m 257
 279 335 l 257
 345 335 408 379 426 455 c 256
 444 535 430 622 340 622 c 256
 324 622 297 621 291 611 c 256
 284 599 279 573 273 543 c 258
 233 335 l 257
EndSplineSet
Validated: 33
PickledDataWithLists: "(dp1
S'com.fontlab.hintData'
p2
(dp3
S'hhints'
p4
(lp5
(dp6
S'position'
p7
I-4
sS'width'
p8
I33
sa(dp9
g7
I300
sg8
I35
sa(dp10
g7
I622
sg8
I38
sass."
EndChar

StartChar: S
Encoding: 50 83 50
GlifName: S_
Width: 486
VWidth: 0
GlyphClass: 2
Flags: W
HStem: -10 40<163.5 226 153.5 243.5> 630 38<282.5 349 274 351>
VStem: 33 38
LayerCount: 2
Fore
SplineSet
321 668 m 256
 377 668 416 654 468 642 c 257
 462 598 452 531 444 487 c 257
 441 482 436 480 432 480 c 256
 428 480 411 480 409 488 c 257
 413 556 390 630 312 630 c 256
 253 630 211 589 205 530 c 256
 199 458 264 414 315 372 c 256
 368 329 438 290 426 184 c 256
 416 67 294 -10 193 -10 c 256
 134 -10 79 9 33 25 c 257
 26 74 30 165 33 185 c 257
 37 190 54 195 60 195 c 256
 66 195 70 193 71 188 c 257
 70 139 107 30 200 30 c 256
 252 30 309 63 316 138 c 256
 323 210 261 253 216 290 c 256
 157 339 90 379 100 482 c 256
 110 591 227 668 321 668 c 256
EndSplineSet
Validated: 33
PickledDataWithLists: "(dp1
S'com.fontlab.hintData'
p2
(dp3
S'vhints'
p4
(lp5
(dp6
S'position'
p7
I33
sS'width'
p8
I38
sasS'hhints'
p9
(lp10
(dp11
g7
I-10
sg8
I40
sa(dp12
g7
I630
sg8
I38
sass."
EndChar

StartChar: T
Encoding: 51 84 51
GlifName: T_
Width: 589
VWidth: 0
GlyphClass: 2
Flags: W
HStem: -4 33 618 40<202 207 207 310 416 518 416 416>
VStem: 588 34<494 511>
LayerCount: 2
Fore
SplineSet
366 658 m 257
 538 658 l 257
 579 658 604 673 618 676 c 256
 626 678 628 678 632 676 c 257
 630 646 622 524 622 498 c 257
 619 495 606 490 598 490 c 256
 593 490 588 492 588 496 c 257
 590 564 564 618 518 618 c 258
 416 618 l 257
 321 130 l 258
 314 94 307 64 310 46 c 256
 312 34 357 29 369 29 c 257
 372 23 369 2 363 -4 c 257
 327 -1 282 2 244 2 c 256
 206 2 160 -1 122 -4 c 257
 118 2 122 23 128 29 c 257
 140 29 187 34 193 46 c 256
 203 64 209 94 216 130 c 258
 310 618 l 257
 207 618 l 258
 161 618 113 564 89 496 c 256
 87 492 82 490 77 490 c 256
 69 490 58 495 56 498 c 257
 66 524 106 646 115 676 c 257
 120 678 125 678 131 676 c 256
 145 673 161 658 202 658 c 257
 366 658 l 257
EndSplineSet
Validated: 33
PickledDataWithLists: "(dp1
S'com.fontlab.hintData'
p2
(dp3
S'vhints'
p4
(lp5
(dp6
S'position'
p7
I588
sS'width'
p8
I34
sasS'hhints'
p9
(lp10
(dp11
g7
I-4
sg8
I33
sa(dp12
g7
I618
sg8
I40
sass."
EndChar

StartChar: U
Encoding: 52 85 52
GlifName: U_
Width: 689
VWidth: 0
GlyphClass: 2
Flags: W
HStem: -6 65<307 355> 629 33
LayerCount: 2
Fore
SplineSet
226 656 m 256
 263 656 309 659 347 662 c 257
 351 656 347 635 341 629 c 257
 329 629 282 624 276 612 c 256
 266 594 260 564 253 528 c 258
 212 313 l 258
 198 240 194 186 209 140 c 256
 228 74 283 59 331 59 c 256
 416 59 507 118 542 292 c 257
 585 512 l 258
 593 552 597 590 592 608 c 256
 588 622 542 630 528 630 c 257
 525 637 530 656 534 662 c 257
 574 659 600 656 642 656 c 256
 684 656 707 660 748 662 c 257
 750 656 748 639 742 630 c 257
 730 630 676 624 666 608 c 256
 655 590 644 553 636 513 c 258
 591 281 l 258
 551 79 425 -6 285 -6 c 256
 211 -6 150 21 117 74 c 256
 88 120 81 186 99 276 c 258
 148 528 l 258
 155 564 161 594 158 612 c 256
 156 624 112 629 100 629 c 257
 97 635 100 656 106 662 c 257
 142 659 188 656 226 656 c 256
EndSplineSet
Validated: 33
PickledDataWithLists: "(dp1
S'com.fontlab.hintData'
p2
(dp3
S'hhints'
p4
(lp5
(dp6
S'position'
p7
I-6
sS'width'
p8
I65
sa(dp9
g7
I629
sg8
I33
sass."
EndChar

StartChar: V
Encoding: 53 86 53
GlifName: V_
Width: 615
VWidth: 0
GlyphClass: 2
Flags: W
HStem: -6 21<235 244> 629 33
LayerCount: 2
Fore
SplineSet
188 656 m 256
 228 656 274 659 312 662 c 257
 314 656 310 633 305 629 c 257
 295 629 248 625 243 599 c 256
 240 586 243 558 248 526 c 256
 268 415 313 160 314 160 c 257
 315 160 512 508 520 522 c 257
 533 546 549 578 553 598 c 256
 557 623 504 629 492 629 c 257
 488 633 492 656 498 662 c 257
 536 659 564 656 602 656 c 256
 644 656 662 660 700 662 c 257
 702 656 697 633 693 629 c 257
 683 629 644 625 627 607 c 256
 611 590 586 551 566 515 c 257
 509 415 340 123 286 31 c 257
 273 9 250 -6 238 -6 c 256
 232 -6 232 2 230 8 c 257
 216 97 155 416 139 512 c 257
 133 546 126 578 118 601 c 256
 112 622 74 629 62 629 c 257
 60 633 65 658 69 662 c 257
 108 659 147 656 188 656 c 256
EndSplineSet
Validated: 33
PickledDataWithLists: "(dp1
S'com.fontlab.hintData'
p2
(dp3
S'hhints'
p4
(lp5
(dp6
S'position'
p7
I-6
sS'width'
p8
I21
sa(dp9
g7
I629
sg8
I33
sass."
EndChar

StartChar: W
Encoding: 54 87 54
GlifName: W_
Width: 862
VWidth: 0
GlyphClass: 2
Flags: W
HStem: -6 21<202 211 531 540> 629 33
LayerCount: 2
Fore
SplineSet
188 656 m 256
 228 656 272 659 310 662 c 257
 312 656 308 633 303 629 c 257
 293 629 245 624 242 593 c 256
 241 588 242 563 245 534 c 256
 256 430 274 272 280 198 c 257
 280 198 474 595 492 627 c 257
 502 646 520 662 530 662 c 256
 534 662 536 657 538 646 c 257
 553 551 593 279 605 180 c 257
 605 180 758 506 766 522 c 257
 777 547 791 578 795 598 c 256
 799 623 745 629 733 629 c 257
 729 633 734 656 740 662 c 257
 778 659 806 656 844 656 c 256
 886 656 905 660 943 662 c 257
 945 656 940 633 936 629 c 257
 926 629 887 623 869 607 c 256
 853 591 836 566 818 528 c 257
 771 434 626 128 578 36 c 257
 568 14 546 -6 534 -6 c 256
 528 -6 525 2 523 8 c 257
 512 102 468 366 456 463 c 257
 456 463 284 110 247 38 c 257
 240 24 217 -6 205 -6 c 256
 199 -6 196 2 194 8 c 257
 135 521 l 258
 132 556 131 572 121 602 c 256
 114 622 77 629 65 629 c 257
 62 633 67 658 71 662 c 257
 109 659 147 656 188 656 c 256
EndSplineSet
Validated: 33
PickledDataWithLists: "(dp1
S'com.fontlab.hintData'
p2
(dp3
S'hhints'
p4
(lp5
(dp6
S'position'
p7
I-6
sS'width'
p8
I21
sa(dp9
g7
I629
sg8
I33
sass."
EndChar

StartChar: X
Encoding: 55 88 55
GlifName: X_
Width: 639
VWidth: 0
GlyphClass: 2
Flags: W
HStem: -4 33 629 33
LayerCount: 2
Fore
SplineSet
231 656 m 256
 277 656 321 660 359 662 c 257
 360 656 356 629 351 629 c 257
 338 629 297 622 293 602 c 256
 291 595 293 585 297 576 c 258
 370 403 l 257
 432 471 512 558 532 588 c 256
 534 592 538 597 538 601 c 256
 540 613 519 628 477 628 c 257
 473 628 477 656 482 662 c 257
 517 658 559 656 593 656 c 256
 641 656 675 659 701 662 c 257
 703 656 699 631 693 628 c 257
 686 628 633 626 591 582 c 258
 385 365 l 257
 411 301 505 79 511 71 c 257
 527 39 573 29 595 29 c 257
 597 22 593 1 589 -4 c 257
 552 -2 506 2 468 2 c 256
 416 2 377 -2 325 -4 c 257
 321 1 327 29 332 29 c 256
 342 29 387 40 391 58 c 256
 392 61 391 66 390 69 c 258
 299 286 l 257
 255 236 145 112 118 74 c 256
 114 68 109 62 108 58 c 256
 105 43 136 29 176 29 c 257
 179 23 176 3 172 -4 c 257
 140 -2 93 2 59 2 c 256
 11 2 -20 -2 -58 -4 c 257
 -60 2 -55 24 -51 29 c 257
 -44 29 19 32 55 72 c 258
 281 327 l 257
 192 542 l 258
 180 574 167 601 150 614 c 256
 138 624 106 629 95 629 c 257
 90 629 96 657 102 662 c 257
 147 660 185 656 231 656 c 256
EndSplineSet
Validated: 33
PickledDataWithLists: "(dp1
S'com.fontlab.hintData'
p2
(dp3
S'hhints'
p4
(lp5
(dp6
S'position'
p7
I-4
sS'width'
p8
I33
sa(dp9
g7
I629
sg8
I33
sass."
EndChar

StartChar: Y
Encoding: 56 89 56
GlifName: Y_
Width: 566
VWidth: 0
GlyphClass: 2
Flags: W
HStem: -4 33 629 33
LayerCount: 2
Fore
SplineSet
201 130 m 258
 229 276 l 257
 230 283 229 291 227 300 c 257
 221 328 150 542 150 542 c 258
 139 574 132 586 117 604 c 256
 105 622 76 629 64 629 c 257
 60 633 65 656 71 662 c 257
 111 659 152 656 194 656 c 256
 236 656 282 659 320 662 c 257
 322 656 319 633 313 629 c 257
 301 629 256 626 251 600 c 256
 249 594 253 586 256 576 c 258
 330 346 l 257
 364 388 461 530 497 585 c 256
 501 591 503 598 504 604 c 256
 506 616 473 628 441 628 c 257
 438 633 442 657 446 662 c 257
 484 659 506 656 545 656 c 256
 589 656 612 660 650 662 c 257
 652 658 646 632 642 628 c 257
 632 628 585 628 561 596 c 257
 549 582 363 330 344 300 c 257
 338 291 337 282 335 274 c 257
 306 130 l 258
 298 94 293 64 296 46 c 256
 298 34 342 29 354 29 c 257
 357 23 354 2 348 -4 c 257
 312 -1 266 2 228 2 c 256
 190 2 145 -1 107 -4 c 257
 103 2 107 23 113 29 c 257
 125 29 172 34 178 46 c 256
 188 64 193 94 201 130 c 258
EndSplineSet
Validated: 33
PickledDataWithLists: "(dp1
S'com.fontlab.hintData'
p2
(dp3
S'hhints'
p4
(lp5
(dp6
S'position'
p7
I-4
sS'width'
p8
I33
sa(dp9
g7
I629
sg8
I33
sass."
EndChar

StartChar: Z
Encoding: 57 90 57
GlifName: Z_
Width: 606
VWidth: 0
GlyphClass: 2
Flags: W
HStem: 0 42<132 355 355 375.5 132 476> 617 41<257 285> 646 20
LayerCount: 2
Fore
SplineSet
285 617 m 258
 204 617 162 555 128 483 c 256
 126 480 123 478 116 478 c 256
 107 478 94 481 92 484 c 257
 116 536 139 600 159 666 c 257
 175 662 238 658 257 658 c 258
 412 658 l 258
 490 658 541 662 620 668 c 257
 624 667 629 650 627 641 c 257
 624 633 236 161 132 42 c 257
 355 42 l 258
 396 42 429 59 455 84 c 256
 480 108 498 136 517 171 c 256
 519 174 524 176 530 176 c 256
 539 176 552 172 554 168 c 257
 522 102 494 46 476 0 c 257
 2 0 l 257
 -9 0 -19 13 -15 18 c 258
 485 618 l 257
 285 617 l 258
EndSplineSet
Validated: 8388609
PickledDataWithLists: "(dp1
S'com.fontlab.hintData'
p2
(dp3
S'hhints'
p4
(lp5
(dp6
S'position'
p7
I0
sS'width'
p8
I42
sa(dp9
g7
I617
sg8
I41
sa(dp10
g7
I646
sg8
I20
sass."
EndChar

StartChar: bracketleft
Encoding: 58 91 58
GlifName: bracketleft
Width: 263
VWidth: 0
GlyphClass: 2
Flags: W
HStem: 701 48<178 224>
VStem: 6 338
LayerCount: 2
Fore
SplineSet
167 734 m 258
 168 737 173 749 183 749 c 256
 247 749 314 755 340 757 c 257
 342 755 344 754 344 748 c 256
 344 732 328 719 323 717 c 257
 307 710 258 702 224 701 c 256
 219 701 218 696 217 694 c 257
 70 -52 l 257
 70 -54 70 -59 75 -60 c 256
 103 -64 147 -75 168 -88 c 256
 173 -91 183 -101 183 -109 c 256
 183 -119 177 -124 175 -126 c 257
 141 -120 63 -104 13 -104 c 256
 9 -104 5 -100 6 -94 c 257
 33 45 167 734 167 734 c 258
EndSplineSet
Validated: 1
PickledDataWithLists: "(dp1
S'com.fontlab.hintData'
p2
(dp3
S'vhints'
p4
(lp5
(dp6
S'position'
p7
I6
sS'width'
p8
I338
sasS'hhints'
p9
(lp10
(dp11
g7
I701
sg8
I48
sass."
EndChar

StartChar: backslash
Encoding: 59 92 59
GlifName: backslash
Width: 378
VWidth: 0
GlyphClass: 2
Flags: W
VStem: 119 178
LayerCount: 2
Fore
SplineSet
297 -4 m 258
 300 -20 278 -40 267 -40 c 256
 263 -40 259 -40 255 -37 c 257
 203 269 119 755 119 755 c 257
 121 758 127 762 133 762 c 256
 154 762 170 735 172 725 c 258
 297 -4 l 258
EndSplineSet
Validated: 33
PickledDataWithLists: "(dp1
S'com.fontlab.hintData'
p2
(dp3
S'vhints'
p4
(lp5
(dp6
S'position'
p7
I119
sS'width'
p8
I178
sass."
EndChar

StartChar: bracketright
Encoding: 60 93 60
GlifName: bracketright
Width: 256
VWidth: 0
GlyphClass: 2
Flags: W
HStem: -92 40 696 52<204 265>
VStem: -59 330
LayerCount: 2
Fore
SplineSet
104 757 m 257
 122 755 193 748 260 748 c 256
 270 748 271 741 271 735 c 256
 271 729 188 312 188 310 c 258
 188 310 110 -92 106 -92 c 257
 74 -96 46 -112 18 -118 c 257
 -21 -118 -59 -120 -59 -116 c 257
 -59 -110 -53 -104 -48 -98 c 256
 -36 -84 -10 -72 6 -66 c 257
 20 -61 38 -54 58 -52 c 257
 61 -52 136 324 136 324 c 257
 136 326 207 696 204 696 c 257
 192 698 170 706 154 712 c 257
 124 715 101 726 101 730 c 257
 100 735 95 730 95 742 c 256
 95 750 101 757 104 757 c 257
EndSplineSet
Validated: 33
PickledDataWithLists: "(dp1
S'com.fontlab.hintData'
p2
(dp3
S'vhints'
p4
(lp5
(dp6
S'position'
p7
I-59
sS'width'
p8
I330
sasS'hhints'
p9
(lp10
(dp11
g7
I-92
sg8
I40
sa(dp12
g7
I696
sg8
I52
sass."
EndChar

StartChar: asciicircum
Encoding: 61 94 61
GlifName: asciicircum
Width: 313
VWidth: 0
GlyphClass: 2
Flags: W
HStem: 472 218<20.5 201 186.5 285.5>
VStem: 17 283<499 499>
LayerCount: 2
Fore
SplineSet
17 499 m 257
 25 513 108 566 178 677 c 256
 184 687 183 690 190 690 c 256
 212 690 201 669 241 588 c 256
 257 558 299 505 300 500 c 257
 298 494 289 472 282 472 c 256
 264 472 201 545 175 590 c 257
 125 533 37 472 24 472 c 256
 17 472 17 488 17 499 c 257
EndSplineSet
Validated: 1
PickledDataWithLists: "(dp1
S'com.fontlab.hintData'
p2
(dp3
S'vhints'
p4
(lp5
(dp6
S'position'
p7
I17
sS'width'
p8
I283
sasS'hhints'
p9
(lp10
(dp11
g7
I472
sg8
I218
sass."
EndChar

StartChar: underscore
Encoding: 62 95 62
GlifName: underscore
Width: 478
VWidth: 0
GlyphClass: 2
Flags: W
HStem: -44 59<-12 384 -31 404>
LayerCount: 2
Fore
SplineSet
-36 -36 m 257
 -36 -34 -23 15 -12 15 c 258
 404 15 l 258
 407 15 408 13 408 9 c 256
 408 4 402 -14 391 -38 c 256
 388 -44 384 -44 384 -44 c 257
 -31 -44 l 257
 -31 -44 -37 -44 -36 -36 c 257
EndSplineSet
Validated: 1
PickledDataWithLists: "(dp1
S'com.fontlab.hintData'
p2
(dp3
S'hhints'
p4
(lp5
(dp6
S'position'
p7
I-44
sS'width'
p8
I59
sass."
EndChar

StartChar: grave
Encoding: 63 96 63
GlifName: grave
Width: 169
VWidth: 0
GlyphClass: 2
Flags: W
HStem: 524 162<49 143.5>
VStem: 21 135<538 661>
LayerCount: 2
Fore
SplineSet
21 656 m 256
 21 666 32 686 66 686 c 256
 80 686 92 683 96 678 c 256
 122 636 156 545 156 541 c 257
 156 535 147 524 140 524 c 256
 131 524 21 615 21 656 c 256
EndSplineSet
Validated: 1
PickledDataWithLists: "(dp1
S'com.fontlab.hintData'
p2
(dp3
S'vhints'
p4
(lp5
(dp6
S'position'
p7
I21
sS'width'
p8
I135
sasS'hhints'
p9
(lp10
(dp11
g7
I524
sg8
I162
sass."
EndChar

StartChar: a
Encoding: 64 97 64
GlifName: a
Width: 469
VWidth: 0
GlyphClass: 2
Flags: W
HStem: -7 70<274 361> 394 48<250 267>
VStem: 15 100<124.5 202> 240 98<33.5 88.5>
LayerCount: 2
Fore
SplineSet
312 442 m 256
 348 442 384 433 404 426 c 257
 342 119 l 258
 341 115 338 91 338 86 c 256
 338 77 340 63 350 63 c 256
 372 63 418 119 421 123 c 257
 426 123 433 106 433 100 c 257
 419 74 338 -7 288 -7 c 256
 260 -7 240 15 240 52 c 256
 240 58 242 74 244 88 c 256
 246 101 248 107 249 113 c 257
 229 77 161 -6 102 -6 c 256
 47 -6 15 45 15 114 c 256
 15 290 188 442 312 442 c 256
260 394 m 256
 188 394 115 268 115 152 c 256
 115 97 130 67 158 67 c 256
 200 67 260 180 280 278 c 258
 301 381 l 257
 293 390 274 394 260 394 c 256
EndSplineSet
Validated: 1
PickledDataWithLists: "(dp1
S'com.fontlab.hintData'
p2
(dp3
S'vhints'
p4
(lp5
(dp6
S'position'
p7
I15
sS'width'
p8
I100
sa(dp9
g7
I240
sg8
I98
sasS'hhints'
p10
(lp11
(dp12
g7
I-7
sg8
I70
sa(dp13
g7
I394
sg8
I48
sass."
EndChar

StartChar: b
Encoding: 65 98 65
GlifName: b
Width: 447
VWidth: 0
GlyphClass: 2
Flags: W
HStem: -6 39<153 199> 370 72<256 357.5> 632 25 670 20
VStem: 132 105<606.5 675> 311 102<258 317.5>
LayerCount: 2
Fore
SplineSet
278 370 m 256
 234 370 157 261 138 162 c 256
 124 94 132 33 174 33 c 256
 248 33 311 214 311 302 c 256
 311 333 308 370 278 370 c 256
166 310 m 257
 215 390 292 442 332 442 c 256
 383 442 413 401 413 330 c 256
 413 146 254 -6 144 -6 c 256
 84 -6 39 37 39 109 c 256
 39 121 43 147 45 160 c 258
 124 560 l 258
 128 578 132 601 132 612 c 256
 132 631 88 632 72 632 c 257
 69 636 72 653 76 657 c 257
 131 662 210 682 232 690 c 257
 237 687 237 678 237 672 c 256
 237 664 229 620 224 596 c 258
 166 310 l 257
EndSplineSet
Validated: 33
PickledDataWithLists: "(dp1
S'com.fontlab.hintData'
p2
(dp3
S'vhints'
p4
(lp5
(dp6
S'position'
p7
I132
sS'width'
p8
I105
sa(dp9
g7
I311
sg8
I102
sasS'hhints'
p10
(lp11
(dp12
g7
I-6
sg8
I39
sa(dp13
g7
I370
sg8
I72
sa(dp14
g7
I632
sg8
I25
sa(dp15
g7
I670
sg8
I20
sass."
EndChar

StartChar: c
Encoding: 66 99 66
GlifName: c
Width: 369
VWidth: 0
GlyphClass: 2
Flags: W
HStem: -6 71<162 171> 396 46<215 235>
VStem: 20 102<140 215>
LayerCount: 2
Fore
SplineSet
271 442 m 256
 307 442 333 428 346 418 c 257
 350 412 358 397 358 380 c 256
 358 354 339 327 313 327 c 256
 293 327 278 340 270 356 c 256
 260 372 248 396 222 396 c 256
 176 396 122 286 122 166 c 256
 122 114 136 65 188 65 c 256
 233 65 286 128 289 131 c 257
 295 131 302 114 302 108 c 257
 289 87 206 -6 136 -6 c 256
 71 -6 20 42 20 136 c 256
 20 294 159 442 271 442 c 256
EndSplineSet
Validated: 1
PickledDataWithLists: "(dp1
S'com.fontlab.hintData'
p2
(dp3
S'vhints'
p4
(lp5
(dp6
S'position'
p7
I20
sS'width'
p8
I102
sasS'hhints'
p9
(lp10
(dp11
g7
I-6
sg8
I71
sa(dp12
g7
I396
sg8
I46
sass."
EndChar

StartChar: d
Encoding: 67 100 67
GlifName: d
Width: 469
VWidth: 0
GlyphClass: 2
Flags: W
HStem: -6 73<72.5 179> 394 48<225 314> 632 25 670 20
VStem: 15 100<125 197> 345 105<606.5 675>
LayerCount: 2
Fore
SplineSet
292 347 m 257
 294 373 284 394 262 394 c 256
 188 394 115 267 115 151 c 256
 115 99 128 67 158 67 c 256
 200 67 264 190 280 278 c 257
 280 278 292 341 292 347 c 257
336 560 m 257
 339 578 345 601 345 612 c 256
 345 631 300 632 284 632 c 257
 281 636 284 653 288 657 c 257
 343 662 422 682 444 690 c 257
 449 687 450 678 450 672 c 256
 450 664 442 620 437 596 c 258
 342 119 l 258
 341 115 338 91 338 86 c 256
 338 77 340 64 350 64 c 256
 372 64 418 119 421 123 c 257
 426 123 433 106 433 100 c 257
 419 74 338 -7 288 -7 c 256
 266 -7 252 8 246 31 c 256
 243 39 242 56 244 78 c 256
 246 92 247 105 249 113 c 257
 231 79 162 -6 102 -6 c 256
 43 -6 15 53 15 116 c 256
 15 278 171 432 298 442 c 256
 314 442 308 442 314 442 c 257
 336 560 l 257
EndSplineSet
Validated: 33
PickledDataWithLists: "(dp1
S'com.fontlab.hintData'
p2
(dp3
S'vhints'
p4
(lp5
(dp6
S'position'
p7
I15
sS'width'
p8
I100
sa(dp9
g7
I345
sg8
I105
sasS'hhints'
p10
(lp11
(dp12
g7
I-6
sg8
I73
sa(dp13
g7
I394
sg8
I48
sa(dp14
g7
I632
sg8
I25
sa(dp15
g7
I670
sg8
I20
sass."
EndChar

StartChar: e
Encoding: 68 101 68
GlifName: e
Width: 379
VWidth: 0
GlyphClass: 2
Flags: W
HStem: -6 71<161 163.5> 190 32<126 145.5 126 154> 403 39<214.5 240>
VStem: 20 101<137.5 164.5 137.5 214> 264 96<327 375>
LayerCount: 2
Fore
SplineSet
272 442 m 256
 323 442 360 415 360 365 c 256
 360 265 185 190 123 190 c 257
 122 187 121 167 121 162 c 256
 121 113 136 65 186 65 c 256
 231 65 285 129 288 132 c 257
 294 132 302 113 302 107 c 257
 289 85 195 -6 132 -6 c 256
 61 -6 20 47 20 140 c 256
 20 288 157 442 272 442 c 256
126 222 m 257
 165 222 264 290 264 364 c 256
 264 386 250 403 230 403 c 256
 172 403 131 273 126 222 c 257
EndSplineSet
Validated: 1
PickledDataWithLists: "(dp1
S'com.fontlab.hintData'
p2
(dp3
S'vhints'
p4
(lp5
(dp6
S'position'
p7
I20
sS'width'
p8
I101
sa(dp9
g7
I264
sg8
I96
sasS'hhints'
p10
(lp11
(dp12
g7
I-6
sg8
I71
sa(dp13
g7
I190
sg8
I32
sa(dp14
g7
I403
sg8
I39
sass."
EndChar

StartChar: f
Encoding: 69 102 69
GlifName: f
Width: 304
VWidth: 0
GlyphClass: 2
Flags: W
HStem: -226 44<-37 -28> 377 42<81 111 213 308> 646 44<299 305>
LayerCount: 2
Fore
SplineSet
336 690 m 256
 368 690 391 678 400 668 c 257
 402 663 404 656 404 648 c 256
 403 624 391 600 370 600 c 256
 353 600 341 609 330 623 c 256
 322 633 313 646 297 646 c 256
 262 646 244 578 213 419 c 257
 313 419 l 258
 317 419 318 411 318 406 c 256
 318 396 313 385 308 377 c 257
 205 377 l 257
 205 377 172 176 148 50 c 256
 116 -114 12 -226 -68 -226 c 256
 -100 -226 -123 -214 -132 -204 c 257
 -134 -197 -136 -189 -136 -180 c 256
 -135 -157 -122 -135 -102 -135 c 256
 -85 -135 -73 -144 -62 -158 c 256
 -54 -168 -45 -182 -29 -182 c 256
 10 -182 22 -113 53 46 c 257
 111 377 l 257
 36 377 l 258
 35 377 34 378 34 380 c 256
 34 390 58 419 81 419 c 258
 118 419 l 257
 150 583 262 690 336 690 c 256
EndSplineSet
Validated: 1
PickledDataWithLists: "(dp1
S'com.fontlab.hintData'
p2
(dp3
S'hhints'
p4
(lp5
(dp6
S'position'
p7
I-226
sS'width'
p8
I44
sa(dp9
g7
I377
sg8
I42
sa(dp10
g7
I646
sg8
I44
sass."
EndChar

StartChar: g
Encoding: 70 103 70
GlifName: g
Width: 427
VWidth: 0
GlyphClass: 2
Flags: W
HStem: -230 43<135.5 186> 387 52 411 36
VStem: -53 95<-128 -87> 36 128<46 105> 40 94 276 93 276 84<-106.5 -90>
LayerCount: 2
Fore
SplineSet
276 -116 m 256
 276 -64 180 -28 122 -10 c 257
 84 -28 42 -53 42 -97 c 256
 42 -159 101 -187 170 -187 c 256
 221 -187 276 -159 276 -116 c 256
223 411 m 256
 167 412 136 330 134 262 c 256
 133 214 147 166 187 165 c 256
 238 164 275 237 276 298 c 256
 277 346 262 410 223 411 c 256
348 388 m 257
 350 382 369 349 369 310 c 256
 369 210 288 158 254 142 c 256
 222 126 164 116 164 94 c 256
 164 62 360 49 360 -59 c 256
 360 -154 258 -230 114 -230 c 256
 14 -230 -53 -185 -53 -122 c 256
 -53 -52 33 -17 87 5 c 257
 87 5 60 19 56 23 c 257
 46 31 36 37 36 55 c 256
 36 80 118 123 158 133 c 257
 111 141 40 179 40 258 c 256
 40 364 130 447 226 447 c 257
 264 447 291 436 316 424 c 256
 328 418 377 437 390 439 c 257
 403 435 436 415 436 403 c 256
 436 396 430 387 422 387 c 256
 408 387 361 388 348 388 c 257
EndSplineSet
Validated: 8388641
PickledDataWithLists: "(dp1
S'com.fontlab.hintData'
p2
(dp3
S'vhints'
p4
(lp5
(dp6
S'position'
p7
I-53
sS'width'
p8
I95
sa(dp9
g7
I36
sg8
I128
sa(dp10
g7
I40
sg8
I94
sa(dp11
g7
I276
sg8
I93
sa(dp12
g7
I276
sg8
I84
sasS'hhints'
p13
(lp14
(dp15
g7
I-230
sg8
I43
sa(dp16
g7
I387
sg8
I52
sa(dp17
g7
I411
sg8
I36
sass."
EndChar

StartChar: h
Encoding: 71 104 71
GlifName: h
Width: 487
VWidth: 0
GlyphClass: 2
Flags: W
HStem: -7 70<296 383> 350 92<274 368> 632 25 670 20
VStem: 134 105<606.5 675> 261 99<34 88.5> 308 100<313 390>
LayerCount: 2
Fore
SplineSet
226 596 m 257
 226 596 173 326 172 322 c 257
 170 316 161 261 160 256 c 257
 182 302 286 442 344 442 c 257
 392 442 408 414 408 366 c 256
 408 332 396 278 390 246 c 258
 364 119 l 258
 363 115 360 91 360 86 c 256
 360 77 362 63 372 63 c 256
 394 63 439 119 442 123 c 257
 447 123 454 106 454 100 c 257
 440 74 360 -7 310 -7 c 256
 282 -7 261 14 261 54 c 256
 261 65 265 97 269 111 c 257
 298 253 l 258
 300 263 308 308 308 318 c 256
 308 334 304 350 290 350 c 256
 258 350 159 227 133 105 c 257
 130 89 115 23 110 0 c 257
 100 -3 74 -5 64 -5 c 256
 54 -5 30 -3 18 0 c 257
 21 16 126 557 126 560 c 257
 130 578 134 601 134 612 c 256
 134 631 90 632 74 632 c 257
 71 636 74 653 78 657 c 257
 133 662 212 682 234 690 c 257
 239 687 239 678 239 672 c 256
 239 664 230 616 226 596 c 257
EndSplineSet
Validated: 8388609
PickledDataWithLists: "(dp1
S'com.fontlab.hintData'
p2
(dp3
S'vhints'
p4
(lp5
(dp6
S'position'
p7
I134
sS'width'
p8
I105
sa(dp9
g7
I261
sg8
I99
sa(dp10
g7
I308
sg8
I100
sasS'hhints'
p11
(lp12
(dp13
g7
I-7
sg8
I70
sa(dp14
g7
I350
sg8
I92
sa(dp15
g7
I632
sg8
I25
sa(dp16
g7
I670
sg8
I20
sass."
EndChar

StartChar: i
Encoding: 72 105 72
GlifName: i
Width: 286
VWidth: 0
GlyphClass: 2
Flags: W
HStem: -7 70<90.5 177> 372 70<89 173> 543 124<172 188>
VStem: 56 99<34 88.5> 112 98<345.5 399> 124 112<597 614.5>
LayerCount: 2
Fore
SplineSet
108 316 m 258
 109 321 112 343 112 348 c 256
 112 357 110 372 100 372 c 256
 78 372 32 316 29 312 c 257
 24 312 17 329 17 335 c 257
 31 361 108 442 158 442 c 256
 188 442 210 418 210 380 c 256
 210 369 205 340 202 324 c 257
 158 119 l 258
 156 112 155 91 155 86 c 256
 155 77 156 63 166 63 c 256
 188 63 234 119 237 123 c 257
 242 123 249 106 249 100 c 257
 235 74 154 -7 104 -7 c 256
 77 -7 56 14 56 54 c 256
 56 65 61 97 64 111 c 257
 108 316 l 258
190 667 m 256
 218 667 236 644 236 616 c 256
 236 578 206 543 170 543 c 256
 142 543 124 568 124 596 c 256
 124 633 154 667 190 667 c 256
EndSplineSet
Validated: 8388609
PickledDataWithLists: "(dp1
S'com.fontlab.hintData'
p2
(dp3
S'vhints'
p4
(lp5
(dp6
S'position'
p7
I56
sS'width'
p8
I99
sa(dp9
g7
I112
sg8
I98
sa(dp10
g7
I124
sg8
I112
sasS'hhints'
p11
(lp12
(dp13
g7
I-7
sg8
I70
sa(dp14
g7
I372
sg8
I70
sa(dp15
g7
I543
sg8
I124
sass."
Substitution2: "ccmpGlyphCompositionDecompositioninLatinlookup0 subtable" i.TRK
EndChar

StartChar: j
Encoding: 73 106 73
GlifName: j
Width: 268
VWidth: 0
GlyphClass: 2
Flags: W
HStem: -226 21 372 70<97 181> 544 124<192 209>
VStem: 120 98<345.5 399> 145 112<597 614.5>
LayerCount: 2
Fore
SplineSet
116 316 m 258
 117 321 120 343 120 348 c 256
 120 357 118 372 108 372 c 256
 86 372 41 316 38 312 c 257
 33 312 26 329 26 335 c 257
 40 361 116 442 166 442 c 256
 196 442 218 418 218 380 c 256
 218 369 214 340 211 324 c 257
 211 324 172 120 164 82 c 257
 152 22 128 -44 86 -100 c 256
 44 -156 -46 -215 -78 -226 c 257
 -82 -224 -87 -213 -87 -205 c 257
 -1 -145 40 -69 66 61 c 257
 116 316 l 258
210 668 m 256
 238 668 257 644 257 616 c 256
 257 578 227 544 191 544 c 256
 163 544 145 568 145 596 c 256
 145 633 174 668 210 668 c 256
EndSplineSet
Validated: 8388609
PickledDataWithLists: "(dp1
S'com.fontlab.hintData'
p2
(dp3
S'vhints'
p4
(lp5
(dp6
S'position'
p7
I120
sS'width'
p8
I98
sa(dp9
g7
I145
sg8
I112
sasS'hhints'
p10
(lp11
(dp12
g7
I-226
sg8
I21
sa(dp13
g7
I372
sg8
I70
sa(dp14
g7
I544
sg8
I124
sass."
EndChar

StartChar: k
Encoding: 74 107 74
GlifName: k
Width: 481
VWidth: 0
GlyphClass: 2
Flags: W
HStem: -4 70<272 378> 381 61<265 374> 632 25 670 20
VStem: 135 105<606.5 675> 325 104<333 355>
LayerCount: 2
Fore
SplineSet
350 442 m 257
 398 442 429 414 429 372 c 256
 429 294 330 242 237 220 c 257
 289 130 326 66 368 66 c 256
 388 66 426 110 436 122 c 257
 442 122 448 105 448 100 c 257
 439 80 363 -4 311 -4 c 256
 233 -4 182 128 150 200 c 257
 142 162 111 0 111 0 c 257
 101 -3 77 -6 66 -6 c 256
 55 -6 30 -3 18 0 c 257
 21 16 126 557 126 560 c 257
 130 578 135 601 135 612 c 256
 135 631 90 632 74 632 c 257
 71 636 74 653 78 657 c 257
 133 662 212 682 234 690 c 257
 239 687 240 678 240 672 c 256
 240 664 231 616 227 596 c 258
 176 332 l 257
 184 347 265 442 350 442 c 257
294 381 m 257
 236 381 164 281 158 239 c 257
 222 239 325 280 325 348 c 257
 325 362 320 381 294 381 c 257
EndSplineSet
Validated: 1
PickledDataWithLists: "(dp1
S'com.fontlab.hintData'
p2
(dp3
S'vhints'
p4
(lp5
(dp6
S'position'
p7
I135
sS'width'
p8
I105
sa(dp9
g7
I325
sg8
I104
sasS'hhints'
p10
(lp11
(dp12
g7
I-4
sg8
I70
sa(dp13
g7
I381
sg8
I61
sa(dp14
g7
I632
sg8
I25
sa(dp15
g7
I670
sg8
I20
sass."
EndChar

StartChar: l
Encoding: 75 108 75
GlifName: l
Width: 262
VWidth: 0
GlyphClass: 2
Flags: W
HStem: -7 70<68 155> 632 25 670 20
VStem: 33 99<34 88.5> 138 105<606.5 675>
LayerCount: 2
Fore
SplineSet
128 560 m 258
 132 578 138 601 138 612 c 256
 138 631 92 632 76 632 c 257
 73 636 76 653 80 657 c 257
 135 662 214 682 236 690 c 257
 241 687 243 678 243 672 c 256
 243 664 235 620 230 596 c 258
 136 119 l 258
 135 114 132 91 132 86 c 256
 132 77 134 63 144 63 c 256
 166 63 211 119 214 123 c 257
 219 123 226 106 226 100 c 257
 212 74 132 -7 82 -7 c 256
 54 -7 33 14 33 54 c 256
 33 65 38 97 41 111 c 257
 128 560 l 258
EndSplineSet
Validated: 1
PickledDataWithLists: "(dp1
S'com.fontlab.hintData'
p2
(dp3
S'vhints'
p4
(lp5
(dp6
S'position'
p7
I33
sS'width'
p8
I99
sa(dp9
g7
I138
sg8
I105
sasS'hhints'
p10
(lp11
(dp12
g7
I-7
sg8
I70
sa(dp13
g7
I632
sg8
I25
sa(dp14
g7
I670
sg8
I20
sass."
EndChar

StartChar: m
Encoding: 76 109 76
GlifName: m
Width: 736
VWidth: 0
GlyphClass: 2
Flags: W
HStem: -4 21<310 322> 350 92 372 70<89 173>
VStem: 112 98<345.5 399> 332 98<315 376> 510 99<34 88.5> 558 100<313 390.5>
LayerCount: 2
Fore
SplineSet
518 111 m 257
 523 133 548 253 548 253 c 258
 550 263 558 308 558 318 c 256
 558 336 554 350 540 350 c 256
 506 350 410 226 386 112 c 257
 363 0 l 257
 351 -2 328 -4 316 -4 c 256
 304 -4 283 -2 270 0 c 257
 324 263 l 258
 327 277 332 310 332 320 c 256
 332 338 326 350 314 350 c 256
 277 350 184 218 160 106 c 258
 138 0 l 257
 126 -2 104 -5 92 -5 c 256
 80 -5 58 -2 45 0 c 257
 108 316 l 258
 109 321 112 343 112 348 c 256
 112 357 110 372 100 372 c 256
 78 372 32 316 29 312 c 257
 24 312 17 329 17 335 c 257
 31 361 108 442 158 442 c 256
 188 442 210 418 210 380 c 256
 210 369 205 340 202 324 c 256
 198 300 191 274 187 256 c 257
 220 322 309 442 360 442 c 256
 417 442 430 401 430 351 c 256
 430 331 425 294 420 274 c 257
 456 339 542 442 590 442 c 256
 641 442 658 415 658 366 c 256
 658 330 646 276 640 246 c 257
 638 234 614 133 612 119 c 257
 610 109 609 91 609 86 c 256
 609 77 610 64 620 64 c 256
 642 64 688 119 691 123 c 257
 696 123 703 106 703 100 c 257
 689 74 608 -7 558 -7 c 256
 531 -7 510 14 510 54 c 256
 510 65 515 97 518 111 c 257
EndSplineSet
Validated: 8388609
PickledDataWithLists: "(dp1
S'com.fontlab.hintData'
p2
(dp3
S'vhints'
p4
(lp5
(dp6
S'position'
p7
I112
sS'width'
p8
I98
sa(dp9
g7
I332
sg8
I98
sa(dp10
g7
I510
sg8
I99
sa(dp11
g7
I558
sg8
I100
sasS'hhints'
p12
(lp13
(dp14
g7
I-4
sg8
I21
sa(dp15
g7
I350
sg8
I92
sa(dp16
g7
I372
sg8
I70
sass."
EndChar

StartChar: n
Encoding: 77 110 77
GlifName: n
Width: 518
VWidth: 0
GlyphClass: 2
Flags: W
HStem: -7 70<326.5 413> 350 92 372 70<89 173>
VStem: 112 98<345.5 399> 292 99<34 88.5> 338 100<313 390.5>
LayerCount: 2
Fore
SplineSet
202 324 m 257
 201 318 188 260 188 260 c 257
 210 306 312 442 370 442 c 257
 421 442 438 415 438 366 c 256
 438 334 426 276 420 246 c 258
 394 119 l 258
 392 112 391 91 391 86 c 256
 391 77 392 63 402 63 c 256
 424 63 470 119 473 123 c 257
 478 123 485 106 485 100 c 257
 471 74 390 -7 340 -7 c 256
 313 -7 292 14 292 54 c 256
 292 65 297 97 300 111 c 257
 328 253 l 258
 330 263 338 308 338 318 c 256
 338 336 334 350 320 350 c 256
 287 350 186 232 160 106 c 257
 156 82 143 24 138 0 c 257
 126 -2 104 -5 92 -5 c 256
 80 -5 58 -2 45 0 c 257
 108 316 l 258
 109 321 112 343 112 348 c 256
 112 357 110 372 100 372 c 256
 78 372 32 316 29 312 c 257
 24 312 17 329 17 335 c 257
 31 361 108 442 158 442 c 256
 188 442 210 418 210 380 c 256
 210 369 206 340 202 324 c 257
EndSplineSet
Validated: 8388609
PickledDataWithLists: "(dp1
S'com.fontlab.hintData'
p2
(dp3
S'vhints'
p4
(lp5
(dp6
S'position'
p7
I112
sS'width'
p8
I98
sa(dp9
g7
I292
sg8
I99
sa(dp10
g7
I338
sg8
I100
sasS'hhints'
p11
(lp12
(dp13
g7
I-7
sg8
I70
sa(dp14
g7
I350
sg8
I92
sa(dp15
g7
I372
sg8
I70
sass."
EndChar

StartChar: o
Encoding: 78 111 78
GlifName: o
Width: 435
VWidth: 0
GlyphClass: 2
Flags: W
HStem: -6 36<149.5 206.5 149.5 209> 406 36<210 267.5>
VStem: 20 102<116 194.5 116 211> 294 102<241 320>
LayerCount: 2
Fore
SplineSet
250 406 m 256
 170 406 122 247 122 142 c 256
 122 90 132 30 167 30 c 256
 246 30 294 190 294 292 c 256
 294 348 285 406 250 406 c 256
262 442 m 256
 344 442 396 394 396 292 c 256
 396 150 268 -6 150 -6 c 256
 68 -6 20 49 20 140 c 256
 20 282 144 442 262 442 c 256
EndSplineSet
Validated: 1
PickledDataWithLists: "(dp1
S'com.fontlab.hintData'
p2
(dp3
S'vhints'
p4
(lp5
(dp6
S'position'
p7
I20
sS'width'
p8
I102
sa(dp9
g7
I294
sg8
I102
sasS'hhints'
p10
(lp11
(dp12
g7
I-6
sg8
I36
sa(dp13
g7
I406
sg8
I36
sass."
EndChar

StartChar: p
Encoding: 79 112 79
GlifName: p
Width: 474
VWidth: 0
GlyphClass: 2
Flags: W
HStem: -227 30 -218 28 -5 40<179 229> 372 70<276 379>
VStem: 338 102<250 323>
LayerCount: 2
Fore
SplineSet
292 372 m 256
 260 372 216 342 192 312 c 257
 190 298 158 140 158 140 c 258
 145 72 165 35 193 35 c 256
 271 35 338 199 338 301 c 256
 338 345 324 372 292 372 c 256
347 442 m 256
 411 442 440 391 440 321 c 256
 440 159 290 -5 168 -5 c 256
 156 -5 140 -3 132 4 c 257
 102 -136 l 258
 100 -145 99 -154 99 -164 c 256
 99 -169 103 -183 113 -186 c 256
 130 -190 157 -190 160 -190 c 256
 164 -191 162 -217 157 -219 c 257
 144 -219 133 -218 122 -218 c 256
 71 -218 7 -220 -51 -227 c 257
 -56 -226 -54 -200 -49 -197 c 257
 -31 -197 -18 -191 -9 -180 c 256
 -2 -171 2 -161 7 -138 c 258
 84 241 l 257
 36 193 l 257
 32 198 29 210 29 216 c 256
 29 224 34 231 38 234 c 258
 93 290 l 257
 121 438 l 257
 132 441 160 443 171 443 c 256
 182 443 206 441 216 436 c 257
 212 418 203 368 201 360 c 257
 229 388 296 442 347 442 c 256
EndSplineSet
Validated: 8388641
PickledDataWithLists: "(dp1
S'com.fontlab.hintData'
p2
(dp3
S'vhints'
p4
(lp5
(dp6
S'position'
p7
I338
sS'width'
p8
I102
sasS'hhints'
p9
(lp10
(dp11
g7
I-227
sg8
I30
sa(dp12
g7
I-218
sg8
I28
sa(dp13
g7
I-5
sg8
I40
sa(dp14
g7
I372
sg8
I70
sass."
EndChar

StartChar: q
Encoding: 80 113 80
GlifName: q
Width: 440
VWidth: 0
GlyphClass: 2
Flags: W
HStem: -228 21 -218 20 -6 73<71 179.5> 394 48<242 275.5>
VStem: 15 100<126.5 195>
LayerCount: 2
Fore
SplineSet
337 -220 m 257
 323 -220 289 -218 276 -218 c 256
 218 -218 163 -224 126 -228 c 257
 124 -226 123 -198 129 -198 c 256
 158 -195 189 -184 194 -158 c 258
 244 107 l 257
 223 71 159 -6 101 -6 c 256
 41 -6 15 57 15 115 c 256
 15 275 172 442 312 442 c 256
 347 442 378 436 400 424 c 257
 342 122 l 258
 341 118 294 -142 294 -142 c 258
 293 -150 292 -156 292 -162 c 256
 292 -177 296 -191 340 -191 c 256
 344 -191 342 -217 337 -220 c 257
292 341 m 257
 296 361 289 394 262 394 c 256
 188 394 115 269 115 154 c 256
 115 99 131 67 158 67 c 256
 201 67 262 183 280 276 c 257
 282 290 290 327 292 341 c 257
EndSplineSet
Validated: 8388641
PickledDataWithLists: "(dp1
S'com.fontlab.hintData'
p2
(dp3
S'vhints'
p4
(lp5
(dp6
S'position'
p7
I15
sS'width'
p8
I100
sasS'hhints'
p9
(lp10
(dp11
g7
I-228
sg8
I21
sa(dp12
g7
I-218
sg8
I20
sa(dp13
g7
I-6
sg8
I73
sa(dp14
g7
I394
sg8
I48
sass."
EndChar

StartChar: r
Encoding: 81 114 81
GlifName: r
Width: 393
VWidth: 0
GlyphClass: 2
Flags: W
HStem: -4 21<89 100.5> 356 86 372 70<87 171>
VStem: 111 98<345.5 399>
LayerCount: 2
Fore
SplineSet
341 442 m 257
 367 442 380 435 393 425 c 257
 399 417 406 403 406 389 c 256
 406 352 383 331 358 331 c 256
 344 331 330 340 320 348 c 256
 313 353 309 356 297 356 c 256
 265 356 185 222 161 106 c 258
 140 0 l 257
 130 -2 106 -4 95 -4 c 256
 83 -4 59 -2 47 0 c 257
 106 316 l 258
 107 321 111 343 111 348 c 256
 111 357 108 372 98 372 c 256
 76 372 31 316 28 312 c 257
 23 312 16 329 16 335 c 257
 30 361 106 442 156 442 c 256
 186 442 209 418 209 380 c 256
 209 369 204 340 201 324 c 256
 197 302 190 266 186 250 c 257
 212 330 291 442 341 442 c 257
EndSplineSet
Validated: 8388609
PickledDataWithLists: "(dp1
S'com.fontlab.hintData'
p2
(dp3
S'vhints'
p4
(lp5
(dp6
S'position'
p7
I111
sS'width'
p8
I98
sasS'hhints'
p9
(lp10
(dp11
g7
I-4
sg8
I21
sa(dp12
g7
I356
sg8
I86
sa(dp13
g7
I372
sg8
I70
sass."
EndChar

StartChar: s
Encoding: 82 115 82
GlifName: s
Width: 343
VWidth: 0
GlyphClass: 2
Flags: W
HStem: -6 36<135 153> 407 36<165 189>
VStem: 56 75<337 345> 194 77<86 100>
LayerCount: 2
Fore
SplineSet
210 443 m 257
 256 443 286 432 308 414 c 257
 315 406 319 386 319 378 c 257
 319 356 303 332 277 332 c 257
 255 332 237 355 224 373 c 256
 212 391 202 407 176 407 c 257
 148 407 131 380 131 356 c 256
 131 318 179 282 213 246 c 256
 241 216 271 183 271 127 c 256
 271 45 198 -6 108 -6 c 257
 72 -6 35 4 11 24 c 257
 5 32 0 48 0 58 c 257
 0 86 18 108 42 108 c 257
 64 108 77 87 94 63 c 256
 108 43 122 30 148 30 c 257
 179 30 194 60 194 80 c 256
 194 120 149 153 117 189 c 256
 87 223 56 253 56 311 c 256
 56 379 120 443 210 443 c 257
EndSplineSet
Validated: 1
PickledDataWithLists: "(dp1
S'com.fontlab.hintData'
p2
(dp3
S'vhints'
p4
(lp5
(dp6
S'position'
p7
I56
sS'width'
p8
I75
sa(dp9
g7
I194
sg8
I77
sasS'hhints'
p10
(lp11
(dp12
g7
I-6
sg8
I36
sa(dp13
g7
I407
sg8
I36
sass."
EndChar

StartChar: t
Encoding: 83 116 83
GlifName: t
Width: 303
VWidth: 0
GlyphClass: 2
Flags: W
HStem: -7 70<83.5 171> 377 42<83 108 210 286>
VStem: 48 99<34 88.5>
LayerCount: 2
Fore
SplineSet
116 419 m 257
 130 488 l 257
 141 502 209 554 217 554 c 256
 223 554 230 551 234 548 c 257
 210 419 l 257
 292 419 l 258
 296 419 296 411 296 406 c 256
 296 396 291 385 286 377 c 257
 202 377 l 257
 152 119 l 258
 150 111 147 91 147 86 c 256
 147 77 150 63 160 63 c 256
 182 63 227 119 230 123 c 257
 235 123 242 106 242 100 c 257
 228 74 147 -7 97 -7 c 256
 70 -7 48 14 48 54 c 256
 48 65 52 94 56 111 c 258
 108 377 l 257
 38 377 l 258
 37 377 36 378 36 380 c 256
 36 390 60 419 83 419 c 258
 116 419 l 257
EndSplineSet
Validated: 1
PickledDataWithLists: "(dp1
S'com.fontlab.hintData'
p2
(dp3
S'vhints'
p4
(lp5
(dp6
S'position'
p7
I48
sS'width'
p8
I99
sasS'hhints'
p9
(lp10
(dp11
g7
I-7
sg8
I70
sa(dp12
g7
I377
sg8
I42
sass."
EndChar

StartChar: u
Encoding: 84 117 84
GlifName: u
Width: 512
VWidth: 0
GlyphClass: 2
Flags: W
HStem: -7 92<94.5 194> -7 70<318.5 405> 372 70<85 169>
VStem: 60 100<47 122> 108 98<345.5 399> 283 99<34 88.5>
LayerCount: 2
Fore
SplineSet
290 106 m 256
 295 134 300 154 305 176 c 257
 273 108 171 -7 117 -7 c 257
 72 -7 60 22 60 72 c 256
 60 102 71 158 77 186 c 257
 81 206 101 296 104 316 c 256
 105 321 108 343 108 348 c 256
 108 357 106 372 96 372 c 256
 74 372 28 316 25 312 c 257
 20 312 13 329 13 335 c 257
 27 361 104 442 154 442 c 256
 184 442 206 418 206 380 c 256
 206 369 201 340 198 324 c 257
 197 318 170 182 170 182 c 258
 168 172 160 127 160 117 c 256
 160 101 164 85 178 85 c 256
 210 85 312 222 336 346 c 257
 340 368 350 413 354 435 c 257
 364 438 387 440 397 440 c 256
 407 440 434 438 446 435 c 257
 386 119 l 258
 384 111 382 91 382 86 c 256
 382 77 384 63 394 63 c 256
 416 63 461 119 464 123 c 257
 469 123 476 106 476 100 c 257
 462 74 382 -7 332 -7 c 256
 305 -7 283 14 283 54 c 256
 283 62 286 84 290 106 c 256
EndSplineSet
Validated: 8388609
PickledDataWithLists: "(dp1
S'com.fontlab.hintData'
p2
(dp3
S'vhints'
p4
(lp5
(dp6
S'position'
p7
I60
sS'width'
p8
I100
sa(dp9
g7
I108
sg8
I98
sa(dp10
g7
I283
sg8
I99
sasS'hhints'
p11
(lp12
(dp13
g7
I-7
sg8
I92
sa(dp14
g7
I-7
sg8
I70
sa(dp15
g7
I372
sg8
I70
sass."
EndChar

StartChar: v
Encoding: 85 118 85
GlifName: v
Width: 452
VWidth: 0
GlyphClass: 2
Flags: W
HStem: -6 21<122 155> 368 74<80 170>
VStem: 100 98<220 258 258 344 344 348.5> 344 89<309 331.5>
LayerCount: 2
Fore
SplineSet
211 88 m 257
 263 130 293 166 319 218 c 256
 339 257 344 298 344 320 c 256
 344 343 331 372 310 390 c 257
 313 417 342 442 366 442 c 256
 404 442 433 413 433 356 c 256
 433 230 188 -6 122 -6 c 257
 108 23 100 143 100 219 c 258
 100 344 l 258
 100 353 99 368 89 368 c 256
 71 368 28 316 25 312 c 257
 20 312 13 329 13 335 c 257
 27 361 104 442 154 442 c 256
 186 442 198 417 198 387 c 258
 198 387 198 350 198 344 c 257
 198 258 l 258
 198 182 205 104 211 88 c 257
EndSplineSet
Validated: 1
PickledDataWithLists: "(dp1
S'com.fontlab.hintData'
p2
(dp3
S'vhints'
p4
(lp5
(dp6
S'position'
p7
I100
sS'width'
p8
I98
sa(dp9
g7
I344
sg8
I89
sasS'hhints'
p10
(lp11
(dp12
g7
I-6
sg8
I21
sa(dp13
g7
I368
sg8
I74
sass."
EndChar

StartChar: w
Encoding: 86 119 86
GlifName: w
Width: 677
VWidth: 0
GlyphClass: 2
Flags: W
HStem: -6 22 368 74<80 170>
VStem: 100 98<220 258 258 344 344 348.5> 344 78 568 89<306.5 330.5>
LayerCount: 2
Fore
SplineSet
422 390 m 257
 422 344 427 266 432 206 c 256
 437 154 443 104 450 94 c 257
 490 124 526 164 550 218 c 256
 568 256 568 295 568 318 c 256
 568 343 555 372 534 390 c 257
 537 417 567 442 591 442 c 256
 629 442 657 413 657 356 c 256
 657 230 437 -5 365 -5 c 257
 355 9 343 89 339 126 c 256
 335 156 332 191 332 203 c 257
 282 121 180 8 123 -6 c 257
 109 23 100 143 100 219 c 258
 100 344 l 258
 100 353 99 368 89 368 c 256
 71 368 28 316 25 312 c 257
 20 312 13 329 13 335 c 257
 27 361 104 442 154 442 c 256
 186 442 198 417 198 387 c 258
 198 387 198 350 198 344 c 257
 198 258 l 258
 198 182 205 122 211 106 c 257
 246 138 287 201 305 236 c 256
 324 272 336 307 344 335 c 257
 352 357 404 388 422 390 c 257
EndSplineSet
Validated: 1
PickledDataWithLists: "(dp1
S'com.fontlab.hintData'
p2
(dp3
S'vhints'
p4
(lp5
(dp6
S'position'
p7
I100
sS'width'
p8
I98
sa(dp9
g7
I344
sg8
I78
sa(dp10
g7
I568
sg8
I89
sasS'hhints'
p11
(lp12
(dp13
g7
I-6
sg8
I22
sa(dp14
g7
I368
sg8
I74
sass."
EndChar

StartChar: x
Encoding: 87 120 87
GlifName: x
Width: 496
VWidth: 0
GlyphClass: 2
Flags: W
HStem: -6 70 368 74<110 196> 376 66
LayerCount: 2
Fore
SplineSet
181 442 m 256
 211 442 230 407 240 371 c 258
 266 282 l 257
 316 373 l 257
 336 410 368 442 404 442 c 256
 431 442 457 431 469 420 c 257
 473 412 480 394 480 382 c 256
 480 358 465 328 435 328 c 256
 415 328 401 342 394 354 c 256
 388 364 378 376 370 376 c 256
 361 376 350 363 340 346 c 258
 278 240 l 257
 320 104 l 258
 326 84 337 64 356 64 c 256
 376 64 419 113 426 123 c 257
 431 123 438 106 438 100 c 257
 426 77 345 -6 296 -6 c 256
 263 -6 244 31 232 70 c 257
 232 71 215 129 208 153 c 257
 158 64 l 257
 138 27 106 -6 70 -6 c 256
 40 -6 21 6 7 16 c 257
 1 23 -5 37 -5 52 c 256
 -5 76 8 108 38 108 c 256
 58 108 73 94 80 82 c 256
 86 72 96 61 104 61 c 256
 112 61 123 70 135 92 c 258
 194 195 l 257
 154 328 l 258
 150 343 138 368 118 368 c 256
 102 368 61 323 54 313 c 257
 49 313 42 330 42 336 c 257
 55 360 132 442 181 442 c 256
EndSplineSet
Validated: 8388609
PickledDataWithLists: "(dp1
S'com.fontlab.hintData'
p2
(dp3
S'hhints'
p4
(lp5
(dp6
S'position'
p7
I-6
sS'width'
p8
I70
sa(dp9
g7
I368
sg8
I74
sa(dp10
g7
I376
sg8
I66
sass."
EndChar

StartChar: y
Encoding: 88 121 88
GlifName: y
Width: 473
VWidth: 0
GlyphClass: 2
Flags: W
HStem: -226 73<8 37.5> 368 74<67.5 188>
VStem: 144 98<34.5 50.5 20 113> 353 86<239.5 319>
LayerCount: 2
Fore
SplineSet
131 442 m 256
 245 442 242 81 242 20 c 257
 278 64 353 185 353 294 c 256
 353 344 333 372 320 388 c 257
 324 418 352 442 378 442 c 256
 417 442 439 402 439 356 c 256
 439 122 105 -226 -30 -226 c 256
 -66 -226 -93 -206 -93 -174 c 256
 -93 -157 -81 -135 -66 -127 c 257
 -51 -136 -7 -153 23 -153 c 256
 85 -153 113 -119 131 -92 c 256
 147 -60 144 13 144 56 c 256
 144 170 128 368 79 368 c 256
 56 368 18 315 15 312 c 257
 9 312 3 331 3 335 c 257
 14 354 84 442 131 442 c 256
EndSplineSet
Validated: 33
PickledDataWithLists: "(dp1
S'com.fontlab.hintData'
p2
(dp3
S'vhints'
p4
(lp5
(dp6
S'position'
p7
I144
sS'width'
p8
I98
sa(dp9
g7
I353
sg8
I86
sasS'hhints'
p10
(lp11
(dp12
g7
I-226
sg8
I73
sa(dp13
g7
I368
sg8
I74
sass."
EndChar

StartChar: z
Encoding: 89 122 89
GlifName: z
Width: 414
VWidth: 0
GlyphClass: 2
Flags: W
HStem: -2 84<219.5 298> 35 83<59 169.5> 323 84<227.5 329> 359 84<97.5 176>
LayerCount: 2
Fore
SplineSet
158 443 m 256
 194 443 218 432 244 422 c 256
 262 415 284 407 314 407 c 256
 344 407 382 434 394 442 c 257
 408 440 410 426 410 418 c 256
 410 404 116 112 113 108 c 257
 117 110 139 118 157 118 c 256
 182 118 206 112 226 102 c 256
 244 94 266 82 284 82 c 256
 312 82 336 131 342 140 c 257
 352 140 356 128 357 120 c 257
 339 82 286 -2 236 -2 c 256
 203 -2 175 9 149 20 c 256
 132 27 103 35 72 35 c 256
 46 35 22 11 4 -1 c 257
 -9 0 -11 13 -12 22 c 257
 -12 38 290 334 292 338 c 257
 288 336 263 323 240 323 c 256
 215 323 192 330 172 339 c 256
 154 347 131 359 112 359 c 256
 83 359 60 309 54 300 c 257
 46 300 41 312 40 320 c 257
 52 350 108 443 158 443 c 256
EndSplineSet
Validated: 8388609
PickledDataWithLists: "(dp1
S'com.fontlab.hintData'
p2
(dp3
S'hhints'
p4
(lp5
(dp6
S'position'
p7
I-2
sS'width'
p8
I84
sa(dp9
g7
I35
sg8
I83
sa(dp10
g7
I323
sg8
I84
sa(dp11
g7
I359
sg8
I84
sass."
EndChar

StartChar: braceleft
Encoding: 90 123 90
GlifName: braceleft
Width: 228
VWidth: 0
GlyphClass: 2
Flags: W
HStem: 719 20<272 275>
VStem: 20 262
LayerCount: 2
Fore
SplineSet
127 403 m 256
 132 430 126 453 122 479 c 256
 117 503 113 527 119 557 c 256
 138 655 228 725 272 739 c 257
 278 739 285 727 282 719 c 257
 253 705 195 658 185 604 c 256
 177 566 183 542 189 516 c 256
 194 493 199 468 191 428 c 256
 177 358 115 310 87 302 c 257
 112 294 156 247 142 177 c 256
 134 137 120 111 106 88 c 256
 91 62 76 40 68 2 c 256
 58 -52 96 -100 119 -114 c 257
 119 -122 108 -134 102 -134 c 257
 63 -120 1 -50 20 48 c 256
 26 79 41 105 55 130 c 256
 69 154 83 176 88 202 c 256
 98 255 66 281 32 292 c 257
 31 294 31 298 32 302 c 256
 33 306 34 312 36 314 c 257
 75 325 117 350 127 403 c 256
EndSplineSet
Validated: 33
PickledDataWithLists: "(dp1
S'com.fontlab.hintData'
p2
(dp3
S'vhints'
p4
(lp5
(dp6
S'position'
p7
I20
sS'width'
p8
I262
sasS'hhints'
p9
(lp10
(dp11
g7
I719
sg8
I20
sass."
EndChar

StartChar: bar
Encoding: 91 124 91
GlifName: bar
Width: 203
VWidth: 0
GlyphClass: 2
Flags: W
HStem: -124 9
VStem: 171 53
LayerCount: 2
Fore
SplineSet
171 757 m 257
 179 765 192 770 208 770 c 256
 216 770 225 767 224 761 c 258
 55 -111 l 257
 46 -119 27 -124 14 -124 c 256
 6 -124 0 -119 1 -115 c 258
 1 -115 136 587 171 757 c 257
EndSplineSet
Validated: 1
PickledDataWithLists: "(dp1
S'com.fontlab.hintData'
p2
(dp3
S'vhints'
p4
(lp5
(dp6
S'position'
p7
I171
sS'width'
p8
I53
sasS'hhints'
p9
(lp10
(dp11
g7
I-124
sg8
I9
sass."
EndChar

StartChar: braceright
Encoding: 92 125 92
GlifName: braceright
Width: 230
VWidth: 0
GlyphClass: 2
Flags: W
HStem: -134 20
VStem: -38 260
LayerCount: 2
Fore
SplineSet
140 740 m 257
 179 726 241 655 222 557 c 256
 216 527 202 502 188 478 c 256
 174 454 159 429 154 403 c 256
 144 350 176 325 210 314 c 257
 211 312 211 306 210 302 c 256
 209 298 208 294 206 292 c 257
 167 281 125 255 115 202 c 256
 110 176 116 153 120 129 c 256
 125 104 129 78 123 48 c 256
 104 -50 14 -120 -30 -134 c 257
 -37 -134 -41 -122 -38 -114 c 257
 -10 -100 47 -52 57 2 c 256
 64 40 59 62 53 88 c 256
 48 111 43 137 51 177 c 256
 65 247 127 294 155 302 c 257
 130 310 86 358 100 428 c 256
 108 470 123 496 138 520 c 256
 153 545 167 568 174 604 c 256
 184 658 147 705 124 719 c 257
 124 727 134 740 140 740 c 257
EndSplineSet
Validated: 33
PickledDataWithLists: "(dp1
S'com.fontlab.hintData'
p2
(dp3
S'vhints'
p4
(lp5
(dp6
S'position'
p7
I-38
sS'width'
p8
I260
sasS'hhints'
p9
(lp10
(dp11
g7
I-134
sg8
I20
sass."
EndChar

StartChar: asciitilde
Encoding: 93 126 93
GlifName: asciitilde
Width: 542
VWidth: 0
GlyphClass: 2
Flags: W
HStem: 248 56<359 398> 300 56<167 199>
LayerCount: 2
Fore
SplineSet
194 356 m 256
 282 356 315 304 403 304 c 256
 439 304 465 325 496 348 c 257
 498 346 501 342 501 335 c 256
 501 297 430 248 366 248 c 256
 278 248 243 300 155 300 c 256
 119 300 93 279 62 256 c 257
 60 258 57 262 57 269 c 256
 57 313 140 356 194 356 c 256
EndSplineSet
Validated: 8388609
PickledDataWithLists: "(dp1
S'com.fontlab.hintData'
p2
(dp3
S'hhints'
p4
(lp5
(dp6
S'position'
p7
I248
sS'width'
p8
I56
sa(dp9
g7
I300
sg8
I56
sass."
EndChar

StartChar: exclamdown
Encoding: 95 161 95
GlifName: exclamdown
Width: 219
VWidth: 0
GlyphClass: 2
Flags: W
HStem: 314 127<126 139>
VStem: 74 118 85 39
LayerCount: 2
Fore
SplineSet
192 380 m 257
 188 343 157 314 121 314 c 256
 92 314 70 340 74 370 c 257
 78 408 108 441 144 441 c 256
 175 441 196 412 192 380 c 257
15 -208 m 257
 -10 -208 -27 -184 -23 -152 c 257
 -21 -124 47 98 85 233 c 256
 90 250 109 260 118 260 c 257
 123 260 124 250 124 240 c 257
 122 204 97 -48 81 -148 c 256
 75 -178 47 -208 15 -208 c 257
EndSplineSet
Validated: 8388641
PickledDataWithLists: "(dp1
S'com.fontlab.hintData'
p2
(dp3
S'vhints'
p4
(lp5
(dp6
S'position'
p7
I74
sS'width'
p8
I118
sa(dp9
g7
I85
sg8
I39
sasS'hhints'
p10
(lp11
(dp12
g7
I314
sg8
I127
sass."
EndChar

StartChar: cent
Encoding: 96 162 96
GlifName: cent
Width: 381
VWidth: 0
GlyphClass: 2
Flags: W
HStem: -6 71 396 46
VStem: 23 102
LayerCount: 2
Fore
SplineSet
270 474 m 257
 277 474 303 473 302 466 c 257
 126 -45 l 257
 118 -45 93 -43 94 -36 c 257
 270 474 l 257
EndSplineSet
Refer: 66 99 N 1 0 0 1 3 0 2
Validated: 37
PickledDataWithLists: "(dp1
S'com.fontlab.hintData'
p2
(dp3
S'vhints'
p4
(lp5
(dp6
S'position'
p7
I23
sS'width'
p8
I102
sasS'hhints'
p9
(lp10
(dp11
g7
I-6
sg8
I71
sa(dp12
g7
I396
sg8
I46
sass."
EndChar

StartChar: sterling
Encoding: 97 163 97
GlifName: sterling
Width: 463
VWidth: 0
GlyphClass: 2
Flags: W
HStem: -8 86<231 337> 40 75<80.5 204> 294 40<77 116.695 55 117.126 206.864 328> 589 49<311.5 320.5>
LayerCount: 2
Fore
SplineSet
201 259 m 256
 186 184 143 131 114 105 c 257
 132 113 152 115 183 115 c 256
 225 115 276 78 318 78 c 256
 356 78 378 119 392 138 c 256
 396 139 401 134 403 126 c 256
 405 121 404 116 403 112 c 256
 385 78 331 -8 262 -8 c 256
 200 -8 150 40 92 40 c 256
 69 40 31 8 12 -8 c 257
 3 -8 -2 8 0 16 c 256
 18 42 49 68 67 92 c 257
 88 134 102 182 112 234 c 256
 115.236 250.901 116.274 271.939 116.695 294 c 257
 55 294 l 257
 51 304 68 329 77 334 c 257
 117.126 334 l 257
 117.419 360.229 118.171 385.282 122 404 c 256
 152 555 265 638 358 638 c 256
 392 638 407 625 419 607 c 257
 424 584 408 537 376 537 c 256
 335 537 340 589 301 589 c 256
 251 589 228 522 215 454 c 256
 207.975 415.362 207.804 372.955 206.864 334 c 257
 346 334 l 257
 354 328 337 300 328 294 c 257
 205.22 294 l 257
 204.356 281.482 203.06 269.711 201 259 c 256
EndSplineSet
Validated: 8912929
PickledDataWithLists: "(dp1
S'com.fontlab.hintData'
p2
(dp3
S'hhints'
p4
(lp5
(dp6
S'position'
p7
I-8
sS'width'
p8
I86
sa(dp9
g7
I40
sg8
I75
sa(dp10
g7
I294
sg8
I40
sa(dp11
g7
I589
sg8
I49
sass."
EndChar

StartChar: currency
Encoding: 98 164 98
GlifName: currency
Width: 519
VWidth: 0
GlyphClass: 2
Flags: W
HStem: 120 34<221 248.5> 462 34<286.5 313>
LayerCount: 2
Fore
SplineSet
245 154 m 256
 302 154 350 234 358 318 c 256
 367 399 337 462 289 462 c 256
 232 462 182 380 174 296 c 256
 165 215 197 154 245 154 c 256
400 455 m 257
 466 510 l 258
 468 512 470 512 473 510 c 257
 482 506 494 485 496 466 c 257
 428 410 l 257
 437 386 442 357 438 327 c 256
 434 275 409 229 384 199 c 257
 422 141 l 258
 423 139 424 138 422 135 c 257
 418 125 393 105 374 100 c 257
 336 155 l 257
 304 133 267 120 230 120 c 256
 190 120 156 135 132 160 c 257
 74 110 l 258
 72 108 69 109 67 110 c 257
 58 113 46 135 44 154 c 257
 104 205 l 257
 94 229 90 258 94 288 c 256
 98 341 124 389 154 423 c 257
 116 479 l 258
 115 481 116 483 117 485 c 257
 121 495 146 514 166 520 c 257
 203 465 l 257
 234 485 269 496 304 496 c 256
 344 496 376 481 400 455 c 257
EndSplineSet
Validated: 33
PickledDataWithLists: "(dp1
S'com.fontlab.hintData'
p2
(dp3
S'hhints'
p4
(lp5
(dp6
S'position'
p7
I120
sS'width'
p8
I34
sa(dp9
g7
I462
sg8
I34
sass."
EndChar

StartChar: yen
Encoding: 99 165 99
GlifName: yen
Width: 614
VWidth: 0
GlyphClass: 2
Flags: W
HStem: -4 32 134 41<138.5 232.518 150 224.554 333.942 418> 218 41<154.5 248.835 166 240.871 350.986 434> 605 32
LayerCount: 2
Fore
SplineSet
140 134 m 258
 137 134 136 138 136 142 c 256
 136 151 142 167 150 175 c 257
 232.518 175 l 257
 240.871 218 l 257
 156 218 l 258
 153 218 152 221 152 225 c 256
 152 234 158 251 166 259 c 257
 248.835 259 l 257
 250 265 l 258
 251 272 250 279 248 288 c 256
 242 314 174 522 174 522 c 258
 164 553 157 565 143 582 c 256
 132 599 103 605 92 605 c 257
 88 609 91 631 97 637 c 257
 135 634 176 631 217 631 c 256
 258 631 302 634 338 637 c 257
 340 631 337 609 331 605 c 257
 319 605 277 601 272 577 c 256
 270 571 273 565 276 555 c 258
 347 333 l 257
 379 373 473 509 508 563 c 256
 512 569 514 575 515 581 c 256
 517 593 485 604 454 604 c 257
 451 609 455 631 459 636 c 257
 496 633 517 630 554 630 c 256
 597 630 618 634 655 636 c 257
 657 632 652 608 648 604 c 257
 638 604 591 604 569 574 c 256
 557 560 379 316 361 288 c 256
 355 279 354 272 352 264 c 258
 350.986 259 l 257
 444 259 l 258
 446 259 447 256 447 252 c 256
 447 244 444 228 434 218 c 257
 342.667 218 l 257
 333.942 175 l 257
 428 175 l 258
 430 175 431 172 431 168 c 256
 431 160 428 144 418 134 c 257
 325.623 134 l 257
 324 126 l 258
 316 90 312 61 315 44 c 256
 317 32 359 28 371 28 c 257
 374 22 371 2 365 -4 c 257
 330 -1 285 2 249 2 c 256
 213 2 168 -1 132 -4 c 257
 128 2 133 22 139 28 c 257
 151 28 195 32 201 44 c 256
 211 61 215 90 223 126 c 258
 224.554 134 l 257
 140 134 l 258
EndSplineSet
Validated: 524321
PickledDataWithLists: "(dp1
S'com.fontlab.hintData'
p2
(dp3
S'hhints'
p4
(lp5
(dp6
S'position'
p7
I-4
sS'width'
p8
I32
sa(dp9
g7
I134
sg8
I41
sa(dp10
g7
I218
sg8
I41
sa(dp11
g7
I605
sg8
I32
sass."
EndChar

StartChar: brokenbar
Encoding: 100 166 100
GlifName: brokenbar
Width: 208
VWidth: 0
GlyphClass: 2
Flags: W
HStem: -124 9 379 9
VStem: 3 222
LayerCount: 2
Fore
SplineSet
172 756 m 257
 180 764 194 768 210 768 c 257
 218 768 226 766 225 760 c 258
 154 392 l 257
 145 384 127 379 114 379 c 257
 106 379 100 384 101 388 c 258
 101 388 140 586 172 756 c 257
75 252 m 257
 83 260 96 265 112 265 c 257
 120 265 129 262 128 256 c 258
 57 -111 l 257
 48 -119 29 -124 16 -124 c 257
 8 -124 2 -119 3 -115 c 258
 3 -115 42 82 75 252 c 257
EndSplineSet
Validated: 1
PickledDataWithLists: "(dp1
S'com.fontlab.hintData'
p2
(dp3
S'vhints'
p4
(lp5
(dp6
S'position'
p7
I3
sS'width'
p8
I222
sasS'hhints'
p9
(lp10
(dp11
g7
I-124
sg8
I9
sa(dp12
g7
I379
sg8
I9
sass."
EndChar

StartChar: section
Encoding: 101 167 101
GlifName: section
Width: 435
VWidth: 0
GlyphClass: 2
Flags: HW
HStem: -85 50<71.5 157.5> 603 50<300.5 386.5>
LayerCount: 2
Fore
SplineSet
240 602 m 256
 287.49668762 635.527073614 322.997070312 653 380 653 c 256
 393 653 409 648 421 642 c 257
 424 632 422 620 421 614 c 256
 417 596 400 576 379 576 c 256
 362 576 354 586 346 592 c 256
 339 598 329 603 315 603 c 256
 286 603 239 587 232 549 c 256
 223 503 281 427 316 384 c 256
 360 330 404 271 386 182 c 256
 371.043945312 108.052734375 289 20 221 -31 c 256
 173.361360221 -66.7289798343 132.622070312 -85 78 -85 c 256
 65 -85 49 -80 38 -74 c 257
 36 -66 36 -54 37 -48 c 256
 41 -30 59 -8 80 -8 c 256
 97 -8 105 -19 113 -26 c 256
 119 -32 129 -35 143 -35 c 256
 172 -35 220 -19 227 19 c 256
 236 65 178 141 143 184 c 256
 100 238 55.5498046875 296.700195312 72 386 c 256
 85.08203125 457.017578125 155 542 240 602 c 256
176.125976562 508.65625 m 257
 158.493164062 487.267578125 146.357421875 468.978515625 140 436 c 256
 124 353 166 290 207 240 c 256
 243 196 299.002929688 141.999023438 285 72 c 256
 284.005859375 67.03125 281.524414062 61.9296875 280 57 c 257
 297.8046875 79.2451171875 311.129882812 98.4111328125 318 132 c 256
 334.938476562 214.813476562 293 278 252 328 c 256
 216 372 159 426 173 496 c 256
 173.846679688 500.231445312 174.890625 504.453125 176.125976562 508.65625 c 257
EndSplineSet
PickledDataWithLists: "(dp1
S'com.fontlab.hintData'
p2
(dp3
S'hhints'
p4
(lp5
(dp6
S'position'
p7
I-85
sS'width'
p8
I50
sa(dp9
g7
I603
sg8
I50
sass."
EndChar

StartChar: dieresis
Encoding: 102 168 102
GlifName: dieresis
Width: 346
VWidth: 0
GlyphClass: 2
Flags: W
HStem: 462 116<122 134 301 312>
VStem: 76 104 255 104
LayerCount: 2
Fore
SplineSet
255 517 m 257
 258 550 285 578 317 578 c 256
 344 578 362 553 359 525 c 257
 356 492 328 462 296 462 c 256
 268 462 252 488 255 517 c 257
76 517 m 257
 79 550 106 578 138 578 c 256
 165 578 183 553 180 525 c 257
 177 492 150 462 118 462 c 256
 90 462 73 488 76 517 c 257
EndSplineSet
Validated: 33
PickledDataWithLists: "(dp1
S'com.fontlab.hintData'
p2
(dp3
S'vhints'
p4
(lp5
(dp6
S'position'
p7
I76
sS'width'
p8
I104
sa(dp9
g7
I255
sg8
I104
sasS'hhints'
p10
(lp11
(dp12
g7
I462
sg8
I116
sass."
EndChar

StartChar: copyright
Encoding: 103 169 103
GlifName: copyright
Width: 609
VWidth: 0
GlyphClass: 2
Flags: W
HStem: 54 38<227.5 348.5 227.5 352> 179 28<293 317.5> 439 30<313 350 300 369> 561 38<284.5 405.5>
VStem: 403 18 412 21
LayerCount: 2
Fore
SplineSet
421 264 m 257
 421 260 402 204 396 202 c 256
 368 191 336 179 299 179 c 256
 222 179 173 236 183 320 c 256
 193 404 263 469 337 469 c 256
 363 469 401 461 427 452 c 257
 427 450 433 394 433 390 c 256
 433 386 423 382 417 382 c 257
 415 382 414 382 412 384 c 257
 410 398 399 439 339 439 c 256
 287 439 250 384 243 328 c 256
 234 256 269 207 317 207 c 256
 343 207 364 215 377 226 c 256
 392 240 401 266 403 268 c 257
 407 268 419 266 421 264 c 257
99 326 m 256
 83 196 167 92 288 92 c 256
 409 92 519 196 535 326 c 256
 551 456 466 561 345 561 c 256
 224 561 115 456 99 326 c 256
62 326 m 256
 81 477 209 599 349 599 c 256
 489 599 589 477 570 326 c 256
 551 175 422 54 282 54 c 256
 142 54 43 175 62 326 c 256
EndSplineSet
Validated: 8388641
PickledDataWithLists: "(dp1
S'com.fontlab.hintData'
p2
(dp3
S'vhints'
p4
(lp5
(dp6
S'position'
p7
I403
sS'width'
p8
I18
sa(dp9
g7
I412
sg8
I21
sasS'hhints'
p10
(lp11
(dp12
g7
I54
sg8
I38
sa(dp13
g7
I179
sg8
I28
sa(dp14
g7
I439
sg8
I30
sa(dp15
g7
I561
sg8
I38
sass."
EndChar

StartChar: ordfeminine
Encoding: 104 170 104
GlifName: ordfeminine
Width: 389
VWidth: 0
GlyphClass: 2
Flags: W
HStem: 248 50<101 180> 520 36<234 245>
VStem: 57 74<337 390.5> 225 75<273 317.5>
LayerCount: 2
Fore
SplineSet
262 248 m 256
 242 248 225 260 225 286 c 256
 225 290 226 302 228 312 c 256
 230 321 231 324 232 328 c 257
 216 303 166 248 122 248 c 256
 80 248 57 282 57 330 c 256
 57 451 188 556 280 556 c 256
 307 556 334 550 348 545 c 257
 303 338 l 258
 303 335 300 319 300 316 c 256
 300 310 301 300 309 300 c 256
 325 300 360 338 362 341 c 257
 366 339 371 327 370 321 c 257
 360 303 300 248 262 248 c 256
240 520 m 256
 186 520 131 436 131 356 c 256
 131 318 142 298 164 298 c 256
 196 298 241 376 256 443 c 258
 271 510 l 257
 265 516 250 520 240 520 c 256
EndSplineSet
Validated: 1
PickledDataWithLists: "(dp1
S'com.fontlab.hintData'
p2
(dp3
S'vhints'
p4
(lp5
(dp6
S'position'
p7
I57
sS'width'
p8
I74
sa(dp9
g7
I225
sg8
I75
sasS'hhints'
p10
(lp11
(dp12
g7
I248
sg8
I50
sa(dp13
g7
I520
sg8
I36
sass."
EndChar

StartChar: guillemotleft
Encoding: 105 171 105
GlifName: guillemotleft
Width: 482
VWidth: 0
GlyphClass: 2
Flags: W
LayerCount: 2
Fore
SplineSet
398 92 m 257
 392 82 379 75 373 73 c 257
 356 95 293 168 210 230 c 257
 206 234 203 239 203 245 c 256
 203 253 209 260 215 264 c 257
 339 335 403 393 441 423 c 257
 445 422 458 416 460 406 c 257
 455 397 319 266 299 248 c 257
 313 230 396 99 398 92 c 257
221 92 m 257
 215 82 202 75 196 73 c 257
 179 95 116 168 33 230 c 257
 29 234 26 239 26 245 c 256
 26 253 32 260 38 264 c 257
 162 335 226 393 264 423 c 257
 268 422 281 416 283 406 c 257
 278 397 142 266 122 248 c 257
 136 230 219 99 221 92 c 257
EndSplineSet
Validated: 1
EndChar

StartChar: logicalnot
Encoding: 106 172 106
GlifName: logicalnot
Width: 527
VWidth: 0
GlyphClass: 2
Flags: W
HStem: 316 47<57 478 72 414>
LayerCount: 2
Fore
SplineSet
72 363 m 257
 478 363 l 257
 474 339 432 130 432 130 c 257
 430 126 409 116 394 116 c 257
 386 116 377 119 378 124 c 258
 414 316 l 257
 58 316 l 257
 56 316 54 321 54 327 c 256
 54 342 62 357 72 363 c 257
EndSplineSet
Validated: 1
PickledDataWithLists: "(dp1
S'com.fontlab.hintData'
p2
(dp3
S'hhints'
p4
(lp5
(dp6
S'position'
p7
I316
sS'width'
p8
I47
sass."
EndChar

StartChar: registered
Encoding: 107 174 107
GlifName: registered
Width: 609
VWidth: 0
GlyphClass: 2
Flags: W
HStem: 111 38<238.5 359.5 238.5 363> 253 15 379 19<291 299 289 308> 509 18<330 343> 618 39<295.5 416.5>
LayerCount: 2
Fore
SplineSet
341 527 m 256
 382 527 423 501 417 453 c 256
 413 421 378 394 355 386 c 257
 375 348 395 316 406 299 c 256
 423 275 439 270 451 269 c 257
 452 266 449 254 449 253 c 257
 430 253 408 254 397 255 c 256
 380 256 368 264 357 282 c 256
 355 286 317 352 307 373 c 256
 306 375 303 379 299 379 c 256
 297 379 291 379 289 379 c 257
 287 364 280 310 280 310 c 257
 278 295 277 283 279 276 c 256
 280 271 298 268 303 268 c 257
 304 265 303 255 301 253 c 257
 285 254 266 256 250 256 c 256
 234 256 212 254 196 253 c 257
 194 255 196 265 198 268 c 257
 203 268 223 271 225 276 c 256
 229 283 229 295 231 310 c 258
 251 471 l 258
 253 486 255 498 253 505 c 256
 252 510 233 512 228 512 c 257
 227 515 228 525 230 527 c 257
 247 526 268 526 284 526 c 256
 300 526 319 527 341 527 c 256
365 447 m 256
 369 482 360 509 326 509 c 256
 319 509 308 509 306 505 c 256
 304 500 303 489 301 476 c 258
 291 398 l 257
 291 398 304 398 308 398 c 256
 337 398 361 415 365 447 c 256
110 384 m 256
 94 254 178 149 299 149 c 256
 420 149 530 254 546 384 c 256
 562 514 477 618 356 618 c 256
 235 618 126 514 110 384 c 256
73 384 m 256
 92 535 220 657 360 657 c 256
 500 657 600 535 581 384 c 256
 562 233 433 111 293 111 c 256
 153 111 54 233 73 384 c 256
EndSplineSet
Validated: 33
PickledDataWithLists: "(dp1
S'com.fontlab.hintData'
p2
(dp3
S'hhints'
p4
(lp5
(dp6
S'position'
p7
I111
sS'width'
p8
I38
sa(dp9
g7
I253
sg8
I15
sa(dp10
g7
I379
sg8
I19
sa(dp11
g7
I509
sg8
I18
sa(dp12
g7
I618
sg8
I39
sass."
EndChar

StartChar: macron
Encoding: 108 175 108
GlifName: macron
Width: 261
VWidth: 0
GlyphClass: 2
Flags: W
HStem: 552 38<18.5 246 24 240>
VStem: 15 236<560.5 583>
LayerCount: 2
Fore
SplineSet
24 590 m 257
 246 590 l 258
 249 590 251 585 251 581 c 256
 251 573 246 558 240 552 c 257
 20 552 l 258
 17 552 15 558 15 563 c 256
 15 569 20 584 24 590 c 257
EndSplineSet
Validated: 1
PickledDataWithLists: "(dp1
S'com.fontlab.hintData'
p2
(dp3
S'vhints'
p4
(lp5
(dp6
S'position'
p7
I15
sS'width'
p8
I236
sasS'hhints'
p9
(lp10
(dp11
g7
I552
sg8
I38
sass."
EndChar

StartChar: degree
Encoding: 109 176 109
GlifName: degree
Width: 274
VWidth: 0
GlyphClass: 2
Flags: W
HStem: 431 42<161 193 161 196> 600 41<183 215>
VStem: 90 196
LayerCount: 2
Fore
SplineSet
129 530 m 256
 125 498 146 473 176 473 c 256
 210 473 243 504 247 542 c 256
 251 574 230 600 200 600 c 256
 166 600 133 568 129 530 c 256
90 527 m 256
 96 590 153 641 208 641 c 256
 258 641 292 599 286 546 c 256
 280 484 224 431 168 431 c 256
 117 431 84 474 90 527 c 256
EndSplineSet
Validated: 33
PickledDataWithLists: "(dp1
S'com.fontlab.hintData'
p2
(dp3
S'vhints'
p4
(lp5
(dp6
S'position'
p7
I90
sS'width'
p8
I196
sasS'hhints'
p9
(lp10
(dp11
g7
I431
sg8
I42
sa(dp12
g7
I600
sg8
I41
sass."
EndChar

StartChar: plusminus
Encoding: 110 177 110
GlifName: plusminus
Width: 499
VWidth: 0
GlyphClass: 2
Flags: W
HStem: 16 47<6.5 408 17 398> 306 47<62.5 243 74 235 74 287 295 456>
LayerCount: 2
Fore
SplineSet
408 63 m 258
 410 63 411 60 411 55 c 256
 411 42 409 28 398 16 c 257
 8 16 l 258
 5 16 3 19 3 24 c 256
 3 37 7 50 17 63 c 257
 408 63 l 258
64 306 m 258
 61 306 60 309 60 314 c 256
 60 327 64 340 74 353 c 257
 243 353 l 257
 276 526 l 258
 278 539 318 542 322 542 c 256
 330 542 331 538 330 534 c 258
 295 353 l 257
 464 353 l 258
 466 353 468 351 468 346 c 256
 468 333 467 318 456 306 c 257
 287 306 l 257
 252 130 l 258
 250 120 229 114 213 114 c 256
 203 114 200 118 200 122 c 258
 235 306 l 257
 64 306 l 258
EndSplineSet
Validated: 1
PickledDataWithLists: "(dp1
S'com.fontlab.hintData'
p2
(dp3
S'hhints'
p4
(lp5
(dp6
S'position'
p7
I16
sS'width'
p8
I47
sa(dp9
g7
I306
sg8
I47
sass."
EndChar

StartChar: uni00B2
Encoding: 111 178 111
GlifName: uni00B_2
Width: 343
VWidth: 0
GlyphClass: 2
Flags: W
HStem: 254 65<132 237 237 252.5 132 264> 596 50<207.5 216.5>
VStem: 254 84<530.5 557.5>
LayerCount: 2
Fore
SplineSet
338 558 m 256
 338 503 289 452 246 413 c 256
 204 373 151 333 132 319 c 257
 237 319 l 258
 268 319 283 346 296 370 c 256
 298 373 300 374 304 374 c 256
 307 374 317 371 318 369 c 257
 304 340 269 265 264 254 c 257
 264 254 51 254 49 254 c 257
 47 256 45 267 45 270 c 257
 89 312 147 366 193 417 c 256
 234 463 254 504 254 541 c 256
 254 574 232 596 201 596 c 256
 158 596 132 559 124 550 c 257
 120 550 112 560 113 567 c 257
 124 586 174 646 241 646 c 256
 296 646 338 610 338 558 c 256
EndSplineSet
Validated: 1
PickledDataWithLists: "(dp1
S'com.fontlab.hintData'
p2
(dp3
S'vhints'
p4
(lp5
(dp6
S'position'
p7
I254
sS'width'
p8
I84
sasS'hhints'
p9
(lp10
(dp11
g7
I254
sg8
I65
sa(dp12
g7
I596
sg8
I50
sass."
EndChar

StartChar: uni00B3
Encoding: 112 179 112
GlifName: uni00B_3
Width: 326
VWidth: 0
GlyphClass: 2
Flags: W
HStem: 246 31<147 156> 446 22<141 141> 601 45<212.5 215>
VStem: 230 82<348.5 398> 243 68<549 567>
LayerCount: 2
Fore
SplineSet
235 646 m 256
 266 646 311 628 311 574 c 256
 311 524 255 492 229 481 c 257
 260 479 312 454 312 398 c 256
 312 295 188 246 124 246 c 256
 91 246 61 255 49 265 c 257
 47 270 43 281 44 289 c 256
 46 307 63 330 81 330 c 256
 100 330 107 313 115 298 c 256
 124 282 139 277 155 277 c 256
 190 277 230 318 230 379 c 256
 230 417 211 449 173 449 c 256
 165 449 149 448 141 446 c 257
 139 449 138 450 138 454 c 256
 138 457 139 466 140 468 c 257
 180 474 243 502 243 556 c 256
 243 578 230 601 200 601 c 256
 164 601 137 562 131 558 c 257
 127 558 118 568 120 576 c 257
 150 617 190 646 235 646 c 256
EndSplineSet
Validated: 8388609
PickledDataWithLists: "(dp1
S'com.fontlab.hintData'
p2
(dp3
S'vhints'
p4
(lp5
(dp6
S'position'
p7
I230
sS'width'
p8
I82
sa(dp9
g7
I243
sg8
I68
sasS'hhints'
p10
(lp11
(dp12
g7
I246
sg8
I31
sa(dp13
g7
I446
sg8
I22
sa(dp14
g7
I601
sg8
I45
sass."
EndChar

StartChar: acute
Encoding: 113 180 113
GlifName: acute
Width: 212
VWidth: 0
GlyphClass: 2
Flags: W
HStem: 524 162<85 239>
VStem: 76 183
LayerCount: 2
Fore
SplineSet
224 686 m 256
 254 686 260 670 259 662 c 256
 255 624 97 524 88 524 c 256
 82 524 76 537 76 542 c 256
 76 550 153 644 183 674 c 256
 193 684 208 686 224 686 c 256
EndSplineSet
Validated: 33
PickledDataWithLists: "(dp1
S'com.fontlab.hintData'
p2
(dp3
S'vhints'
p4
(lp5
(dp6
S'position'
p7
I76
sS'width'
p8
I183
sasS'hhints'
p9
(lp10
(dp11
g7
I524
sg8
I162
sass."
EndChar

StartChar: paragraph
Encoding: 115 182 115
GlifName: paragraph
Width: 522
VWidth: 0
GlyphClass: 2
Flags: W
HStem: -86 44<225 234> 622 37<263.5 378>
VStem: 66 209<414 491 414 512>
LayerCount: 2
Fore
SplineSet
306 659 m 256
 361 659 411 656 447 656 c 256
 485 656 522 659 560 662 c 257
 564 656 560 635 554 629 c 257
 542 629 501 624 495 612 c 256
 485 594 479 565 472 528 c 257
 456 435 422 253 410 190 c 257
 378 26 274 -86 194 -86 c 256
 162 -86 139 -74 130 -64 c 257
 128 -57 126 -49 126 -40 c 256
 127 -17 140 4 160 4 c 256
 177 4 189 -5 200 -19 c 256
 208 -29 217 -42 233 -42 c 256
 272 -42 284 27 315 186 c 257
 383 537 l 258
 389 567 395 600 393 612 c 256
 391 621 382 622 374 622 c 256
 330 622 275 534 275 448 c 256
 275 380 291 343 323 325 c 257
 325 324 330 318 330 316 c 256
 330 291 268 273 237 273 c 256
 115 273 66 369 66 440 c 256
 66 584 221 659 306 659 c 256
EndSplineSet
Validated: 33
PickledDataWithLists: "(dp1
S'com.fontlab.hintData'
p2
(dp3
S'vhints'
p4
(lp5
(dp6
S'position'
p7
I66
sS'width'
p8
I209
sasS'hhints'
p9
(lp10
(dp11
g7
I-86
sg8
I44
sa(dp12
g7
I622
sg8
I37
sass."
EndChar

StartChar: periodcentered
Encoding: 116 183 116
GlifName: periodcentered
Width: 230
VWidth: 0
GlyphClass: 2
Flags: W
HStem: 196 134<108 121>
VStem: 51 125<258 272>
LayerCount: 2
Fore
SplineSet
51 251 m 256
 51 293 89 330 127 330 c 257
 156 330 176 308 176 278 c 256
 176 238 140 196 102 196 c 257
 72 196 51 221 51 251 c 256
EndSplineSet
Validated: 1
PickledDataWithLists: "(dp1
S'com.fontlab.hintData'
p2
(dp3
S'vhints'
p4
(lp5
(dp6
S'position'
p7
I51
sS'width'
p8
I125
sasS'hhints'
p9
(lp10
(dp11
g7
I196
sg8
I134
sass."
EndChar

StartChar: cedilla
Encoding: 117 184 117
GlifName: cedilla
Width: 284
VWidth: 0
GlyphClass: 2
Flags: W
HStem: -158 24<110 131> -63 35<135 168>
VStem: 166 44<-92 -83.5>
LayerCount: 2
Fore
SplineSet
146 -4 m 257
 170 -4 l 257
 148 -28 l 257
 168 -28 l 258
 191 -28 210 -46 210 -70 c 256
 210 -114 163 -158 99 -158 c 256
 87 -158 69 -152 63 -148 c 257
 62 -146 61 -142 61 -139 c 256
 61 -123 72 -116 78 -116 c 256
 93 -116 99 -134 121 -134 c 256
 147 -134 166 -118 166 -94 c 256
 166 -73 152 -63 140 -63 c 256
 130 -63 123 -66 113 -70 c 256
 111 -70 102 -63 102 -59 c 256
 102 -55 121 -38 146 -4 c 257
EndSplineSet
Validated: 1
PickledDataWithLists: "(dp1
S'com.fontlab.hintData'
p2
(dp3
S'vhints'
p4
(lp5
(dp6
S'position'
p7
I166
sS'width'
p8
I44
sasS'hhints'
p9
(lp10
(dp11
g7
I-158
sg8
I24
sa(dp12
g7
I-63
sg8
I35
sass."
EndChar

StartChar: uni00B9
Encoding: 118 185 118
GlifName: uni00B_9
Width: 260
VWidth: 0
GlyphClass: 2
Flags: W
VStem: 124 98
LayerCount: 2
Fore
SplineSet
124 534 m 257
 125 549 123 562 117 564 c 256
 113 564 101 561 96 559 c 257
 122 573 162 601 164 605 c 257
 166 609 l 257
 204 624 247 641 248 639 c 257
 248 639 244 629 240 610 c 256
 242 610 222 484 222 482 c 257
 217 466 209 440 205 412 c 257
 205 409 208 311 210 311 c 257
 209 302 208 282 210 276 c 256
 213 270 228 267 230 266 c 257
 220 267 190 254 178 254 c 257
 156 254 117 255 94 254 c 257
 82 256 58 264 48 264 c 257
 50 266 73 280 76 283 c 257
 82 289 100 297 105 307 c 257
 108 310 132 424 133 430 c 256
 137 448 138 452 134 458 c 257
 127 458 128 536 124 534 c 257
EndSplineSet
Validated: 33
PickledDataWithLists: "(dp1
S'com.fontlab.hintData'
p2
(dp3
S'vhints'
p4
(lp5
(dp6
S'position'
p7
I124
sS'width'
p8
I98
sass."
EndChar

StartChar: ordmasculine
Encoding: 119 186 119
GlifName: ordmasculine
Width: 350
VWidth: 0
GlyphClass: 2
Flags: W
HStem: 249 26<159.5 201.5 159.5 201.5> 528 26<203 245>
VStem: 61 76<332 386 332 396> 265 76<417.5 471.5>
LayerCount: 2
Fore
SplineSet
233 528 m 256
 173 528 137 422 137 350 c 256
 137 314 147 275 172 275 c 256
 231 275 265 383 265 452 c 256
 265 491 257 528 233 528 c 256
242 554 m 256
 303 554 341 522 341 452 c 256
 341 356 245 249 158 249 c 256
 97 249 61 286 61 348 c 256
 61 444 155 554 242 554 c 256
EndSplineSet
Validated: 1
PickledDataWithLists: "(dp1
S'com.fontlab.hintData'
p2
(dp3
S'vhints'
p4
(lp5
(dp6
S'position'
p7
I61
sS'width'
p8
I76
sa(dp9
g7
I265
sg8
I76
sasS'hhints'
p10
(lp11
(dp12
g7
I249
sg8
I26
sa(dp13
g7
I528
sg8
I26
sass."
EndChar

StartChar: guillemotright
Encoding: 120 187 120
GlifName: guillemotright
Width: 481
VWidth: 0
GlyphClass: 2
Flags: W
LayerCount: 2
Fore
SplineSet
84 404 m 257
 90 414 102 421 108 423 c 257
 125 401 189 328 272 266 c 257
 276 262 278 257 278 251 c 256
 278 243 272 236 266 232 c 257
 142 161 79 103 41 73 c 257
 37 74 23 80 21 90 c 257
 26 99 162 230 182 248 c 257
 168 266 86 397 84 404 c 257
260 404 m 257
 266 414 279 421 285 423 c 257
 302 401 365 328 448 266 c 257
 452 262 455 257 455 251 c 256
 455 243 449 236 443 232 c 257
 319 161 256 103 218 73 c 257
 214 74 200 80 198 90 c 257
 203 99 340 230 360 248 c 257
 346 266 262 397 260 404 c 257
EndSplineSet
Validated: 1
EndChar

StartChar: onequarter
Encoding: 121 188 121
GlifName: onequarter
Width: 669
VWidth: 0
GlyphClass: 2
Flags: W
HStem: -2 21<499 517> 108 44<391 493 575 604> 254 23
LayerCount: 2
Fore
SplineSet
609 402 m 256
 615 402 622 392 621 387 c 258
 575 152 l 257
 609 152 l 258
 613 152 613 141 612 132 c 256
 612 124 606 112 604 108 c 257
 566 108 l 257
 546 2 l 257
 546 2 528 -2 506 -2 c 256
 492 -2 472 0 473 4 c 258
 493 108 l 257
 330 108 l 257
 326 110 325 118 326 122 c 257
 589 394 l 258
 595 400 605 402 609 402 c 256
530 298 m 257
 391 152 l 257
 501 152 l 257
 530 298 l 257
94 549 m 257
 90 551 88 562 88 566 c 256
 88 567 89 570 91 571 c 257
 150 600 228 639 245 647 c 257
 247 647 l 258
 250 647 252 636 252 630 c 257
 252 630 238 603 228 550 c 258
 188 343 l 258
 184 323 182 301 182 291 c 256
 182 279 227 277 231 277 c 256
 233 277 232 266 231 262 c 256
 230 259 230 255 229 254 c 257
 207 255 152 257 130 257 c 256
 108 257 69 255 46 254 c 257
 44 257 47 277 50 277 c 256
 57 277 94 281 99 289 c 256
 104 299 106 311 108 323 c 258
 145 510 l 258
 152 546 156 566 146 566 c 256
 137 566 104 553 94 549 c 257
606 630 m 258
 158 -7 l 257
 158 -7 132 -7 132 4 c 256
 132 6 133 8 134 10 c 258
 583 646 l 257
 583 646 607 645 607 634 c 256
 607 632 607 631 606 630 c 258
EndSplineSet
Validated: 33
PickledDataWithLists: "(dp1
S'com.fontlab.hintData'
p2
(dp3
S'hhints'
p4
(lp5
(dp6
S'position'
p7
I-2
sS'width'
p8
I21
sa(dp9
g7
I108
sg8
I44
sa(dp10
g7
I254
sg8
I23
sass."
EndChar

StartChar: onehalf
Encoding: 122 189 122
GlifName: onehalf
Width: 718
VWidth: 0
GlyphClass: 2
Flags: W
HStem: 0 65<470 575 575 590.5 470 603> 254 23 341 50<545.5 554.5>
VStem: 592 84<276.5 302.5>
LayerCount: 2
Fore
SplineSet
676 304 m 256
 676 249 628 197 585 158 c 256
 543 118 489 79 470 65 c 257
 575 65 l 258
 606 65 621 91 634 115 c 256
 636 118 639 120 643 120 c 256
 646 120 656 116 657 114 c 257
 643 85 608 11 603 0 c 257
 603 0 389 0 387 0 c 257
 385 2 383 12 383 15 c 257
 427 57 485 112 531 163 c 256
 572 209 592 249 592 286 c 256
 592 319 570 341 539 341 c 256
 496 341 470 304 462 295 c 257
 458 295 450 306 451 313 c 257
 462 332 512 391 579 391 c 256
 634 391 676 356 676 304 c 256
94 549 m 257
 90 551 88 562 88 566 c 256
 88 567 89 570 91 571 c 257
 150 600 228 639 245 647 c 257
 247 647 l 258
 250 647 252 636 252 630 c 257
 252 630 238 603 228 550 c 258
 188 343 l 258
 184 323 182 301 182 291 c 256
 182 279 227 277 231 277 c 256
 233 277 232 266 231 262 c 256
 230 259 230 255 229 254 c 257
 207 255 152 257 130 257 c 256
 108 257 69 255 46 254 c 257
 44 257 47 277 50 277 c 256
 57 277 94 281 99 289 c 256
 104 299 106 311 108 323 c 258
 145 510 l 258
 152 546 156 566 146 566 c 256
 137 566 104 553 94 549 c 257
606 630 m 258
 158 -7 l 257
 158 -7 132 -7 132 4 c 256
 132 6 133 8 134 10 c 258
 583 646 l 257
 583 646 607 645 607 634 c 256
 607 632 607 631 606 630 c 258
EndSplineSet
Validated: 33
PickledDataWithLists: "(dp1
S'com.fontlab.hintData'
p2
(dp3
S'vhints'
p4
(lp5
(dp6
S'position'
p7
I592
sS'width'
p8
I84
sasS'hhints'
p9
(lp10
(dp11
g7
I0
sg8
I65
sa(dp12
g7
I254
sg8
I23
sa(dp13
g7
I341
sg8
I50
sass."
EndChar

StartChar: threequarters
Encoding: 123 190 123
GlifName: threequarters
Width: 678
VWidth: 0
GlyphClass: 2
Flags: W
HStem: -2 21<509 527> 108 44<401 503 585 614> 246 31<137 146> 446 22<131 131> 601 45<202.5 205>
VStem: 220 82<348.5 398> 233 68<549 567>
LayerCount: 2
Fore
SplineSet
619 402 m 256
 625 402 632 392 631 387 c 258
 585 152 l 257
 619 152 l 258
 623 152 623 141 622 132 c 256
 622 124 616 112 614 108 c 257
 577 108 l 257
 556 2 l 257
 556 2 538 -2 516 -2 c 256
 502 -2 482 0 483 4 c 258
 503 108 l 257
 340 108 l 257
 336 110 335 118 336 122 c 257
 599 394 l 258
 605 400 615 402 619 402 c 256
540 298 m 257
 401 152 l 257
 511 152 l 257
 540 298 l 257
225 646 m 256
 256 646 301 628 301 574 c 256
 301 524 245 492 219 481 c 257
 250 479 302 454 302 398 c 256
 302 295 178 246 114 246 c 256
 81 246 51 255 39 265 c 257
 37 270 33 281 34 289 c 256
 36 307 53 330 71 330 c 256
 90 330 97 313 105 298 c 256
 114 282 129 277 145 277 c 256
 180 277 220 318 220 379 c 256
 220 417 201 449 163 449 c 256
 155 449 139 448 131 446 c 257
 129 449 128 450 128 454 c 256
 128 457 129 466 130 468 c 257
 170 474 233 502 233 556 c 256
 233 578 220 601 190 601 c 256
 154 601 127 562 121 558 c 257
 117 558 108 568 110 576 c 257
 140 617 180 646 225 646 c 256
607 630 m 258
 158 -7 l 257
 158 -7 132 -7 132 4 c 256
 132 6 133 8 134 10 c 258
 584 646 l 257
 584 646 608 645 608 634 c 256
 608 632 608 631 607 630 c 258
EndSplineSet
Validated: 8388641
PickledDataWithLists: "(dp1
S'com.fontlab.hintData'
p2
(dp3
S'vhints'
p4
(lp5
(dp6
S'position'
p7
I220
sS'width'
p8
I82
sa(dp9
g7
I233
sg8
I68
sasS'hhints'
p10
(lp11
(dp12
g7
I-2
sg8
I21
sa(dp13
g7
I108
sg8
I44
sa(dp14
g7
I246
sg8
I31
sa(dp15
g7
I446
sg8
I22
sa(dp16
g7
I601
sg8
I45
sass."
EndChar

StartChar: questiondown
Encoding: 124 191 124
GlifName: questiondown
Width: 337
VWidth: 0
GlyphClass: 2
Flags: W
HStem: -208 61<81.5 98.5 66 142> 316 127<221 231>
VStem: -26 62<-105 -82 -114 -47> 166 118 172 81<155 166 111 180.5>
LayerCount: 2
Fore
SplineSet
284 384 m 256
 280 346 248 316 214 316 c 257
 184 316 162 340 166 372 c 256
 170 409 204 443 238 443 c 257
 269 443 288 416 284 384 c 256
135 224 m 257
 135 229 141 239 146 242 c 257
 170 242 253 194 253 138 c 256
 253 84 214 59 188 41 c 256
 151 15 113 -2 74 -32 c 256
 54 -48 36 -66 36 -98 c 256
 36 -130 52 -147 80 -147 c 256
 117 -147 133 -99 167 -99 c 256
 205 -99 214 -140 206 -168 c 257
 198 -183 163 -208 121 -208 c 256
 42 -208 -26 -139 -26 -71 c 256
 -26 -23 -14 14 40 52 c 256
 60 68 96 85 136 112 c 256
 160 128 172 144 172 166 c 256
 172 195 145 218 135 224 c 257
EndSplineSet
Validated: 8388641
PickledDataWithLists: "(dp1
S'com.fontlab.hintData'
p2
(dp3
S'vhints'
p4
(lp5
(dp6
S'position'
p7
I-26
sS'width'
p8
I62
sa(dp9
g7
I166
sg8
I118
sa(dp10
g7
I172
sg8
I81
sasS'hhints'
p11
(lp12
(dp13
g7
I-208
sg8
I61
sa(dp14
g7
I316
sg8
I127
sass."
EndChar

StartChar: AE
Encoding: 131 198 131
GlifName: A_E_
Width: 827
VWidth: 0
GlyphClass: 2
Flags: W
HStem: -4 32 0 43 282 46<316 319> 299 46<543 573.5> 618 46 618 38
VStem: 392 90 662 28 755 32<523.5 526>
LayerCount: 2
Fore
SplineSet
485 656 m 257
 548 656 709 664 787 664 c 257
 787 614 786 567 787 523 c 257
 784 520 775 518 768 518 c 256
 762 518 755 521 755 526 c 256
 746 592 714 618 669 618 c 258
 601 618 l 258
 571 618 541 618 536 606 c 256
 529 586 527 560 523 526 c 258
 507 353 l 258
 507 347 523 345 542 345 c 258
 583 345 l 258
 653 345 658 351 684 415 c 256
 686 420 691 422 697 422 c 256
 704 422 711 421 713 418 c 257
 705 386 692 258 690 226 c 257
 688 224 681 222 675 222 c 256
 669 222 662 224 662 229 c 256
 658 281 648 287 640 292 c 256
 630 298 591 299 556 299 c 256
 530 299 502 297 501 287 c 258
 487 148 l 258
 487 144 479 76 482 62 c 256
 484 50 502 43 542 43 c 258
 580 43 l 258
 615 43 655 50 681 68 c 256
 702 84 723 117 746 166 c 256
 748 170 753 172 760 172 c 256
 769 172 782 169 784 166 c 257
 758 112 727 41 714 -3 c 257
 651 -3 519 0 414 -0 c 256
 351 -0 294 -3 288 -3 c 257
 285 3 288 28 293 32 c 257
 305 32 354 39 360 50 c 256
 371 69 376 109 381 158 c 257
 383 177 390 256 392 275 c 257
 392 278 390 281 387 281 c 256
 357 283 325 282 313 282 c 257
 294 282 266 282 236 281 c 256
 233 281 231 279 229 277 c 258
 229 277 139 147 129 133 c 257
 103 95 88 67 87 58 c 256
 83 37 136 28 144 28 c 257
 146 24 145 0 141 -4 c 257
 107 -1 79 3 38 3 c 256
 -5 3 -23 -1 -61 -4 c 257
 -63 -2 -65 22 -59 28 c 257
 -48 28 -6 40 8 54 c 256
 34 81 51 104 73 136 c 258
 387 588 l 257
 389 590 394 598 394 604 c 256
 394 614 380 624 366 624 c 257
 363 628 366 652 369 658 c 257
 389 656 465 656 485 656 c 257
421 557 m 257
 265 334 l 257
 265 334 265 330 267 330 c 256
 285 328 307 328 325 328 c 256
 349 328 369 328 393 330 c 257
 394 330 398 336 398 336 c 257
 398 336 421 549 421 557 c 257
EndSplineSet
Validated: 8388641
PickledDataWithLists: "(dp1
S'com.fontlab.hintData'
p2
(dp3
S'vhints'
p4
(lp5
(dp6
S'position'
p7
I392
sS'width'
p8
I90
sa(dp9
g7
I662
sg8
I28
sa(dp10
g7
I755
sg8
I32
sasS'hhints'
p11
(lp12
(dp13
g7
I-4
sg8
I32
sa(dp14
g7
I0
sg8
I43
sa(dp15
g7
I282
sg8
I46
sa(dp16
g7
I299
sg8
I46
sa(dp17
g7
I618
sg8
I46
sa(dp18
g7
I618
sg8
I38
sass."
EndChar

StartChar: Eth
Encoding: 141 208 141
GlifName: E_th
Width: 701
VWidth: 0
GlyphClass: 2
Flags: W
HStem: -3 38 308 38<69 69.5 69 394> 622 37
LayerCount: 2
Fore
SplineSet
69 346 m 257
 97 346 386 346 399 346 c 256
 403 346 405 342 404 338 c 256
 403 333 399 315 394 308 c 257
 366 308 76 308 63 308 c 256
 59 308 59 316 60 320 c 256
 61 325 62 339 69 346 c 257
EndSplineSet
Refer: 35 68 N 1 0 0 1 0 0 2
Validated: 5
PickledDataWithLists: "(dp1
S'com.fontlab.hintData'
p2
(dp3
S'hhints'
p4
(lp5
(dp6
S'position'
p7
I-3
sS'width'
p8
I38
sa(dp9
g7
I308
sg8
I38
sa(dp10
g7
I622
sg8
I37
sass."
EndChar

StartChar: multiply
Encoding: 148 215 148
GlifName: multiply
Width: 422
VWidth: 0
GlyphClass: 2
Flags: W
HStem: 214 64<201.5 214>
VStem: 174 64<241.5 249>
LayerCount: 2
Fore
SplineSet
32 69 m 256
 26 69 18 94 18 110 c 257
 172 246 l 258
 173 247 174 247 174 248 c 256
 174 250 172 255 171 256 c 258
 72 390 l 257
 72 404 97 425 102 425 c 256
 105 425 104 423 106 421 c 258
 210 280 l 258
 211 279 213 278 214 278 c 258
 216 279 l 256
 374 420 l 258
 376 422 378 423 380 423 c 256
 387 423 394 398 394 380 c 257
 240 244 l 258
 239 243 238 243 238 242 c 256
 238 241 239 241 240 240 c 258
 340 104 l 257
 340 90 322 69 315 69 c 256
 311 69 309 70 308 72 c 258
 205 212 l 258
 204 213 203 214 202 214 c 256
 201 214 199 213 198 212 c 258
 37 72 l 258
 35 70 34 69 32 69 c 256
EndSplineSet
Validated: 1
PickledDataWithLists: "(dp1
S'com.fontlab.hintData'
p2
(dp3
S'vhints'
p4
(lp5
(dp6
S'position'
p7
I174
sS'width'
p8
I64
sasS'hhints'
p9
(lp10
(dp11
g7
I214
sg8
I64
sass."
EndChar

StartChar: Oslash
Encoding: 149 216 149
GlifName: O_slash
Width: 707
VWidth: 0
GlyphClass: 2
Flags: W
HStem: -10 40 626 40 648 20<599 599>
VStem: 55 119 556 119
LayerCount: 2
Fore
SplineSet
106 -13 m 257
 98 -10 78 5 83 11 c 257
 599 668 l 257
 607 666 628 651 623 645 c 257
 106 -13 l 257
EndSplineSet
Refer: 46 79 N 1 0 0 1 0 0 2
Validated: 8388645
PickledDataWithLists: "(dp1
S'com.fontlab.hintData'
p2
(dp3
S'vhints'
p4
(lp5
(dp6
S'position'
p7
I55
sS'width'
p8
I119
sa(dp9
g7
I556
sg8
I119
sasS'hhints'
p10
(lp11
(dp12
g7
I-10
sg8
I40
sa(dp13
g7
I626
sg8
I40
sa(dp14
g7
I648
sg8
I20
sass."
EndChar

StartChar: Thorn
Encoding: 155 222 155
GlifName: T_horn
Width: 531
VWidth: 0
GlyphClass: 2
Flags: W
HStem: -4 33 134 41<271.5 298 261 341> 470 42<333.5 354> 628 33
VStem: 175 93
LayerCount: 2
Fore
SplineSet
351 512 m 256
 449 512 537 429 515 314 c 256
 496 217 397 134 285 134 c 256
 258 134 237 146 229 156 c 256
 227 159 226 170 226 176 c 256
 226 180 227 183 229 183 c 257
 240 177 251 175 271 175 c 256
 325 175 385 222 400 300 c 256
 417 389 389 470 319 470 c 256
 303 470 280 467 268 457 c 256
 258 449 252 434 247 408 c 258
 193 130 l 258
 186 94 180 64 183 46 c 256
 185 34 229 29 241 29 c 257
 244 23 241 2 235 -4 c 257
 199 -1 153 2 115 2 c 256
 78 2 31 -1 -7 -4 c 257
 -10 2 -5 23 -0 29 c 257
 12 29 59 34 65 46 c 256
 75 64 80 94 87 130 c 258
 165 528 l 258
 172 564 178 594 175 612 c 256
 173 624 128 628 116 628 c 257
 113 634 117 655 123 661 c 257
 163 659 205 657 243 657 c 256
 280 657 326 660 364 663 c 257
 368 657 364 636 358 630 c 257
 346 630 299 625 293 613 c 256
 284 593 275 555 269 520 c 256
 268 516 268 506 268 504 c 256
 268 502 269 502 271 502 c 256
 290 508 316 512 351 512 c 256
EndSplineSet
Validated: 33
PickledDataWithLists: "(dp1
S'com.fontlab.hintData'
p2
(dp3
S'vhints'
p4
(lp5
(dp6
S'position'
p7
I175
sS'width'
p8
I93
sasS'hhints'
p9
(lp10
(dp11
g7
I-4
sg8
I33
sa(dp12
g7
I134
sg8
I41
sa(dp13
g7
I470
sg8
I42
sa(dp14
g7
I628
sg8
I33
sass."
EndChar

StartChar: germandbls
Encoding: 156 223 156
GlifName: germandbls
Width: 505
VWidth: 0
GlyphClass: 2
Flags: W
HStem: -226 44<-38 -28> -4 32<307.5 346 307.5 351.5> 377 42 648 42<308 344>
VStem: 254 78<294 364.5> 380 77<88 100.5> 389 88<523.5 570>
LayerCount: 2
Fore
SplineSet
118 419 m 257
 150 583 268 690 348 690 c 256
 407 690 477 649 477 571 c 256
 477 476 398 433 368 408 c 256
 348 391 332 373 332 356 c 256
 332 329 361 297 383 269 c 256
 423 219 457 181 457 124 c 257
 457 52 391 -4 312 -4 c 256
 252 -4 232 10 216 22 c 257
 212 28 205 40 205 55 c 256
 206 83 227 98 248 98 c 256
 281 98 283 28 332 28 c 256
 360 28 380 50 380 82 c 256
 380 119 332 171 306 204 c 256
 277 240 254 271 254 317 c 256
 254 365 292 388 335 432 c 256
 357 454 389 494 389 552 c 256
 389 588 367 648 321 648 c 256
 270 648 240 568 214 419 c 256
 188 275 172 176 148 50 c 256
 116 -114 12 -226 -68 -226 c 256
 -100 -226 -123 -214 -132 -204 c 257
 -134 -197 -136 -188 -136 -179 c 256
 -135 -156 -123 -135 -103 -135 c 256
 -86 -135 -74 -144 -63 -158 c 256
 -55 -168 -46 -182 -30 -182 c 256
 9 -182 22 -113 53 46 c 257
 118 419 l 257
EndSplineSet
Validated: 8388609
PickledDataWithLists: "(dp1
S'com.fontlab.hintData'
p2
(dp3
S'vhints'
p4
(lp5
(dp6
S'position'
p7
I254
sS'width'
p8
I78
sa(dp9
g7
I380
sg8
I77
sa(dp10
g7
I389
sg8
I88
sasS'hhints'
p11
(lp12
(dp13
g7
I-226
sg8
I44
sa(dp14
g7
I-4
sg8
I32
sa(dp15
g7
I377
sg8
I42
sa(dp16
g7
I648
sg8
I42
sass."
EndChar

StartChar: ae
Encoding: 163 230 163
GlifName: ae
Width: 582
VWidth: 0
GlyphClass: 2
Flags: W
HStem: -8 62<65 159> -6 71<314.5 412> 194 34 404 38<218.5 221.5>
VStem: 60 84 467 96<327 375>
LayerCount: 2
Fore
SplineSet
434 403 m 257
 378 403 339 290 332 228 c 257
 371 228 467 290 467 364 c 257
 467 386 455 403 434 403 c 257
225 99 m 257
 223 106 232 194 235 205 c 257
 202 199 165 185 149 176 c 256
 120 160 106 134 104 112 c 257
 100 74 122 54 146 54 c 257
 172 54 220 90 225 99 c 257
254 442 m 257
 296 442 326 415 337 379 c 257
 374 416 426 442 474 442 c 256
 534 442 563 406 563 364 c 257
 563 268 396 199 328 194 c 257
 327 190 325 169 325 160 c 256
 325 110 341 65 390 65 c 257
 434 65 488 128 492 132 c 257
 498 132 505 114 505 107 c 257
 481 71 393 -6 336 -6 c 257
 293 -6 250 20 234 64 c 257
 218 48 120 -8 92 -8 c 257
 38 -8 0 37 5 97 c 256
 9 139 41 175 65 187 c 256
 91 198 182 226 234 242 c 256
 240 244 240 249 242 260 c 258
 249 314 l 258
 250 322 250 331 250 337 c 257
 250 369 237 404 206 404 c 256
 174 404 160 374 144 333 c 256
 133 306 117 288 91 288 c 256
 69 288 58 309 60 327 c 256
 62 340 68 353 76 364 c 257
 98 383 183 442 254 442 c 257
EndSplineSet
Validated: 8388641
PickledDataWithLists: "(dp1
S'com.fontlab.hintData'
p2
(dp3
S'vhints'
p4
(lp5
(dp6
S'position'
p7
I60
sS'width'
p8
I84
sa(dp9
g7
I467
sg8
I96
sasS'hhints'
p10
(lp11
(dp12
g7
I-8
sg8
I62
sa(dp13
g7
I-6
sg8
I71
sa(dp14
g7
I194
sg8
I34
sa(dp15
g7
I404
sg8
I38
sass."
EndChar

StartChar: eth
Encoding: 173 240 173
GlifName: eth
Width: 451
VWidth: 0
GlyphClass: 2
Flags: W
HStem: -7 40<151 202.5 151 210> 404 40<214 257> 669 22
LayerCount: 2
Fore
SplineSet
290 217 m 256
 301 272 305 334 301 350 c 256
 292 385 270 404 244 404 c 256
 184 404 147 310 130 217 c 256
 112 119 129 33 173 33 c 256
 232 33 271 119 290 217 c 256
144 669 m 257
 145 676 153 691 160 691 c 256
 202.541 679.149 245.452 657.049 283.233 625.121 c 257
 405 705 l 257
 409 699 420 679 415 674 c 258
 306.997 603.002 l 257
 380.226 527.983 426.256 411.063 396 256 c 256
 367 108 255 -7 165 -7 c 256
 43 -7 7 100 28 210 c 256
 49 318 153 444 259 444 c 256
 285 444 305 435 313 426 c 257
 313.614 469.573 304.435 522.561 263.737 574.564 c 257
 164 509 l 257
 160 516 150 536 155 541 c 258
 242.617 598.477 l 257
 218.406 622.942 186.312 646.823 144 669 c 257
EndSplineSet
Validated: 524321
PickledDataWithLists: "(dp1
S'com.fontlab.hintData'
p2
(dp3
S'hhints'
p4
(lp5
(dp6
S'position'
p7
I-7
sS'width'
p8
I40
sa(dp9
g7
I404
sg8
I40
sa(dp10
g7
I669
sg8
I22
sass."
EndChar

StartChar: divide
Encoding: 180 247 180
GlifName: divide
Width: 523
VWidth: 0
GlyphClass: 2
Flags: W
HStem: 2 106<214 230> 224 49<44.5 473 54 464> 388 106<288 304>
VStem: 176 96<48 64> 249 96<434 450>
LayerCount: 2
Fore
SplineSet
46 224 m 258
 43 224 41 227 41 232 c 256
 41 244 46 263 54 273 c 257
 473 273 l 258
 475 273 476 269 476 264 c 256
 476 251 472 235 464 224 c 257
 46 224 l 258
304 494 m 257
 328 494 345 474 345 450 c 257
 345 418 320 388 288 388 c 257
 264 388 249 410 249 434 c 257
 249 466 272 494 304 494 c 257
230 108 m 257
 254 108 272 88 272 64 c 257
 272 32 246 2 214 2 c 257
 190 2 176 24 176 48 c 257
 176 80 198 108 230 108 c 257
EndSplineSet
Validated: 8388609
PickledDataWithLists: "(dp1
S'com.fontlab.hintData'
p2
(dp3
S'vhints'
p4
(lp5
(dp6
S'position'
p7
I176
sS'width'
p8
I96
sa(dp9
g7
I249
sg8
I96
sasS'hhints'
p10
(lp11
(dp12
g7
I2
sg8
I106
sa(dp13
g7
I224
sg8
I49
sa(dp14
g7
I388
sg8
I106
sass."
EndChar

StartChar: oslash
Encoding: 181 248 181
GlifName: oslash
Width: 435
VWidth: 0
GlyphClass: 2
Flags: W
HStem: -10 21<72 72> -6 36 406 36
VStem: 20 102 294 102
LayerCount: 2
Fore
SplineSet
72 -10 m 257
 68 -8 51 -1 54 3 c 257
 325 447 l 257
 329 446 346 438 343 434 c 257
 72 -10 l 257
EndSplineSet
Refer: 78 111 N 1 0 0 1 0 0 2
Validated: 8388613
PickledDataWithLists: "(dp1
S'com.fontlab.hintData'
p2
(dp3
S'vhints'
p4
(lp5
(dp6
S'position'
p7
I20
sS'width'
p8
I102
sa(dp9
g7
I294
sg8
I102
sasS'hhints'
p10
(lp11
(dp12
g7
I-10
sg8
I21
sa(dp13
g7
I-6
sg8
I36
sa(dp14
g7
I406
sg8
I36
sass."
EndChar

StartChar: thorn
Encoding: 187 254 187
GlifName: thorn
Width: 473
VWidth: 0
GlyphClass: 2
Flags: W
HStem: -227 30 -218 28 -5 40<179 229> 372 70<276 379> 632 25 672 20
VStem: 156 105<608.5 675> 338 102<250 323>
LayerCount: 2
Fore
SplineSet
248 598 m 256
 245 580 203 368 201 360 c 257
 229 388 296 442 347 442 c 256
 411 442 440 391 440 321 c 256
 440 159 290 -5 168 -5 c 256
 156 -5 140 -3 132 4 c 257
 102 -136 l 258
 100 -145 99 -154 99 -164 c 256
 99 -169 103 -183 113 -186 c 256
 130 -190 157 -190 160 -190 c 256
 164 -191 162 -217 157 -219 c 257
 144 -219 133 -218 122 -218 c 256
 71 -218 7 -220 -51 -227 c 257
 -56 -226 -54 -200 -49 -197 c 257
 -31 -197 -18 -191 -9 -180 c 256
 -2 -171 2 -161 7 -138 c 258
 84 241 l 257
 36 193 l 257
 32 198 29 210 29 216 c 256
 29 224 34 231 38 234 c 258
 93 290 l 257
 147 560 l 258
 151 578 156 603 156 614 c 256
 156 633 111 632 95 632 c 257
 92 636 95 653 99 657 c 257
 154 662 233 684 255 692 c 257
 260 689 261 678 261 672 c 256
 261 664 253 622 248 598 c 256
292 372 m 256
 260 372 216 342 192 312 c 257
 190 298 158 140 158 140 c 258
 145 72 165 35 193 35 c 256
 271 35 338 199 338 301 c 256
 338 345 324 372 292 372 c 256
EndSplineSet
Validated: 8388641
PickledDataWithLists: "(dp1
S'com.fontlab.hintData'
p2
(dp3
S'vhints'
p4
(lp5
(dp6
S'position'
p7
I156
sS'width'
p8
I105
sa(dp9
g7
I338
sg8
I102
sasS'hhints'
p10
(lp11
(dp12
g7
I-227
sg8
I30
sa(dp13
g7
I-218
sg8
I28
sa(dp14
g7
I-5
sg8
I40
sa(dp15
g7
I372
sg8
I70
sa(dp16
g7
I632
sg8
I25
sa(dp17
g7
I672
sg8
I20
sass."
EndChar

StartChar: dagger
Encoding: 190 8224 190
GlifName: dagger
Width: 369
VWidth: 0
GlyphClass: 2
Flags: W
HStem: 434 86<88 115> 464 23<168.5 187 263 279> 642 20<247.5 268>
VStem: 124 14<4.29497e+09 4.29497e+09>
LayerCount: 2
Fore
SplineSet
184 487 m 256
 198 487 204 492 216 505 c 257
 222 538 226 606 212 625 c 257
 216 646 237 662 258 662 c 256
 278 662 297 646 293 625 c 257
 272 606 250 538 244 505 c 257
 251 492 257 487 269 487 c 256
 300 487 329 501 350 520 c 257
 370 520 379 498 377 478 c 256
 375 457 354 434 334 434 c 257
 320 453 294 464 264 464 c 256
 248 464 234 448 232 436 c 257
 235 419 241 394 247 365 c 257
 200 227 189 178 138 -3 c 257
 134 -9 133 -15 129 -16 c 257
 126 -15 126 -7 124 -3 c 257
 143 178 151 227 157 365 c 257
 172 390 190 419 200 436 c 257
 202 448 194 464 180 464 c 256
 148 464 119 453 98 434 c 257
 78 434 69 453 71 474 c 256
 73 495 95 520 115 520 c 257
 129 501 153 487 184 487 c 256
EndSplineSet
Validated: 8388641
PickledDataWithLists: "(dp1
S'com.fontlab.hintData'
p2
(dp3
S'vhints'
p4
(lp5
(dp6
S'position'
p7
I124
sS'width'
p8
I14
sasS'hhints'
p9
(lp10
(dp11
g7
I434
sg8
I86
sa(dp12
g7
I464
sg8
I23
sa(dp13
g7
I642
sg8
I20
sass."
EndChar

StartChar: daggerdbl
Encoding: 191 8225 191
GlifName: daggerdbl
Width: 385
VWidth: 0
GlyphClass: 2
Flags: W
HStem: 126 86<36 63> 159 23<116.5 134.5 210 228.5> 434 86<96 123> 464 23<176.5 194 270 287.5> 642 20<257.5 278>
LayerCount: 2
Fore
SplineSet
239 281 m 257
 222 252 206 227 196 210 c 257
 194 198 203 182 217 182 c 256
 249 182 277 193 298 212 c 257
 318 212 330 191 326 170 c 256
 322 149 301 126 281 126 c 257
 267 145 244 159 213 159 c 256
 201 159 193 154 181 141 c 257
 175 108 169 40 183 21 c 257
 179 0 157 -16 137 -16 c 256
 116 -16 99 0 103 21 c 257
 124 40 147 108 153 141 c 257
 146 154 141 159 128 159 c 256
 97 159 67 145 46 126 c 257
 26 126 16 149 20 170 c 256
 24 191 43 212 63 212 c 257
 77 193 101 182 132 182 c 256
 146 182 162 198 164 210 c 257
 161 227 153 256 148 281 c 257
 163 295 176 312 184 324 c 257
 180 336 173 349 165 365 c 257
 180 390 198 419 208 436 c 257
 210 448 201 464 187 464 c 256
 155 464 127 453 106 434 c 257
 86 434 75 455 79 476 c 256
 83 497 103 520 123 520 c 257
 137 501 161 487 192 487 c 256
 204 487 211 492 223 505 c 257
 229 538 234 606 220 625 c 257
 224 646 247 662 268 662 c 256
 288 662 305 646 301 625 c 257
 280 606 257 538 251 505 c 257
 258 492 264 487 276 487 c 256
 307 487 337 501 358 520 c 257
 378 520 389 497 385 476 c 256
 381 455 362 434 342 434 c 257
 328 453 303 464 272 464 c 256
 258 464 241 448 239 436 c 257
 242 419 249 394 255 365 c 257
 241 351 228 336 220 324 c 257
 222 314 228 297 239 281 c 257
EndSplineSet
Validated: 8388641
PickledDataWithLists: "(dp1
S'com.fontlab.hintData'
p2
(dp3
S'hhints'
p4
(lp5
(dp6
S'position'
p7
I126
sS'width'
p8
I86
sa(dp9
g7
I159
sg8
I23
sa(dp10
g7
I434
sg8
I86
sa(dp11
g7
I464
sg8
I23
sa(dp12
g7
I642
sg8
I20
sass."
EndChar

StartChar: bullet
Encoding: 192 8226 192
GlifName: bullet
Width: 369
VWidth: 0
GlyphClass: 2
Flags: W
HStem: 139 248<176 191>
VStem: 68 230<263 263>
LayerCount: 2
Fore
SplineSet
68 263 m 256
 81 331 144 387 208 387 c 256
 272 387 311 331 298 263 c 256
 285 195 223 139 159 139 c 256
 95 139 55 195 68 263 c 256
EndSplineSet
Validated: 33
PickledDataWithLists: "(dp1
S'com.fontlab.hintData'
p2
(dp3
S'vhints'
p4
(lp5
(dp6
S'position'
p7
I68
sS'width'
p8
I230
sasS'hhints'
p9
(lp10
(dp11
g7
I139
sg8
I248
sass."
EndChar

StartChar: uni2010
Encoding: 193 8208 193
GlifName: uni2010
Width: 366
VWidth: 0
GlyphClass: 2
Flags: W
VStem: 50 256<207 266.5>
LayerCount: 2
Fore
SplineSet
72 264 m 258
 300 276 l 258
 305 276 306 269 306 264 c 256
 306 251 291 208 281 207 c 258
 55 196 l 258
 52 196 50 203 50 211 c 256
 50 222 61 263 72 264 c 258
EndSplineSet
Validated: 1
PickledDataWithLists: "(dp1
S'com.fontlab.hintData'
p2
(dp3
S'vhints'
p4
(lp5
(dp6
S'position'
p7
I50
sS'width'
p8
I256
sass."
EndChar

StartChar: uni2011
Encoding: 194 8209 194
GlifName: uni2011
Width: 366
VWidth: 0
GlyphClass: 2
Flags: W
VStem: 50 256<207 266.5>
LayerCount: 2
Fore
SplineSet
72 264 m 258
 300 276 l 258
 305 276 306 269 306 264 c 256
 306 251 291 208 281 207 c 258
 55 196 l 258
 52 196 50 203 50 211 c 256
 50 222 61 263 72 264 c 258
EndSplineSet
Validated: 1
PickledDataWithLists: "(dp1
S'com.fontlab.hintData'
p2
(dp3
S'vhints'
p4
(lp5
(dp6
S'position'
p7
I50
sS'width'
p8
I256
sass."
EndChar

StartChar: figuredash
Encoding: 195 8210 195
GlifName: figuredash
Width: 521
VWidth: 0
GlyphClass: 2
Flags: W
HStem: 197 68<53 450 72 434>
LayerCount: 2
Fore
SplineSet
450 265 m 258
 456 265 456 256 456 250 c 256
 456 232 442 203 434 197 c 257
 56 197 l 258
 50 197 50 206 50 212 c 256
 50 230 64 259 72 265 c 257
 450 265 l 258
EndSplineSet
Validated: 1
PickledDataWithLists: "(dp1
S'com.fontlab.hintData'
p2
(dp3
S'hhints'
p4
(lp5
(dp6
S'position'
p7
I197
sS'width'
p8
I68
sass."
EndChar

StartChar: endash
Encoding: 196 8211 196
GlifName: endash
Width: 545
VWidth: 0
GlyphClass: 2
Flags: W
HStem: 197 68<53 473 72 458>
LayerCount: 2
Fore
SplineSet
473 265 m 258
 479 265 480 256 480 250 c 256
 480 232 466 203 458 197 c 257
 56 197 l 258
 50 197 50 206 50 212 c 256
 50 230 64 259 72 265 c 257
 473 265 l 258
EndSplineSet
Validated: 1
PickledDataWithLists: "(dp1
S'com.fontlab.hintData'
p2
(dp3
S'hhints'
p4
(lp5
(dp6
S'position'
p7
I197
sS'width'
p8
I68
sass."
EndChar

StartChar: emdash
Encoding: 197 8212 197
GlifName: emdash
Width: 840
VWidth: 0
GlyphClass: 2
Flags: W
HStem: 197 68<55 768 73 753>
LayerCount: 2
Fore
SplineSet
768 265 m 258
 774 265 775 256 775 250 c 256
 775 232 761 203 753 197 c 257
 58 197 l 258
 52 197 51 206 51 212 c 256
 51 230 65 259 73 265 c 257
 768 265 l 258
EndSplineSet
Validated: 1
PickledDataWithLists: "(dp1
S'com.fontlab.hintData'
p2
(dp3
S'hhints'
p4
(lp5
(dp6
S'position'
p7
I197
sS'width'
p8
I68
sass."
EndChar

StartChar: afii00208
Encoding: 198 8213 198
GlifName: afii00208
Width: 1069
VWidth: 0
GlyphClass: 2
Flags: W
HStem: 197 68<55 996 74 981>
LayerCount: 2
Fore
SplineSet
996 265 m 258
 1002 265 1003 256 1003 250 c 256
 1003 232 989 203 981 197 c 257
 58 197 l 258
 52 197 52 206 52 212 c 256
 52 230 66 259 74 265 c 257
 996 265 l 258
EndSplineSet
Validated: 1
PickledDataWithLists: "(dp1
S'com.fontlab.hintData'
p2
(dp3
S'hhints'
p4
(lp5
(dp6
S'position'
p7
I197
sS'width'
p8
I68
sass."
EndChar

StartChar: quoteleft
Encoding: 199 8216 199
GlifName: quoteleft
Width: 187
VWidth: 0
GlyphClass: 2
Flags: W
HStem: 478 228<122.5 236.5>
VStem: 102 93
LayerCount: 2
Fore
SplineSet
101 555 m 256
 119 649 225 706 233 706 c 256
 240 706 246 699 248 688 c 257
 185 652 174 615 172 606 c 256
 168 586 176 570 183 558 c 256
 190 546 198 537 195 524 c 256
 190 500 156 478 126 478 c 256
 119 478 109 481 102 485 c 257
 96 498 96 527 101 555 c 256
EndSplineSet
Validated: 33
PickledDataWithLists: "(dp1
S'com.fontlab.hintData'
p2
(dp3
S'vhints'
p4
(lp5
(dp6
S'position'
p7
I102
sS'width'
p8
I93
sasS'hhints'
p9
(lp10
(dp11
g7
I478
sg8
I228
sass."
EndChar

StartChar: quoteright
Encoding: 200 8217 200
GlifName: quoteright
Width: 195
VWidth: 0
GlyphClass: 2
Flags: W
HStem: 479 228<96.5 208.5>
VStem: 138 92
LayerCount: 2
Fore
SplineSet
229 630 m 256
 211 536 108 479 100 479 c 256
 93 479 86 486 84 497 c 257
 147 533 158 571 160 580 c 256
 164 600 156 614 149 626 c 256
 142 638 135 647 138 660 c 256
 143 684 175 707 205 707 c 256
 212 707 223 704 230 700 c 257
 236 687 234 658 229 630 c 256
EndSplineSet
Validated: 33
PickledDataWithLists: "(dp1
S'com.fontlab.hintData'
p2
(dp3
S'vhints'
p4
(lp5
(dp6
S'position'
p7
I138
sS'width'
p8
I92
sasS'hhints'
p9
(lp10
(dp11
g7
I479
sg8
I228
sass."
EndChar

StartChar: quotesinglbase
Encoding: 201 8218 201
GlifName: quotesinglbase
Width: 198
VWidth: 0
GlyphClass: 2
Flags: W
HStem: -102 228<-29.5 84.5>
VStem: 12 93
LayerCount: 2
Fore
SplineSet
105 48 m 256
 87 -46 -18 -102 -26 -102 c 256
 -33 -102 -40 -95 -42 -84 c 257
 21 -48 34 -11 36 -2 c 256
 40 18 31 32 24 44 c 256
 17 56 9 66 12 79 c 256
 17 103 51 126 81 126 c 256
 88 126 98 122 105 118 c 257
 111 105 110 76 105 48 c 256
EndSplineSet
Validated: 33
PickledDataWithLists: "(dp1
S'com.fontlab.hintData'
p2
(dp3
S'vhints'
p4
(lp5
(dp6
S'position'
p7
I12
sS'width'
p8
I93
sasS'hhints'
p9
(lp10
(dp11
g7
I-102
sg8
I228
sass."
EndChar

StartChar: quotedblleft
Encoding: 202 8220 202
GlifName: quotedblleft
Width: 323
VWidth: 0
GlyphClass: 2
Flags: W
HStem: 478 228<122.5 236.5 229 277>
VStem: 102 93 237 93
LayerCount: 2
Fore
SplineSet
237 555 m 256
 255 649 360 706 368 706 c 256
 375 706 382 699 384 688 c 257
 321 652 309 615 307 606 c 256
 303 587 309 573 316 562 c 256
 324 550 333 538 330 524 c 256
 325 500 292 478 262 478 c 256
 255 478 244 481 237 485 c 257
 231 498 232 527 237 555 c 256
101 555 m 256
 119 649 225 706 233 706 c 256
 240 706 246 699 248 688 c 257
 185 652 174 615 172 606 c 256
 168 586 175 572 182 560 c 256
 189 548 198 538 195 524 c 256
 190 500 156 478 126 478 c 256
 119 478 109 481 102 485 c 257
 96 498 96 527 101 555 c 256
EndSplineSet
Validated: 33
PickledDataWithLists: "(dp1
S'com.fontlab.hintData'
p2
(dp3
S'vhints'
p4
(lp5
(dp6
S'position'
p7
I102
sS'width'
p8
I93
sa(dp9
g7
I237
sg8
I93
sasS'hhints'
p10
(lp11
(dp12
g7
I478
sg8
I228
sass."
EndChar

StartChar: quotedblright
Encoding: 203 8221 203
GlifName: quotedblright
Width: 332
VWidth: 0
GlyphClass: 2
Flags: W
HStem: 478 228<96.5 208.5 190 239>
VStem: 138 92 273 93
LayerCount: 2
Fore
SplineSet
230 629 m 256
 212 535 108 478 100 478 c 256
 93 478 86 485 84 496 c 257
 147 532 159 569 161 578 c 256
 165 597 159 611 152 622 c 256
 144 634 135 646 138 660 c 256
 143 684 175 706 205 706 c 256
 212 706 223 703 230 699 c 257
 236 686 235 657 230 629 c 256
366 629 m 256
 348 535 243 478 235 478 c 256
 228 478 221 485 219 496 c 257
 282 532 294 569 296 578 c 256
 300 598 292 612 285 624 c 256
 278 636 270 646 273 660 c 256
 278 684 311 706 341 706 c 256
 348 706 359 703 366 699 c 257
 372 686 371 657 366 629 c 256
EndSplineSet
Validated: 33
PickledDataWithLists: "(dp1
S'com.fontlab.hintData'
p2
(dp3
S'vhints'
p4
(lp5
(dp6
S'position'
p7
I138
sS'width'
p8
I92
sa(dp9
g7
I273
sg8
I93
sasS'hhints'
p10
(lp11
(dp12
g7
I478
sg8
I228
sass."
EndChar

StartChar: quotedblbase
Encoding: 204 8222 204
GlifName: quotedblbase
Width: 334
VWidth: 0
GlyphClass: 2
Flags: W
HStem: -104 228<-29.5 83.5 65 113>
VStem: 12 92 147 93
LayerCount: 2
Fore
SplineSet
105 47 m 256
 87 -47 -18 -104 -26 -104 c 256
 -33 -104 -40 -97 -42 -86 c 257
 21 -50 33 -13 35 -4 c 256
 39 15 33 29 26 40 c 256
 18 52 9 64 12 78 c 256
 17 102 50 124 80 124 c 256
 87 124 97 121 104 117 c 257
 110 104 110 75 105 47 c 256
240 47 m 256
 222 -47 117 -104 109 -104 c 256
 102 -104 96 -97 94 -86 c 257
 157 -50 168 -13 170 -4 c 256
 174 16 167 30 160 42 c 256
 153 54 144 64 147 78 c 256
 152 102 185 124 215 124 c 256
 222 124 233 121 240 117 c 257
 246 104 245 75 240 47 c 256
EndSplineSet
Validated: 33
PickledDataWithLists: "(dp1
S'com.fontlab.hintData'
p2
(dp3
S'vhints'
p4
(lp5
(dp6
S'position'
p7
I12
sS'width'
p8
I92
sa(dp9
g7
I147
sg8
I93
sasS'hhints'
p10
(lp11
(dp12
g7
I-104
sg8
I228
sass."
EndChar

StartChar: onedotenleader
Encoding: 205 8228 205
GlifName: onedotenleader
Width: 211
VWidth: 0
GlyphClass: 2
Flags: W
HStem: -12 127<61 72>
VStem: 8 117
LayerCount: 2
Fore
SplineSet
8 46 m 256
 12 83 44 115 78 115 c 257
 108 115 129 90 125 58 c 256
 121 21 89 -12 55 -12 c 257
 24 -12 4 14 8 46 c 256
EndSplineSet
Validated: 33
PickledDataWithLists: "(dp1
S'com.fontlab.hintData'
p2
(dp3
S'vhints'
p4
(lp5
(dp6
S'position'
p7
I8
sS'width'
p8
I117
sasS'hhints'
p9
(lp10
(dp11
g7
I-12
sg8
I127
sass."
EndChar

StartChar: ellipsis
Encoding: 206 8230 206
GlifName: ellipsis
Width: 700
VWidth: 0
GlyphClass: 2
Flags: W
HStem: -12 127<61 72 306 316 550 560>
VStem: 8 117 253 117 496 118
LayerCount: 2
Fore
SplineSet
496 46 m 256
 500 84 533 115 567 115 c 257
 597 115 618 90 614 58 c 256
 610 21 577 -12 543 -12 c 257
 512 -12 492 14 496 46 c 256
253 46 m 256
 257 83 289 115 323 115 c 257
 353 115 374 90 370 58 c 256
 366 21 333 -12 299 -12 c 257
 268 -12 249 14 253 46 c 256
8 46 m 256
 12 83 44 115 78 115 c 257
 108 115 129 90 125 58 c 256
 121 21 89 -12 55 -12 c 257
 24 -12 4 14 8 46 c 256
EndSplineSet
Validated: 33
PickledDataWithLists: "(dp1
S'com.fontlab.hintData'
p2
(dp3
S'vhints'
p4
(lp5
(dp6
S'position'
p7
I8
sS'width'
p8
I117
sa(dp9
g7
I253
sg8
I117
sa(dp10
g7
I496
sg8
I118
sasS'hhints'
p11
(lp12
(dp13
g7
I-12
sg8
I127
sass."
EndChar

StartChar: perthousand
Encoding: 207 8240 207
GlifName: perthousand
Width: 982
VWidth: 0
GlyphClass: 2
Flags: W
HStem: -4 29<432.5 479.5 432.5 485 752.5 799.5> 286 28<465.5 511.5 785.5 831.5> 340 29<181.5 228.5 181.5 234> 630 28<214.5 260.5>
VStem: 74 77<454 454> 288 78 325 77<110 110> 539 78 645 77<110 110> 859 78
LayerCount: 2
Fore
SplineSet
815 286 m 257
 756 286 719 185 722 109 c 257
 723 75 735 25 770 25 c 257
 829 25 861 128 859 202 c 257
 858 236 848 286 815 286 c 257
823 314 m 257
 891 314 934 272 937 198 c 257
 940 102 851 -4 759 -4 c 257
 691 -4 647 44 645 110 c 257
 642 206 729 314 823 314 c 257
495 286 m 257
 436 286 399 185 402 109 c 257
 403 75 415 25 450 25 c 257
 509 25 541 128 539 202 c 257
 538 236 528 286 495 286 c 257
503 314 m 257
 571 314 614 272 617 198 c 257
 620 102 531 -4 439 -4 c 257
 371 -4 327 44 325 110 c 257
 322 206 409 314 503 314 c 257
244 630 m 257
 185 630 148 529 151 453 c 257
 152 419 164 369 199 369 c 257
 258 369 290 472 288 546 c 257
 287 580 277 630 244 630 c 257
252 658 m 257
 320 658 363 616 366 542 c 257
 369 446 280 340 188 340 c 257
 120 340 76 388 74 454 c 257
 71 550 158 658 252 658 c 257
620 634 m 257
 99 -7 l 257
 97 -9 73 -10 66 -4 c 257
 62 -3 59 0 59 5 c 257
 580 648 l 257
 582 650 603 649 608 643 c 257
 614 642 618 640 620 634 c 257
EndSplineSet
Validated: 8388641
PickledDataWithLists: "(dp1
S'com.fontlab.hintData'
p2
(dp3
S'vhints'
p4
(lp5
(dp6
S'position'
p7
I74
sS'width'
p8
I77
sa(dp9
g7
I288
sg8
I78
sa(dp10
g7
I325
sg8
I77
sa(dp11
g7
I539
sg8
I78
sa(dp12
g7
I645
sg8
I77
sa(dp13
g7
I859
sg8
I78
sasS'hhints'
p14
(lp15
(dp16
g7
I-4
sg8
I29
sa(dp17
g7
I286
sg8
I28
sa(dp18
g7
I340
sg8
I29
sa(dp19
g7
I630
sg8
I28
sass."
EndChar

StartChar: minute
Encoding: 208 8242 208
GlifName: minute
Width: 169
VWidth: 0
GlyphClass: 2
Flags: W
HStem: 489 210<101 197>
VStem: 140 78
LayerCount: 2
Fore
SplineSet
190 699 m 256
 204 699 220 691 218 674 c 256
 214 630 146 534 117 498 c 256
 113 492 108 489 104 489 c 256
 98 489 94 494 95 501 c 256
 96 504 122 612 140 666 c 256
 144 678 172 699 190 699 c 256
EndSplineSet
Validated: 33
PickledDataWithLists: "(dp1
S'com.fontlab.hintData'
p2
(dp3
S'vhints'
p4
(lp5
(dp6
S'position'
p7
I140
sS'width'
p8
I78
sasS'hhints'
p9
(lp10
(dp11
g7
I489
sg8
I210
sass."
EndChar

StartChar: second
Encoding: 209 8243 209
GlifName: second
Width: 292
VWidth: 0
GlyphClass: 2
Flags: W
HStem: 489 210<101 197 181 229>
VStem: 140 78 263 76
LayerCount: 2
Fore
SplineSet
313 699 m 256
 327 699 341 691 339 674 c 256
 335 630 271 536 241 498 c 256
 237 492 231 489 227 489 c 256
 221 489 217 494 218 501 c 256
 219 504 245 612 263 666 c 256
 267 678 295 699 313 699 c 256
190 699 m 256
 204 699 220 691 218 674 c 256
 214 630 146 534 117 498 c 256
 113 492 108 489 104 489 c 256
 98 489 94 494 95 501 c 256
 96 504 122 612 140 666 c 256
 144 678 172 699 190 699 c 256
EndSplineSet
Validated: 33
PickledDataWithLists: "(dp1
S'com.fontlab.hintData'
p2
(dp3
S'vhints'
p4
(lp5
(dp6
S'position'
p7
I140
sS'width'
p8
I78
sa(dp9
g7
I263
sg8
I76
sasS'hhints'
p10
(lp11
(dp12
g7
I489
sg8
I210
sass."
EndChar

StartChar: uni2038
Encoding: 210 8248 210
GlifName: uni2038
Width: 363
VWidth: 0
GlyphClass: 2
Flags: W
HStem: -48 160<71 214.5 202 283>
VStem: 69 226
LayerCount: 2
Fore
SplineSet
280 -48 m 256
 268 -48 221 -2 194 38 c 257
 154 -3 86 -48 74 -48 c 256
 68 -48 69 -32 69 -30 c 257
 73 -17 139 17 195 102 c 257
 199 110 199 112 205 112 c 256
 224 112 212 95 246 37 c 256
 258 15 294 -23 295 -27 c 257
 294 -31 286 -48 280 -48 c 256
EndSplineSet
Validated: 1
PickledDataWithLists: "(dp1
S'com.fontlab.hintData'
p2
(dp3
S'vhints'
p4
(lp5
(dp6
S'position'
p7
I69
sS'width'
p8
I226
sasS'hhints'
p9
(lp10
(dp11
g7
I-48
sg8
I160
sass."
EndChar

StartChar: guilsinglleft
Encoding: 211 8249 211
GlifName: guilsinglleft
Width: 304
VWidth: 0
GlyphClass: 2
Flags: W
VStem: 26 257
LayerCount: 2
Fore
SplineSet
221 92 m 257
 215 82 202 75 196 73 c 257
 179 95 116 168 33 230 c 257
 29 234 26 239 26 245 c 256
 26 253 32 260 38 264 c 257
 162 335 226 393 264 423 c 257
 268 422 281 416 283 406 c 257
 278 397 142 266 122 248 c 257
 135 230 219 99 221 92 c 257
EndSplineSet
Validated: 1
PickledDataWithLists: "(dp1
S'com.fontlab.hintData'
p2
(dp3
S'vhints'
p4
(lp5
(dp6
S'position'
p7
I26
sS'width'
p8
I257
sass."
EndChar

StartChar: guilsinglright
Encoding: 212 8250 212
GlifName: guilsinglright
Width: 305
VWidth: 0
GlyphClass: 2
Flags: W
VStem: 14 257
LayerCount: 2
Fore
SplineSet
76 404 m 257
 82 414 95 421 101 423 c 257
 118 401 181 328 264 266 c 257
 268 262 271 257 271 251 c 256
 271 243 265 236 259 232 c 257
 135 161 72 103 34 73 c 257
 30 74 16 80 14 90 c 257
 19 99 156 230 176 248 c 257
 162 266 78 397 76 404 c 257
EndSplineSet
Validated: 1
PickledDataWithLists: "(dp1
S'com.fontlab.hintData'
p2
(dp3
S'vhints'
p4
(lp5
(dp6
S'position'
p7
I14
sS'width'
p8
I257
sass."
EndChar

StartChar: uni203E
Encoding: 213 8254 213
GlifName: uni203E_
Width: 789
VWidth: 0
GlyphClass: 2
Flags: W
HStem: 736 68<223 758 242 742>
LayerCount: 2
Fore
SplineSet
758 804 m 258
 764 804 764 796 764 790 c 256
 764 772 750 742 742 736 c 257
 226 736 l 258
 220 736 220 744 220 750 c 256
 220 768 234 798 242 804 c 257
 758 804 l 258
EndSplineSet
Validated: 1
PickledDataWithLists: "(dp1
S'com.fontlab.hintData'
p2
(dp3
S'hhints'
p4
(lp5
(dp6
S'position'
p7
I736
sS'width'
p8
I68
sass."
EndChar

StartChar: Euro
Encoding: 214 8364 214
GlifName: E_uro
Width: 649
VWidth: 0
GlyphClass: 2
Flags: W
HStem: -8 39<313.73 383.5> 246 41<34.5 83.605 45 83.5846 200.726 200.726 200.726 374> 346 41<49.5 101.63 60 91.0114 213.802 389> 612 38
VStem: 83 117 583 32
LayerCount: 2
Fore
SplineSet
36 246 m 258
 33 246 32 250 32 254 c 256
 32 261 38 281 45 287 c 257
 83.605 287 l 257
 84.6878 307.435 87.2062 327.11 91.0114 346 c 257
 51 346 l 258
 48 346 47 350 47 354 c 256
 47 361 53 381 60 387 c 257
 101.63 387 l 257
 155.561 556.108 316.837 651.637 456 650 c 256
 511 649 579 635 627 623 c 257
 626 600 617 502 615 482 c 256
 614 476 607 471 600 471 c 256
 596 471 587 471 583 477 c 257
 584 535 538 612 444 612 c 256
 341.618 612 248.055 526.335 213.802 387 c 257
 398 387 l 258
 400 387 401 382 401 378 c 256
 401 373 398 355 389 346 c 257
 205.71 346 l 257
 202.854 327.122 201.025 307.434 200.324 287 c 257
 383 287 l 258
 385 287 386 283 386 279 c 256
 386 274 383 255 374 246 c 257
 200.726 246 l 257
 207.203 146.919 257.459 31 370 31 c 256
 421 31 461 52 491 78 c 256
 529 111 558 166 566 184 c 257
 579 184 591 178 594 174 c 256
 591 159 542 43 528 33 c 256
 476 4 423 -8 344 -8 c 256
 191.972 -8 92.0552 115.42 83.5846 246 c 257
 36 246 l 258
EndSplineSet
Validated: 524321
PickledDataWithLists: "(dp1
S'com.fontlab.hintData'
p2
(dp3
S'vhints'
p4
(lp5
(dp6
S'position'
p7
I83
sS'width'
p8
I117
sa(dp9
g7
I583
sg8
I32
sasS'hhints'
p10
(lp11
(dp12
g7
I-8
sg8
I39
sa(dp13
g7
I246
sg8
I41
sa(dp14
g7
I346
sg8
I41
sa(dp15
g7
I612
sg8
I38
sass."
EndChar

StartChar: arrowleft
Encoding: 215 8592 215
GlifName: arrowleft
Width: 693
VWidth: 0
GlyphClass: 2
Flags: W
HStem: 213 68<142 648 129 666>
LayerCount: 2
Fore
SplineSet
192 327 m 258
 142 281 l 257
 666 281 l 258
 671 281 672 276 672 268 c 256
 672 256 660 221 648 213 c 257
 129 213 l 257
 129 213 153 178 161 167 c 257
 198 116 210 106 210 96 c 256
 210 84 184 75 178 73 c 257
 177 75 130 132 12 227 c 256
 9 229 8 234 8 238 c 256
 8 246 12 259 21 268 c 257
 158 347 245 421 248 423 c 257
 256 421 271 412 270 402 c 257
 270 395 266 395 192 327 c 258
EndSplineSet
Validated: 1
PickledDataWithLists: "(dp1
S'com.fontlab.hintData'
p2
(dp3
S'hhints'
p4
(lp5
(dp6
S'position'
p7
I213
sS'width'
p8
I68
sass."
EndChar

StartChar: arrowup
Encoding: 216 8593 216
GlifName: arrowup
Width: 323
VWidth: 0
GlyphClass: 2
Flags: W
VStem: 8 326
LayerCount: 2
Fore
SplineSet
155 566 m 257
 103 520 l 257
 40 463 29 452 22 452 c 256
 10 452 9 476 8 482 c 257
 10 483 75 541 192 688 c 256
 195 693 200 694 206 694 c 256
 215 694 223 693 229 686 c 257
 277 555 332 483 334 480 c 257
 330 470 317 452 307 452 c 256
 297 452 294 462 250 522 c 258
 218 566 l 257
 102 -26 l 258
 101 -29 99 -32 90 -32 c 256
 74 -32 43 -22 40 -18 c 257
 155 566 l 257
EndSplineSet
Validated: 1
PickledDataWithLists: "(dp1
S'com.fontlab.hintData'
p2
(dp3
S'vhints'
p4
(lp5
(dp6
S'position'
p7
I8
sS'width'
p8
I326
sass."
EndChar

StartChar: arrowright
Encoding: 217 8594 217
GlifName: arrowright
Width: 690
VWidth: 0
GlyphClass: 2
Flags: W
HStem: 213 69<15.5 558 36 544>
LayerCount: 2
Fore
SplineSet
544 213 m 257
 18 213 l 258
 13 213 12 218 12 226 c 256
 12 238 24 274 36 282 c 257
 558 282 l 257
 524 329 l 257
 480 386 475 389 476 401 c 257
 478 413 501 421 507 423 c 257
 509 420 556 355 668 268 c 257
 672 263 671 257 670 250 c 256
 670 244 667 233 660 227 c 257
 514 140 439 75 438 73 c 257
 430 75 414 84 416 94 c 257
 417 102 430 112 496 170 c 257
 544 213 l 257
EndSplineSet
Validated: 33
PickledDataWithLists: "(dp1
S'com.fontlab.hintData'
p2
(dp3
S'hhints'
p4
(lp5
(dp6
S'position'
p7
I213
sS'width'
p8
I69
sass."
EndChar

StartChar: arrowdown
Encoding: 218 8595 218
GlifName: arrowdown
Width: 327
VWidth: 0
GlyphClass: 2
Flags: W
VStem: -5 325<195 195>
LayerCount: 2
Fore
SplineSet
110 110 m 257
 226 701 l 258
 227 705 230 707 239 707 c 256
 255 707 284 696 288 692 c 257
 174 108 l 257
 226 156 l 257
 288 213 296 223 306 223 c 256
 318 223 319 200 320 194 c 257
 318 193 253 135 136 -12 c 256
 133 -17 128 -19 122 -19 c 256
 113 -19 105 -17 99 -10 c 257
 51 121 -3 192 -5 195 c 257
 -1 205 11 224 21 224 c 256
 30 224 34 213 78 152 c 257
 110 110 l 257
EndSplineSet
Validated: 1
PickledDataWithLists: "(dp1
S'com.fontlab.hintData'
p2
(dp3
S'vhints'
p4
(lp5
(dp6
S'position'
p7
I-5
sS'width'
p8
I325
sass."
EndChar

StartChar: radical
Encoding: 219 8730 219
GlifName: radical
Width: 472
VWidth: 0
GlyphClass: 2
Flags: W
LayerCount: 2
Fore
SplineSet
-18 159 m 257
 -29 165 -36 177 -35 185 c 256
 -33 195 -18 204 -9 209 c 256
 27 231 124 296 139 308 c 256
 148 315 163 315 164 307 c 257
 166 275 170 254 173 238 c 258
 224 8 l 257
 232 30 512 791 512 791 c 257
 555 788 l 257
 555 788 233 -89 209 -153 c 257
 192 -171 172 -176 166 -176 c 256
 162 -176 158 -176 158 -172 c 258
 72 208 l 257
 -18 159 l 257
EndSplineSet
Validated: 1
EndChar

StartChar: infinity
Encoding: 220 8734 220
GlifName: infinity
Width: 827
VWidth: 0
GlyphClass: 2
Flags: W
HStem: 41 66<549 603> 357 67<207.5 269.5>
LayerCount: 2
Fore
SplineSet
616 362 m 256
 559 362 486 277 456 246 c 256
 455 245 454 245 455 244 c 256
 479 200 517 107 581 107 c 256
 643 107 694 181 700 248 c 256
 707 312 670 362 616 362 c 256
237 357 m 256
 177 357 119 288 113 214 c 256
 106 150 142 104 194 104 c 256
 255 104 320 180 358 218 c 256
 359 219 359 219 358 220 c 256
 342 252 302 357 237 357 c 256
261 424 m 256
 351 424 401 342 430 294 c 256
 431 292 435 290 436 292 c 256
 485 345 564 424 654 424 c 256
 736 424 786 348 777 262 c 256
 767 144 657 41 549 41 c 256
 427 41 389 171 379 171 c 258
 378 171 l 257
 316 108 247 39 156 39 c 256
 75 39 28 116 37 202 c 256
 47 320 154 424 261 424 c 256
EndSplineSet
Validated: 33
PickledDataWithLists: "(dp1
S'com.fontlab.hintData'
p2
(dp3
S'hhints'
p4
(lp5
(dp6
S'position'
p7
I41
sS'width'
p8
I66
sa(dp9
g7
I357
sg8
I67
sass."
EndChar

StartChar: lessequal
Encoding: 221 8804 221
GlifName: lessequal
Width: 483
VWidth: 0
GlyphClass: 2
Flags: W
HStem: 5 62<-8.5 366 10 352>
LayerCount: 2
Fore
SplineSet
10 67 m 257
 366 67 l 258
 370 67 372 59 372 53 c 256
 372 39 362 20 352 5 c 257
 -6 5 l 258
 -11 5 -12 12 -12 18 c 256
 -12 32 0 54 10 67 c 257
446 529 m 257
 450 524 459 501 459 482 c 256
 459 477 458 472 454 470 c 258
 120 309 l 257
 396 146 l 257
 396 128 379 86 373 86 c 256
 371 86 368 86 366 88 c 258
 51 274 l 258
 43 279 37 292 37 302 c 256
 37 328 56 342 68 348 c 257
 138 381 372 495 446 529 c 257
EndSplineSet
Validated: 1
PickledDataWithLists: "(dp1
S'com.fontlab.hintData'
p2
(dp3
S'hhints'
p4
(lp5
(dp6
S'position'
p7
I5
sS'width'
p8
I62
sass."
EndChar

StartChar: greaterequal
Encoding: 222 8805 222
GlifName: greaterequal
Width: 485
VWidth: 0
GlyphClass: 2
Flags: W
HStem: 5 62<27.5 402 45 388>
LayerCount: 2
Fore
SplineSet
45 67 m 257
 402 67 l 258
 406 67 408 59 408 53 c 256
 408 39 400 20 388 5 c 257
 30 5 l 258
 25 5 24 12 24 18 c 256
 24 32 35 54 45 67 c 257
52 87 m 257
 47 93 39 121 39 136 c 257
 39 140 40 144 44 146 c 258
 380 308 l 257
 108 470 l 257
 108 492 124 530 130 530 c 256
 132 530 135 530 137 528 c 258
 450 344 l 258
 458 340 465 328 465 318 c 256
 465 304 451 278 433 270 c 257
 363 237 126 121 52 87 c 257
EndSplineSet
Validated: 1
PickledDataWithLists: "(dp1
S'com.fontlab.hintData'
p2
(dp3
S'hhints'
p4
(lp5
(dp6
S'position'
p7
I5
sS'width'
p8
I62
sass."
EndChar

StartChar: gravecomb
Encoding: 223 768 223
GlifName: gravecomb
Width: 227
VWidth: 0
GlyphClass: 4
Flags: W
HStem: 530 140
VStem: 162 172<538 646.5>
LayerCount: 2
Fore
SplineSet
325 530 m 257
 309 532 162 607 162 634 c 256
 162 659 189 670 204 670 c 256
 218 670 231 666 238 660 c 256
 260 641 332 549 334 540 c 257
 334 536 328 531 325 530 c 257
EndSplineSet
Validated: 1
PickledDataWithLists: "(dp1
S'com.fontlab.hintData'
p2
(dp3
S'vhints'
p4
(lp5
(dp6
S'position'
p7
I162
sS'width'
p8
I172
sasS'hhints'
p9
(lp10
(dp11
g7
I530
sg8
I140
sass."
EndChar

StartChar: acutecomb
Encoding: 224 769 224
GlifName: acutecomb
Width: 221
VWidth: 0
GlyphClass: 4
Flags: W
HStem: 530 140
VStem: 156 172<538 646.5>
LayerCount: 2
Fore
SplineSet
164 530 m 257
 161 531 156 536 156 540 c 257
 158 549 230 641 252 660 c 256
 259 666 272 670 286 670 c 256
 301 670 328 659 328 634 c 256
 328 607 180 532 164 530 c 257
EndSplineSet
Validated: 1
PickledDataWithLists: "(dp1
S'com.fontlab.hintData'
p2
(dp3
S'vhints'
p4
(lp5
(dp6
S'position'
p7
I156
sS'width'
p8
I172
sasS'hhints'
p9
(lp10
(dp11
g7
I530
sg8
I140
sass."
EndChar

StartChar: uni0302
Encoding: 225 770 225
GlifName: uni0302
Width: 369
VWidth: 0
GlyphClass: 4
Flags: W
HStem: 598 152
VStem: 181 213<615 615>
LayerCount: 2
Fore
SplineSet
313 750 m 256
 317 750 320 746 323 740 c 256
 351 686 376 645 394 615 c 257
 392 607 387 599 382 598 c 257
 358 617 310 658 299 670 c 257
 283 658 218 616 188 598 c 257
 184 599 179 607 181 615 c 257
 210 643 256 690 301 740 c 256
 306 745 309 750 313 750 c 256
EndSplineSet
Validated: 1
PickledDataWithLists: "(dp1
S'com.fontlab.hintData'
p2
(dp3
S'vhints'
p4
(lp5
(dp6
S'position'
p7
I181
sS'width'
p8
I213
sasS'hhints'
p9
(lp10
(dp11
g7
I598
sg8
I152
sass."
EndChar

StartChar: tildecomb
Encoding: 226 771 226
GlifName: tildecomb
Width: 346
VWidth: 0
GlyphClass: 4
Flags: W
HStem: 622 46<372 373> 661 46<219 276>
VStem: 163 296
LayerCount: 2
Fore
SplineSet
264 707 m 256
 288 707 305 700 321 692 c 256
 341 682 357 668 387 668 c 256
 419 668 446 699 453 707 c 257
 456 706 460 704 459 696 c 256
 457 681 447 665 438 656 c 256
 412 630 387 622 359 622 c 256
 335 622 321 627 303 636 c 256
 283 646 264 661 235 661 c 256
 203 661 176 630 169 622 c 257
 166 623 162 625 163 633 c 256
 165 648 175 663 184 672 c 256
 210 698 237 707 264 707 c 256
EndSplineSet
Validated: 8388609
PickledDataWithLists: "(dp1
S'com.fontlab.hintData'
p2
(dp3
S'vhints'
p4
(lp5
(dp6
S'position'
p7
I163
sS'width'
p8
I296
sasS'hhints'
p9
(lp10
(dp11
g7
I622
sg8
I46
sa(dp12
g7
I661
sg8
I46
sass."
EndChar

StartChar: dotlessi
Encoding: 227 305 227
GlifName: dotlessi
Width: 286
VWidth: 0
GlyphClass: 2
Flags: W
HStem: -7 70<90.5 177> 372 70<89 173>
VStem: 56 99<34 88.5> 112 98<345.5 399>
LayerCount: 2
Fore
SplineSet
108 316 m 258
 109 321 112 343 112 348 c 256
 112 357 110 372 100 372 c 256
 78 372 32 316 29 312 c 257
 24 312 17 329 17 335 c 257
 31 361 108 442 158 442 c 256
 188 442 210 418 210 380 c 256
 210 369 205 340 202 324 c 257
 158 119 l 258
 156 112 155 91 155 86 c 256
 155 77 156 63 166 63 c 256
 188 63 234 119 237 123 c 257
 242 123 249 106 249 100 c 257
 235 74 154 -7 104 -7 c 256
 77 -7 56 14 56 54 c 256
 56 65 61 97 64 111 c 257
 108 316 l 258
EndSplineSet
Validated: 8388609
PickledDataWithLists: "(dp1
S'com.fontlab.hintData'
p2
(dp3
S'vhints'
p4
(lp5
(dp6
S'position'
p7
I56
sS'width'
p8
I99
sa(dp9
g7
I112
sg8
I98
sasS'hhints'
p10
(lp11
(dp12
g7
I-7
sg8
I70
sa(dp13
g7
I372
sg8
I70
sass."
EndChar

StartChar: uni0304
Encoding: 230 772 230
GlifName: uni0304
Width: 352
VWidth: 0
GlyphClass: 4
Flags: W
HStem: 552 41<177 386 167 392>
VStem: 164 232<557 588>
LayerCount: 2
Fore
SplineSet
386 552 m 257
 167 552 l 257
 167 552 164 554 164 560 c 256
 164 567 172 593 177 593 c 258
 392 593 l 258
 394 593 396 590 396 586 c 256
 396 581 394 561 386 552 c 257
EndSplineSet
Validated: 1
PickledDataWithLists: "(dp1
S'com.fontlab.hintData'
p2
(dp3
S'vhints'
p4
(lp5
(dp6
S'position'
p7
I164
sS'width'
p8
I232
sasS'hhints'
p9
(lp10
(dp11
g7
I552
sg8
I41
sass."
EndChar

StartChar: uni0305
Encoding: 231 773 231
GlifName: uni0305
Width: 526
VWidth: 0
GlyphClass: 4
Flags: W
HStem: 736 68<154 673 134 696>
LayerCount: 2
Fore
SplineSet
130 746 m 256
 130 748 144 804 154 804 c 258
 696 804 l 258
 698 804 701 803 699 795 c 256
 696 777 684 748 682 744 c 256
 679 738 673 736 673 736 c 257
 134 736 l 257
 134 736 128 736 130 746 c 256
EndSplineSet
Validated: 1
PickledDataWithLists: "(dp1
S'com.fontlab.hintData'
p2
(dp3
S'hhints'
p4
(lp5
(dp6
S'position'
p7
I736
sS'width'
p8
I68
sass."
EndChar

StartChar: uni0306
Encoding: 232 774 232
GlifName: uni0306
Width: 230
VWidth: 0
GlyphClass: 4
Flags: W
HStem: 520 51<206.5 239> 621 20<150 154 321 325>
VStem: 133 23<621 639> 318 18<627.5 639>
LayerCount: 2
Fore
SplineSet
224 571 m 256
 262 571 300 595 318 638 c 256
 318 640 320 641 322 641 c 256
 328 641 337 633 336 628 c 256
 336 627 334 622 334 620 c 256
 315 567 264 520 214 520 c 256
 164 520 130 564 133 621 c 256
 133 623 134 627 134 628 c 256
 135 633 147 641 153 641 c 256
 155 641 156 640 156 638 c 256
 157 595 189 571 224 571 c 256
EndSplineSet
Validated: 33
PickledDataWithLists: "(dp1
S'com.fontlab.hintData'
p2
(dp3
S'vhints'
p4
(lp5
(dp6
S'position'
p7
I133
sS'width'
p8
I23
sa(dp9
g7
I318
sg8
I18
sasS'hhints'
p10
(lp11
(dp12
g7
I520
sg8
I51
sa(dp13
g7
I621
sg8
I20
sass."
EndChar

StartChar: uni0307
Encoding: 233 775 233
GlifName: uni0307
Width: 250
VWidth: 0
GlyphClass: 4
Flags: W
HStem: 520 119<240 247>
VStem: 188 110<581 581>
LayerCount: 2
Fore
SplineSet
188 581 m 256
 194 613 225 639 255 639 c 257
 285 639 304 613 298 581 c 256
 292 549 262 520 232 520 c 257
 201 520 182 549 188 581 c 256
EndSplineSet
Validated: 33
PickledDataWithLists: "(dp1
S'com.fontlab.hintData'
p2
(dp3
S'vhints'
p4
(lp5
(dp6
S'position'
p7
I188
sS'width'
p8
I110
sasS'hhints'
p9
(lp10
(dp11
g7
I520
sg8
I119
sass."
EndChar

StartChar: uni0308
Encoding: 234 776 234
GlifName: uni0308
Width: 324
VWidth: 0
GlyphClass: 4
Flags: W
HStem: 468 116<172 179 345 352>
VStem: 121 108<526 526> 294 108<526 526>
LayerCount: 2
Fore
SplineSet
360 584 m 257
 390 584 408 558 402 526 c 256
 396 494 367 468 337 468 c 257
 307 468 288 494 294 526 c 256
 300 558 330 584 360 584 c 257
187 584 m 257
 217 584 235 558 229 526 c 256
 223 494 194 468 164 468 c 257
 134 468 115 494 121 526 c 256
 127 558 157 584 187 584 c 257
EndSplineSet
Validated: 33
PickledDataWithLists: "(dp1
S'com.fontlab.hintData'
p2
(dp3
S'vhints'
p4
(lp5
(dp6
S'position'
p7
I121
sS'width'
p8
I108
sa(dp9
g7
I294
sg8
I108
sasS'hhints'
p10
(lp11
(dp12
g7
I468
sg8
I116
sass."
EndChar

StartChar: hookabovecomb
Encoding: 235 777 235
GlifName: hookabovecomb
Width: 164
VWidth: 0
GlyphClass: 4
Flags: W
HStem: 631 34<213.5 226>
VStem: 128 52
LayerCount: 2
Fore
SplineSet
235 665 m 256
 271 665 287 642 281 610 c 256
 275 575 245 550 220 540 c 256
 200 532 190 526 188 514 c 256
 187 509 188 503 189 500 c 257
 188 496 170 489 161 489 c 257
 157 491 144 502 146 514 c 256
 151 540 180 552 196 560 c 256
 218 570 231 582 235 600 c 256
 237 614 235 631 217 631 c 256
 197 631 184 618 180 595 c 256
 177 579 155 574 143 574 c 256
 135 574 127 579 128 587 c 256
 136 629 192 665 235 665 c 256
EndSplineSet
Validated: 33
PickledDataWithLists: "(dp1
S'com.fontlab.hintData'
p2
(dp3
S'vhints'
p4
(lp5
(dp6
S'position'
p7
I128
sS'width'
p8
I52
sasS'hhints'
p9
(lp10
(dp11
g7
I631
sg8
I34
sass."
EndChar

StartChar: uni030A
Encoding: 236 778 236
GlifName: uni030A_
Width: 324
VWidth: 0
GlyphClass: 4
Flags: W
HStem: 506 40<249 277 249 279.5> 655 39<271 299>
VStem: 187 174<600 600>
LayerCount: 2
Fore
SplineSet
224 600 m 256
 218 570 235 546 263 546 c 256
 291 546 318 570 324 600 c 256
 330 630 313 655 285 655 c 256
 257 655 230 630 224 600 c 256
187 600 m 256
 197 652 246 694 293 694 c 256
 341 694 371 652 361 600 c 256
 351 548 303 506 256 506 c 256
 208 506 177 548 187 600 c 256
EndSplineSet
Validated: 33
PickledDataWithLists: "(dp1
S'com.fontlab.hintData'
p2
(dp3
S'vhints'
p4
(lp5
(dp6
S'position'
p7
I187
sS'width'
p8
I174
sasS'hhints'
p9
(lp10
(dp11
g7
I506
sg8
I40
sa(dp12
g7
I655
sg8
I39
sass."
EndChar

StartChar: uni030B
Encoding: 237 779 237
GlifName: uni030B_
Width: 311
VWidth: 0
GlyphClass: 4
Flags: W
HStem: 518 146<131 263 245.5 277>
VStem: 122 316<528 639>
LayerCount: 2
Fore
SplineSet
272 518 m 257
 268 520 264 525 264 531 c 257
 266 540 332 627 368 657 c 256
 372 661 381 664 392 664 c 256
 416 664 438 648 438 630 c 256
 438 593 282 518 272 518 c 257
131 518 m 257
 127 520 122 525 122 531 c 257
 124 540 190 627 226 657 c 256
 230 661 240 664 251 664 c 256
 275 664 297 648 297 630 c 256
 297 593 141 518 131 518 c 257
EndSplineSet
Validated: 1
PickledDataWithLists: "(dp1
S'com.fontlab.hintData'
p2
(dp3
S'vhints'
p4
(lp5
(dp6
S'position'
p7
I122
sS'width'
p8
I316
sasS'hhints'
p9
(lp10
(dp11
g7
I518
sg8
I146
sass."
EndChar

StartChar: uni030C
Encoding: 238 780 238
GlifName: uni030C_
Width: 371
VWidth: 0
GlyphClass: 4
Flags: W
HStem: 496 152
VStem: 168 213<631 631>
LayerCount: 2
Fore
SplineSet
249 496 m 256
 245 496 242 500 239 506 c 256
 211 560 186 601 168 631 c 257
 170 639 175 647 180 648 c 257
 204 628 252 588 263 576 c 257
 279 588 344 630 374 648 c 257
 378 647 383 639 381 631 c 257
 352 603 307 556 262 506 c 256
 257 501 253 496 249 496 c 256
EndSplineSet
Validated: 1
PickledDataWithLists: "(dp1
S'com.fontlab.hintData'
p2
(dp3
S'vhints'
p4
(lp5
(dp6
S'position'
p7
I168
sS'width'
p8
I213
sasS'hhints'
p9
(lp10
(dp11
g7
I496
sg8
I152
sass."
EndChar

StartChar: uni0312
Encoding: 239 786 239
GlifName: uni0312
Width: 139
VWidth: 0
GlyphClass: 4
Flags: W
HStem: 466 170
VStem: 110 106<493 523 493 523>
LayerCount: 2
Fore
SplineSet
214 636 m 257
 215 636 235 632 235 627 c 257
 230 624 194 602 190 569 c 256
 187 543 216 536 216 510 c 256
 216 476 156 456 120 466 c 257
 114 472 110 482 110 497 c 256
 110 549 176 622 214 636 c 257
EndSplineSet
Validated: 33
PickledDataWithLists: "(dp1
S'com.fontlab.hintData'
p2
(dp3
S'vhints'
p4
(lp5
(dp6
S'position'
p7
I110
sS'width'
p8
I106
sasS'hhints'
p9
(lp10
(dp11
g7
I466
sg8
I170
sass."
EndChar

StartChar: uni0315
Encoding: 240 789 240
GlifName: uni0315
Width: 131
VWidth: 0
GlyphClass: 4
Flags: W
HStem: 456 225<119 229 121 229>
VStem: 144 90<642.5 645.5> 165 69
LayerCount: 2
Fore
SplineSet
109 472 m 257
 109 478 165 519 165 559 c 256
 165 580 144 587 144 616 c 256
 144 675 191 681 229 681 c 257
 231 675 234 660 234 649 c 256
 234 636 233 625 230 610 c 256
 218 546 164 480 123 456 c 257
 121 456 l 258
 117 456 109 465 109 472 c 257
EndSplineSet
Validated: 8388609
PickledDataWithLists: "(dp1
S'com.fontlab.hintData'
p2
(dp3
S'vhints'
p4
(lp5
(dp6
S'position'
p7
I144
sS'width'
p8
I90
sa(dp9
g7
I165
sg8
I69
sasS'hhints'
p10
(lp11
(dp12
g7
I456
sg8
I225
sass."
EndChar

StartChar: dotbelowcomb
Encoding: 241 803 241
GlifName: dotbelowcomb
Width: 258
VWidth: 0
GlyphClass: 4
Flags: W
HStem: -162 124<111 119>
VStem: 57 116<4.29497e+09 4.29497e+09>
LayerCount: 2
Fore
SplineSet
57 -100 m 256
 63 -66 95 -38 127 -38 c 256
 159 -38 179 -66 173 -100 c 256
 167 -134 135 -162 103 -162 c 256
 71 -162 51 -134 57 -100 c 256
EndSplineSet
Validated: 33
PickledDataWithLists: "(dp1
S'com.fontlab.hintData'
p2
(dp3
S'vhints'
p4
(lp5
(dp6
S'position'
p7
I57
sS'width'
p8
I116
sasS'hhints'
p9
(lp10
(dp11
g7
I-162
sg8
I124
sass."
EndChar

StartChar: uni0326
Encoding: 242 806 242
GlifName: uni0326
Width: 139
VWidth: 0
GlyphClass: 4
Flags: W
HStem: -206 171<-3 108>
VStem: 8 112<-97 -70.5 -104 -67>
LayerCount: 2
Fore
SplineSet
8 -84 m 256
 8 -50 66 -35 108 -35 c 257
 120 -45 120 -63 120 -78 c 256
 120 -130 46 -190 8 -204 c 257
 7 -204 4 -206 2 -206 c 256
 -8 -206 -17 -200 -17 -195 c 256
 -17 -191 33 -171 37 -138 c 256
 40 -112 8 -110 8 -84 c 256
EndSplineSet
Validated: 33
PickledDataWithLists: "(dp1
S'com.fontlab.hintData'
p2
(dp3
S'vhints'
p4
(lp5
(dp6
S'position'
p7
I8
sS'width'
p8
I112
sasS'hhints'
p9
(lp10
(dp11
g7
I-206
sg8
I171
sass."
EndChar

StartChar: uni0327
Encoding: 243 807 243
GlifName: uni0327
Width: 402
VWidth: 0
GlyphClass: 4
Flags: W
HStem: -154 28<157 177> -64 61<193 198>
VStem: 115 140
LayerCount: 2
Fore
SplineSet
198 -28 m 257
 198 -28 215 -27 219 -27 c 257
 245 -27 260 -51 255 -77 c 256
 246 -124 203 -154 151 -154 c 256
 135 -154 120 -148 115 -142 c 257
 115 -138 115 -131 116 -126 c 256
 117 -119 124 -112 128 -112 c 256
 136 -112 148 -126 166 -126 c 256
 192 -126 207 -111 210 -95 c 256
 214 -76 205 -64 191 -64 c 256
 183 -64 173 -66 163 -70 c 256
 161 -70 152 -60 155 -56 c 256
 166 -41 183 -17 193 -3 c 257
 218 -3 l 257
 198 -28 l 257
EndSplineSet
Validated: 33
PickledDataWithLists: "(dp1
S'com.fontlab.hintData'
p2
(dp3
S'vhints'
p4
(lp5
(dp6
S'position'
p7
I115
sS'width'
p8
I140
sasS'hhints'
p9
(lp10
(dp11
g7
I-154
sg8
I28
sa(dp12
g7
I-64
sg8
I61
sass."
EndChar

StartChar: Aogonek
Encoding: 254 260 254
GlifName: A_ogonek
Width: 601
VWidth: 0
GlyphClass: 2
Flags: W
HStem: -224 60<287 361> -4 34 238 45<266.5 282.5 271 291.5 266.5 362> 642 20<384.5 392>
VStem: 248 58<-140 -139>
LayerCount: 2
Fore
SplineSet
557 -4 m 257
 520 -2 510 2 472 2 c 256
 386 2 306 -81 306 -130 c 256
 306 -150 314 -164 339 -164 c 256
 383 -164 412 -128 418 -126 c 257
 426 -127 419 -151 416 -154 c 256
 392 -188 346 -224 304 -224 c 256
 270 -224 248 -196 248 -169 c 256
 248 -109 301 -55 345 -9 c 256
 369 17 392 28 392 67 c 256
 392 91 367 234 367 234 c 257
 367 234 365 238 362 238 c 256
 332 240 294 238 271 238 c 256
 233 238 211 238 173 236 c 256
 171 236 166 233 166 232 c 257
 166 232 128 168 108 130 c 256
 92 100 80 70 78 60 c 256
 73 35 132 30 139 30 c 257
 142 25 138 1 134 -4 c 257
 100 -1 81 3 40 3 c 256
 -3 3 -22 -1 -60 -4 c 257
 -62 0 -60 19 -55 28 c 257
 -44 28 -3 40 9 54 c 256
 31 81 45 104 63 136 c 258
 348 629 l 258
 356 643 380 662 389 662 c 256
 395 662 398 660 400 658 c 257
 400 658 488 147 490 137 c 257
 496 103 499 80 501 68 c 256
 507 36 555 30 562 30 c 257
 565 22 560 0 557 -4 c 257
321 506 m 257
 197 290 l 257
 197 290 197 286 199 286 c 256
 220 284 256 283 277 283 c 256
 306 283 325 284 354 286 c 256
 356 286 358 291 358 291 c 257
 321 506 l 257
EndSplineSet
Validated: 33
PickledDataWithLists: "(dp1
S'com.fontlab.hintData'
p2
(dp3
S'vhints'
p4
(lp5
(dp6
S'position'
p7
I248
sS'width'
p8
I58
sasS'hhints'
p9
(lp10
(dp11
g7
I-224
sg8
I60
sa(dp12
g7
I-4
sg8
I34
sa(dp13
g7
I238
sg8
I45
sa(dp14
g7
I642
sg8
I20
sass."
EndChar

StartChar: aogonek
Encoding: 255 261 255
GlifName: aogonek
Width: 470
VWidth: 0
GlyphClass: 2
Flags: W
HStem: -224 60<215 290> -6 73<74.5 179> 394 48<250 267>
VStem: 15 100<124.5 202> 176 58<-183.5 -103.5> 240 98<36 88.5>
LayerCount: 2
Fore
SplineSet
260 394 m 256
 188 394 115 268 115 152 c 256
 115 97 130 67 158 67 c 256
 200 67 260 180 280 278 c 258
 301 381 l 257
 293 390 274 394 260 394 c 256
433 100 m 257
 425 86 395 55 365 30 c 256
 316 -10 234 -77 234 -130 c 256
 234 -150 243 -164 268 -164 c 256
 312 -164 340 -128 346 -126 c 257
 354 -127 347 -151 344 -154 c 256
 320 -188 274 -224 232 -224 c 256
 198 -224 176 -197 176 -170 c 256
 176 -112 233 -52 277 -6 c 257
 255 -1 240 20 240 52 c 256
 240 58 242 74 244 88 c 256
 246 101 248 107 249 113 c 257
 229 77 161 -6 102 -6 c 256
 47 -6 15 45 15 114 c 256
 15 290 188 442 312 442 c 256
 348 442 384 433 404 426 c 257
 342 119 l 258
 341 115 338 91 338 86 c 256
 338 77 340 64 350 64 c 256
 372 64 418 119 421 123 c 257
 426 123 433 106 433 100 c 257
EndSplineSet
Validated: 1
PickledDataWithLists: "(dp1
S'com.fontlab.hintData'
p2
(dp3
S'vhints'
p4
(lp5
(dp6
S'position'
p7
I15
sS'width'
p8
I100
sa(dp9
g7
I176
sg8
I58
sa(dp10
g7
I240
sg8
I98
sasS'hhints'
p11
(lp12
(dp13
g7
I-224
sg8
I60
sa(dp14
g7
I-6
sg8
I73
sa(dp15
g7
I394
sg8
I48
sass."
EndChar

StartChar: Eogonek
Encoding: 271 280 271
GlifName: E_ogonek
Width: 565
VWidth: 0
GlyphClass: 2
Flags: W
HStem: -224 60<252.5 328> -3 42 -1 31 311 42<283 313.5> 620 44 620 36 628 33
VStem: 215 58<-183.5 -104> 396 29<236 240> 513 33<522 524>
LayerCount: 2
Fore
SplineSet
215 -170 m 256
 215 -114 272 -30 336 -2 c 257
 272 -2 191 -1 116 -1 c 256
 61 -1 18 -3 -6 -3 c 257
 -9 3 -6 24 0 30 c 257
 12 30 60 34 66 46 c 256
 76 64 81 94 88 130 c 258
 165 528 l 258
 172 564 178 594 175 612 c 256
 173 624 128 628 116 628 c 257
 113 634 117 655 123 661 c 257
 163 659 206 656 244 656 c 256
 307 656 468 664 546 664 c 257
 543 614 546 567 546 522 c 257
 543 519 532 517 525 517 c 256
 518 517 513 519 513 524 c 256
 506 592 480 620 427 620 c 258
 348 620 l 258
 332 620 297 619 291 609 c 256
 283 595 280 571 274 543 c 258
 238 362 l 258
 237 356 257 353 277 353 c 258
 326 353 l 258
 398 353 404 362 432 424 c 256
 434 429 439 432 446 432 c 256
 453 432 459 429 461 426 c 257
 425 236 l 257
 423 234 415 232 408 232 c 256
 401 232 396 235 396 240 c 256
 394 292 387 299 379 304 c 256
 369 310 331 311 296 311 c 256
 270 311 228 310 226 300 c 258
 193 128 l 258
 191 118 181 66 185 54 c 256
 191 42 213 39 245 39 c 258
 298 39 l 258
 333 39 378 49 406 68 c 256
 428 84 454 117 479 166 c 256
 481 170 487 172 494 172 c 256
 503 172 516 169 518 166 c 257
 490 112 450 41 435 -3 c 257
 353 -3 273 -78 273 -130 c 256
 273 -150 281 -164 306 -164 c 256
 350 -164 378 -128 384 -126 c 257
 392 -127 386 -151 383 -154 c 256
 359 -188 312 -224 270 -224 c 256
 235 -224 215 -197 215 -170 c 256
EndSplineSet
Validated: 8388641
PickledDataWithLists: "(dp1
S'com.fontlab.hintData'
p2
(dp3
S'vhints'
p4
(lp5
(dp6
S'position'
p7
I215
sS'width'
p8
I58
sa(dp9
g7
I396
sg8
I29
sa(dp10
g7
I513
sg8
I33
sasS'hhints'
p11
(lp12
(dp13
g7
I-224
sg8
I60
sa(dp14
g7
I-3
sg8
I42
sa(dp15
g7
I-1
sg8
I31
sa(dp16
g7
I311
sg8
I42
sa(dp17
g7
I620
sg8
I44
sa(dp18
g7
I620
sg8
I36
sa(dp19
g7
I628
sg8
I33
sass."
EndChar

StartChar: eogonek
Encoding: 272 281 272
GlifName: eogonek
Width: 380
VWidth: 0
GlyphClass: 2
Flags: W
HStem: -224 60<79 154> -6 71<96.5 208.5> 190 32<126 145.5 126 154> 403 39<214.5 240>
VStem: 20 101<137.5 164.5 137.5 214> 42 57<-183.5 -106> 264 96<327 377.5>
LayerCount: 2
Fore
SplineSet
126 222 m 257
 165 222 264 290 264 364 c 256
 264 391 250 403 230 403 c 256
 172 403 131 273 126 222 c 257
42 -170 m 256
 42 -116 112 -39 146 -5 c 257
 141 -6 137 -6 132 -6 c 256
 61 -6 20 47 20 140 c 256
 20 288 157 442 272 442 c 256
 323 442 360 415 360 365 c 256
 360 265 185 190 123 190 c 257
 122 187 121 167 121 162 c 256
 121 113 136 65 186 65 c 256
 231 65 285 129 288 132 c 257
 294 132 302 113 302 107 c 257
 296 97 277 78 250 54 c 256
 189 1 99 -82 99 -130 c 256
 99 -150 107 -164 132 -164 c 256
 176 -164 204 -128 210 -126 c 257
 218 -127 212 -151 209 -154 c 256
 185 -188 138 -224 96 -224 c 256
 62 -224 42 -197 42 -170 c 256
EndSplineSet
Validated: 8388609
PickledDataWithLists: "(dp1
S'com.fontlab.hintData'
p2
(dp3
S'vhints'
p4
(lp5
(dp6
S'position'
p7
I20
sS'width'
p8
I101
sa(dp9
g7
I42
sg8
I57
sa(dp10
g7
I264
sg8
I96
sasS'hhints'
p11
(lp12
(dp13
g7
I-224
sg8
I60
sa(dp14
g7
I-6
sg8
I71
sa(dp15
g7
I190
sg8
I32
sa(dp16
g7
I403
sg8
I39
sass."
EndChar

StartChar: Iogonek
Encoding: 291 302 291
GlifName: I_ogonek
Width: 333
VWidth: 0
GlyphClass: 2
Flags: W
HStem: -224 60<38 112> -4 33 629 33
VStem: 0 57<-140 -135>
LayerCount: 2
Fore
SplineSet
241 29 m 257
 243 23 239 1 235 -4 c 257
 223 -4 199 -4 179 -8 c 256
 117 -22 57 -82 57 -130 c 256
 57 -150 65 -164 90 -164 c 256
 134 -164 163 -128 169 -126 c 257
 177 -127 170 -151 167 -154 c 256
 143 -188 97 -224 55 -224 c 256
 21 -224 0 -197 -0 -170 c 256
 0 -100 72 -20 119 3 c 257
 82 3 30 -1 -7 -4 c 257
 -10 2 -5 23 -0 29 c 257
 12 29 59 34 65 46 c 256
 75 64 80 94 87 130 c 258
 165 528 l 258
 172 564 178 594 175 612 c 256
 173 624 128 629 116 629 c 257
 113 635 117 656 123 662 c 257
 160 659 205 656 243 656 c 256
 280 656 326 659 364 662 c 257
 368 656 364 635 358 629 c 257
 346 629 299 624 293 612 c 256
 283 594 277 564 270 528 c 258
 193 130 l 258
 186 94 180 64 183 46 c 256
 185 34 229 29 241 29 c 257
EndSplineSet
Validated: 33
PickledDataWithLists: "(dp1
S'com.fontlab.hintData'
p2
(dp3
S'vhints'
p4
(lp5
(dp6
S'position'
p7
I0
sS'width'
p8
I57
sasS'hhints'
p9
(lp10
(dp11
g7
I-224
sg8
I60
sa(dp12
g7
I-4
sg8
I33
sa(dp13
g7
I629
sg8
I33
sass."
EndChar

StartChar: iogonek
Encoding: 292 303 292
GlifName: iogonek
Width: 287
VWidth: 0
GlyphClass: 2
Flags: W
HStem: -224 60<51 125> 372 70<89 173> 543 124<172 190>
VStem: 12 58<-183.5 -104> 113 98<345.5 399> 126 112<597 614.5>
LayerCount: 2
Fore
SplineSet
250 100 m 257
 242 86 212 56 184 32 c 256
 130 -16 70 -78 70 -130 c 256
 70 -150 78 -164 103 -164 c 256
 147 -164 176 -128 182 -126 c 257
 190 -127 183 -151 180 -154 c 256
 156 -188 110 -224 68 -224 c 256
 34 -224 12 -197 12 -170 c 256
 12 -114 68 -48 105 -7 c 257
 78 -7 56 14 56 54 c 256
 56 65 61 97 64 111 c 257
 108 316 l 258
 109 321 113 343 113 348 c 256
 113 357 110 372 100 372 c 256
 78 372 33 316 30 312 c 257
 25 312 18 329 18 335 c 257
 32 361 108 442 158 442 c 256
 188 442 211 418 211 380 c 256
 211 369 207 340 204 324 c 257
 160 119 l 258
 158 112 155 91 156 86 c 256
 156 77 158 64 168 64 c 256
 190 64 235 119 238 123 c 257
 243 123 250 106 250 100 c 257
190 667 m 256
 218 667 238 644 238 616 c 256
 238 578 208 543 172 543 c 256
 144 543 126 568 126 596 c 256
 126 633 154 667 190 667 c 256
EndSplineSet
Validated: 8388641
PickledDataWithLists: "(dp1
S'com.fontlab.hintData'
p2
(dp3
S'vhints'
p4
(lp5
(dp6
S'position'
p7
I12
sS'width'
p8
I58
sa(dp9
g7
I113
sg8
I98
sa(dp10
g7
I126
sg8
I112
sasS'hhints'
p11
(lp12
(dp13
g7
I-224
sg8
I60
sa(dp14
g7
I372
sg8
I70
sa(dp15
g7
I543
sg8
I124
sass."
EndChar

StartChar: Uogonek
Encoding: 339 370 339
GlifName: U_ogonek
Width: 688
VWidth: 0
GlyphClass: 2
Flags: W
HStem: -224 60<273 348> -6 65<247 373.5> 629 33
VStem: 235 57<-181.5 -105>
LayerCount: 2
Fore
SplineSet
292 -130 m 256
 292 -150 301 -164 326 -164 c 256
 370 -164 398 -128 404 -126 c 257
 412 -127 406 -151 403 -154 c 256
 379 -188 332 -224 290 -224 c 256
 256 -224 235 -195 235 -168 c 256
 235 -112 296 -45 344 -2 c 257
 325 -6 305 -6 285 -6 c 256
 209 -6 148 21 115 76 c 256
 87 122 82 187 99 276 c 258
 148 528 l 258
 155 564 161 594 158 612 c 256
 156 624 112 629 100 629 c 257
 97 635 100 656 106 662 c 257
 142 659 188 656 226 656 c 256
 264 656 309 659 347 662 c 257
 351 656 347 635 341 629 c 257
 329 629 282 624 276 612 c 256
 266 594 260 564 253 528 c 258
 212 313 l 258
 198 241 195 186 209 140 c 256
 228 73 283 59 331 59 c 256
 416 59 507 118 542 292 c 257
 585 512 l 258
 593 552 597 590 592 608 c 256
 588 622 542 630 528 630 c 257
 525 637 530 656 534 662 c 257
 574 659 600 656 642 656 c 256
 684 656 707 660 748 662 c 257
 750 656 748 639 742 630 c 257
 730 630 676 624 666 608 c 256
 655 590 644 553 636 513 c 258
 591 281 l 258
 567 161 512 82 443 38 c 256
 377 -6 292 -80 292 -130 c 256
EndSplineSet
Validated: 33
PickledDataWithLists: "(dp1
S'com.fontlab.hintData'
p2
(dp3
S'vhints'
p4
(lp5
(dp6
S'position'
p7
I235
sS'width'
p8
I57
sasS'hhints'
p9
(lp10
(dp11
g7
I-224
sg8
I60
sa(dp12
g7
I-6
sg8
I65
sa(dp13
g7
I629
sg8
I33
sass."
EndChar

StartChar: uogonek
Encoding: 340 371 340
GlifName: uogonek
Width: 512
VWidth: 0
GlyphClass: 2
Flags: W
HStem: -224 60<258 332> -7 92<94.5 194> 372 70<85 169>
VStem: 60 100<47 122> 108 98<345.5 399> 220 58<-183.5 -103.5> 282 100<36 88.5>
LayerCount: 2
Fore
SplineSet
220 -170 m 256
 220 -112 276 -52 320 -6 c 257
 298 -1 282 20 282 52 c 256
 282 60 286 84 290 106 c 256
 295 134 300 154 305 176 c 257
 273 108 171 -7 117 -7 c 257
 72 -7 60 22 60 72 c 256
 60 102 71 158 77 186 c 257
 81 206 101 296 104 316 c 256
 105 321 108 343 108 348 c 256
 108 357 106 372 96 372 c 256
 74 372 28 316 25 312 c 257
 20 312 13 329 13 335 c 257
 27 361 104 442 154 442 c 256
 184 442 206 418 206 380 c 256
 206 369 201 340 198 324 c 257
 197 318 170 182 170 182 c 258
 168 172 160 127 160 117 c 256
 160 101 164 85 178 85 c 256
 210 85 312 222 336 346 c 257
 340 368 350 413 354 435 c 257
 364 438 387 440 397 440 c 256
 407 440 434 438 446 435 c 257
 386 119 l 258
 384 111 382 91 382 86 c 256
 382 77 384 64 394 64 c 256
 416 64 461 119 464 123 c 257
 469 123 476 106 476 100 c 257
 468 86 438 55 408 30 c 256
 359 -10 278 -77 278 -130 c 256
 278 -150 285 -164 310 -164 c 256
 354 -164 383 -128 389 -126 c 257
 397 -127 391 -151 388 -154 c 256
 364 -188 317 -224 275 -224 c 256
 241 -224 220 -197 220 -170 c 256
EndSplineSet
Validated: 8388609
PickledDataWithLists: "(dp1
S'com.fontlab.hintData'
p2
(dp3
S'vhints'
p4
(lp5
(dp6
S'position'
p7
I60
sS'width'
p8
I100
sa(dp9
g7
I108
sg8
I98
sa(dp10
g7
I220
sg8
I58
sa(dp11
g7
I282
sg8
I100
sasS'hhints'
p12
(lp13
(dp14
g7
I-224
sg8
I60
sa(dp15
g7
I-7
sg8
I92
sa(dp16
g7
I372
sg8
I70
sass."
EndChar

StartChar: Hbar
Encoding: 353 294 353
GlifName: H_bar
Width: 696
VWidth: 0
GlyphClass: 2
Flags: W
HStem: -4 33 320 45 474 36<94.5 677 106 669> 629 33
LayerCount: 2
Fore
SplineSet
106 510 m 257
 131 510 665 510 677 510 c 256
 680 510 681 507 680 503 c 256
 679 498 674 482 669 474 c 257
 644 474 108 474 96 474 c 256
 93 474 93 482 94 486 c 256
 95 491 99 502 106 510 c 257
EndSplineSet
Refer: 39 72 N 1 0 0 1 1 0 2
Validated: 5
PickledDataWithLists: "(dp1
S'com.fontlab.hintData'
p2
(dp3
S'hhints'
p4
(lp5
(dp6
S'position'
p7
I-4
sS'width'
p8
I33
sa(dp9
g7
I320
sg8
I45
sa(dp10
g7
I474
sg8
I36
sa(dp11
g7
I629
sg8
I33
sass."
EndChar

StartChar: hbar
Encoding: 354 295 354
GlifName: hbar
Width: 488
VWidth: 0
GlyphClass: 2
Flags: W
HStem: -7 70 350 92 524 36<64 342 74 334> 632 25 670 20
VStem: 135 105 262 99 309 100
LayerCount: 2
Fore
SplineSet
74 560 m 257
 100 560 330 560 342 560 c 256
 346 560 347 556 346 552 c 256
 345 547 339 532 334 524 c 257
 308 524 78 524 66 524 c 256
 62 524 63 531 64 535 c 256
 65 540 67 552 74 560 c 257
EndSplineSet
Refer: 71 104 N 1 0 0 1 1 0 2
Validated: 8388613
PickledDataWithLists: "(dp1
S'com.fontlab.hintData'
p2
(dp3
S'vhints'
p4
(lp5
(dp6
S'position'
p7
I135
sS'width'
p8
I105
sa(dp9
g7
I262
sg8
I99
sa(dp10
g7
I309
sg8
I100
sasS'hhints'
p11
(lp12
(dp13
g7
I-7
sg8
I70
sa(dp14
g7
I350
sg8
I92
sa(dp15
g7
I524
sg8
I36
sa(dp16
g7
I632
sg8
I25
sa(dp17
g7
I670
sg8
I20
sass."
EndChar

StartChar: Lslash
Encoding: 355 321 355
GlifName: L_slash
Width: 539
VWidth: 0
GlyphClass: 2
Flags: W
VStem: 50 256
LayerCount: 2
Fore
SplineSet
22 207 m 258
 17 203 27 247 32 252 c 258
 167 325.637 l 257
 198 334.546 l 257
 417 454 l 258
 423 458 412 413 407 409 c 258
 193 289.272 l 257
 161 280.818 l 257
 22 207 l 258
EndSplineSet
Refer: 43 76 N 1 0 0 1 1 0 2
Validated: 524325
PickledDataWithLists: "(dp1
S'com.fontlab.hintData'
p2
(dp3
S'vhints'
p4
(lp5
(dp6
S'position'
p7
I50
sS'width'
p8
I256
sass."
EndChar

StartChar: lslash
Encoding: 356 322 356
GlifName: lslash
Width: 262
VWidth: 0
GlyphClass: 2
Flags: W
HStem: -7 70 632 25 670 20
VStem: 37 224<289 403> 44 99 149 105
LayerCount: 2
Fore
SplineSet
37 289 m 258
 253 431 l 257
 256 426 266 406 261 403 c 258
 44 260 l 257
 40 266 32 286 37 289 c 258
EndSplineSet
Refer: 75 108 N 1 0 0 1 11 0 2
Validated: 8388613
PickledDataWithLists: "(dp1
S'com.fontlab.hintData'
p2
(dp3
S'vhints'
p4
(lp5
(dp6
S'position'
p7
I37
sS'width'
p8
I224
sa(dp9
g7
I44
sg8
I99
sa(dp10
g7
I149
sg8
I105
sasS'hhints'
p11
(lp12
(dp13
g7
I-7
sg8
I70
sa(dp14
g7
I632
sg8
I25
sa(dp15
g7
I670
sg8
I20
sass."
EndChar

StartChar: Tbar
Encoding: 357 358 357
GlifName: T_bar
Width: 589
VWidth: 0
GlyphClass: 2
Flags: W
HStem: -4 33 306 40<146 480 155 473> 618 40
VStem: 589 34
LayerCount: 2
Fore
SplineSet
155 346 m 257
 183 346 467 346 480 346 c 256
 484 346 485 340 484 336 c 256
 483 330 478 314 473 306 c 257
 445 306 161 306 148 306 c 256
 144 306 143 314 144 318 c 256
 145 324 148 338 155 346 c 257
EndSplineSet
Refer: 51 84 N 1 0 0 1 1 0 2
Validated: 5
PickledDataWithLists: "(dp1
S'com.fontlab.hintData'
p2
(dp3
S'vhints'
p4
(lp5
(dp6
S'position'
p7
I589
sS'width'
p8
I34
sasS'hhints'
p9
(lp10
(dp11
g7
I-4
sg8
I33
sa(dp12
g7
I306
sg8
I40
sa(dp13
g7
I618
sg8
I40
sass."
EndChar

StartChar: tbar
Encoding: 358 359 358
GlifName: tbar
Width: 317
VWidth: 0
GlyphClass: 2
Flags: W
HStem: -7 70 277 40<27 288 36 281> 377 42
VStem: 61 99
LayerCount: 2
Fore
SplineSet
36 317 m 257
 64 317 275 317 288 317 c 256
 292 317 293 312 292 308 c 256
 291 302 286 285 281 277 c 257
 254 277 42 277 29 277 c 256
 25 277 25 285 26 289 c 256
 27 295 29 309 36 317 c 257
EndSplineSet
Refer: 83 116 N 1 0 0 1 13 0 2
Validated: 5
PickledDataWithLists: "(dp1
S'com.fontlab.hintData'
p2
(dp3
S'vhints'
p4
(lp5
(dp6
S'position'
p7
I61
sS'width'
p8
I99
sasS'hhints'
p9
(lp10
(dp11
g7
I-7
sg8
I70
sa(dp12
g7
I277
sg8
I40
sa(dp13
g7
I377
sg8
I42
sass."
EndChar

StartChar: dcroat
Encoding: 359 273 359
GlifName: dcroat
Width: 464
VWidth: 0
GlyphClass: 2
Flags: W
HStem: -6 73 394 48 524 36<220 497 230 490> 632 25 670 20
VStem: 15 100 345 105
LayerCount: 2
Fore
SplineSet
230 560 m 257
 256 560 485 560 497 560 c 256
 501 560 502 556 501 552 c 256
 500 547 495 532 490 524 c 257
 464 524 234 524 222 524 c 256
 218 524 219 531 220 535 c 256
 221 540 223 552 230 560 c 257
EndSplineSet
Refer: 67 100 N 1 0 0 1 0 0 2
Validated: 5
PickledDataWithLists: "(dp1
S'com.fontlab.hintData'
p2
(dp3
S'vhints'
p4
(lp5
(dp6
S'position'
p7
I15
sS'width'
p8
I100
sa(dp9
g7
I345
sg8
I105
sasS'hhints'
p10
(lp11
(dp12
g7
I-6
sg8
I73
sa(dp13
g7
I394
sg8
I48
sa(dp14
g7
I524
sg8
I36
sa(dp15
g7
I632
sg8
I25
sa(dp16
g7
I670
sg8
I20
sass."
EndChar

StartChar: kgreenlandic
Encoding: 362 312 362
GlifName: kgreenlandic
Width: 510
VWidth: 0
GlyphClass: 2
Flags: W
HStem: -4 70<301 406> 372 70<89 173> 381 61<335.5 336>
VStem: 112 93<332 352.5> 354 104<333 355>
LayerCount: 2
Fore
SplineSet
108 316 m 258
 109 321 112 343 112 348 c 256
 112 357 110 372 100 372 c 256
 78 372 32 316 29 312 c 257
 24 312 17 329 17 335 c 257
 31 361 108 442 158 442 c 256
 188 442 210 418 210 380 c 256
 210 370 208 355 206 339 c 257
 206 338 205 333 205 332 c 257
 213 347 293 442 378 442 c 257
 426 442 458 414 458 372 c 256
 458 294 359 242 266 220 c 257
 318 130 354 66 396 66 c 256
 416 66 454 110 464 122 c 257
 470 122 476 105 476 100 c 257
 467 80 392 -4 340 -4 c 256
 262 -4 210 128 178 200 c 257
 170 162 140 0 140 0 c 257
 130 -3 105 -6 94 -6 c 256
 83 -6 58 -3 46 0 c 257
 49 16 108 316 108 316 c 258
323 381 m 257
 265 381 192 281 186 239 c 257
 250 239 354 280 354 348 c 257
 354 362 349 381 323 381 c 257
EndSplineSet
Validated: 8388609
PickledDataWithLists: "(dp1
S'com.fontlab.hintData'
p2
(dp3
S'vhints'
p4
(lp5
(dp6
S'position'
p7
I112
sS'width'
p8
I93
sa(dp9
g7
I354
sg8
I104
sasS'hhints'
p10
(lp11
(dp12
g7
I-4
sg8
I70
sa(dp13
g7
I372
sg8
I70
sa(dp14
g7
I381
sg8
I61
sass."
EndChar

StartChar: Eng
Encoding: 363 330 363
GlifName: E_ng
Width: 724
VWidth: 0
GlyphClass: 2
Flags: W
HStem: -226 22 -4 33 630 33
LayerCount: 2
Fore
SplineSet
288 -204 m 257
 338 -187 459 -66 494 56 c 257
 226 544 l 257
 147 136 l 258
 140 100 136 68 140 53 c 256
 144 39 199 30 210 30 c 257
 214 22 208 2 205 -4 c 257
 168 -2 135 3 94 3 c 256
 51 3 28 -2 -15 -4 c 257
 -17 3 -12 23 -8 29 c 257
 3 29 59 37 69 52 c 256
 79 67 89 99 96 137 c 257
 108 203 161 465 173 531 c 257
 179 564 181 593 175 610 c 256
 170 622 123 630 112 630 c 257
 108 636 112 658 117 663 c 257
 152 661 180 658 217 658 c 256
 247 658 282 660 304 662 c 257
 330 583 467 361 547 207 c 257
 549 211 552 232 554 239 c 257
 607 510 l 257
 614 547 622 593 617 609 c 256
 613 623 561 630 548 630 c 257
 546 634 549 655 553 663 c 257
 593 661 620 656 662 656 c 256
 704 656 733 661 773 663 c 257
 775 657 773 640 765 630 c 257
 756 630 696 624 686 608 c 256
 677 594 665 548 658 512 c 258
 658 512 614 280 584 130 c 256
 535 -116 365 -217 295 -226 c 257
 291 -223 287 -212 288 -204 c 257
EndSplineSet
Validated: 33
PickledDataWithLists: "(dp1
S'com.fontlab.hintData'
p2
(dp3
S'hhints'
p4
(lp5
(dp6
S'position'
p7
I-226
sS'width'
p8
I22
sa(dp9
g7
I-4
sg8
I33
sa(dp10
g7
I630
sg8
I33
sass."
EndChar

StartChar: OE
Encoding: 364 338 364
GlifName: O_E_
Width: 992
VWidth: 0
GlyphClass: 2
Flags: W
HStem: -10 42<268.5 316.5> 0 32 311 42<709 739.5> 620 44 620 36 628 40<342 437>
VStem: 53 120<194 339 194 376> 822 29<236 240> 859 29 940 32<522 524>
LayerCount: 2
Fore
SplineSet
415 628 m 256
 269 628 173 423 173 255 c 257
 173 133 217 32 320 32 c 257
 414 32 460 58 495 114 c 256
 516 133 552 322 571 422 c 256
 581 475 586 544 561 578 c 256
 533 619 459 628 415 628 c 256
552 0 m 256
 532 0 487 1 437 -2 c 256
 389 -5 338 -10 295 -10 c 257
 153 -10 53 112 53 260 c 257
 53 492 237 668 436 668 c 257
 522 668 592 656 658 656 c 256
 720 656 894 664 972 664 c 257
 971 648 971 634 971 618 c 256
 971 585 972 553 972 522 c 257
 969 519 959 517 952 517 c 256
 946 517 940 519 940 524 c 256
 932 592 906 620 844 620 c 258
 779 620 l 257
 751 620 724 620 718 608 c 256
 710 588 706 570 700 542 c 258
 666 362 l 258
 665 356 683 353 703 353 c 258
 750 353 l 258
 822 353 831 360 859 424 c 256
 861 429 866 432 872 432 c 256
 878 432 886 429 888 426 c 257
 851 236 l 257
 849 234 842 232 836 232 c 256
 829 232 822 234 822 240 c 256
 820 292 814 299 806 304 c 256
 796 310 757 311 722 311 c 256
 696 311 655 310 653 300 c 258
 623 146 l 258
 619 126 610 80 612 58 c 256
 614 44 636 39 672 39 c 257
 726 39 l 258
 761 39 804 49 832 68 c 256
 854 84 880 117 906 166 c 256
 908 170 913 172 920 172 c 256
 929 172 942 169 944 166 c 257
 916 112 877 41 862 -3 c 257
 800 -3 657 0 552 0 c 256
EndSplineSet
Validated: 8388641
PickledDataWithLists: "(dp1
S'com.fontlab.hintData'
p2
(dp3
S'vhints'
p4
(lp5
(dp6
S'position'
p7
I53
sS'width'
p8
I120
sa(dp9
g7
I822
sg8
I29
sa(dp10
g7
I859
sg8
I29
sa(dp11
g7
I940
sg8
I32
sasS'hhints'
p12
(lp13
(dp14
g7
I-10
sg8
I42
sa(dp15
g7
I0
sg8
I32
sa(dp16
g7
I311
sg8
I42
sa(dp17
g7
I620
sg8
I44
sa(dp18
g7
I620
sg8
I36
sa(dp19
g7
I628
sg8
I40
sass."
EndChar

StartChar: oe
Encoding: 365 339 365
GlifName: oe
Width: 635
VWidth: 0
GlyphClass: 2
Flags: W
HStem: -6 71<417 419.5> -6 36<149.5 174> 190 32 403 39
VStem: 20 102<116 194.5 116 211> 294 84<137.5 320> 520 96<327.5 375>
LayerCount: 2
Fore
SplineSet
382 222 m 257
 424 223 520 291 520 364 c 256
 520 386 506 403 486 403 c 256
 432 403 389 284 382 222 c 257
250 406 m 256
 170 406 122 247 122 142 c 256
 122 90 132 30 167 30 c 256
 237 30 294 172 294 292 c 256
 294 348 285 406 250 406 c 256
528 442 m 256
 579 442 616 415 616 365 c 256
 616 265 441 190 379 190 c 257
 378 187 378 167 378 162 c 256
 378 113 392 65 442 65 c 256
 487 65 541 129 544 132 c 257
 550 132 558 113 558 107 c 257
 545 85 451 -6 388 -6 c 256
 340 -6 306 18 289 62 c 257
 247 21 198 -6 150 -6 c 256
 68 -6 20 49 20 140 c 256
 20 282 144 442 262 442 c 256
 319 442 361 418 381 370 c 257
 425 414 479 442 528 442 c 256
EndSplineSet
Validated: 8388609
PickledDataWithLists: "(dp1
S'com.fontlab.hintData'
p2
(dp3
S'vhints'
p4
(lp5
(dp6
S'position'
p7
I20
sS'width'
p8
I102
sa(dp9
g7
I294
sg8
I84
sa(dp10
g7
I520
sg8
I96
sasS'hhints'
p11
(lp12
(dp13
g7
I-6
sg8
I71
sa(dp14
g7
I-6
sg8
I36
sa(dp15
g7
I190
sg8
I32
sa(dp16
g7
I403
sg8
I39
sass."
EndChar

